<?xml version="1.0" encoding="UTF-8"?>
<svg id="Layer_1" data-name="Layer 1" xmlns="http://www.w3.org/2000/svg" viewBox="0 0 104.58 91.46">
  <defs>
    <style>
      .cls-1 {
        fill: #d50321;
      }

      .cls-1, .cls-2 {
        stroke-width: 0px;
      }

      .cls-2 {
        fill: #014b8f;
      }
    </style>
  </defs>
  <path class="cls-2" d="m94.95,0h-45.94c-5.31,0-9.63,4.32-9.63,9.63v29.47l-8.53-4.24c-.29-.14-.58-.28-.88-.41,2.5-2.61,4.05-6.16,4.05-10.05,0-8.02-6.53-14.55-14.55-14.55s-14.55,6.53-14.55,14.55c0,4.36,1.93,8.28,4.98,10.94C4.29,38.5,0,44.66,0,52.29v9.84c0,4.24,2.75,7.85,6.56,9.13v17.13c0,1.69,1.37,3.06,3.06,3.06h19.69c1.69,0,3.06-1.37,3.06-3.06v-34.42l9.81,4.9c3.75,1.88,8.85.76,11.15-3.51h10.98l-11.63,31.99c-.58,1.59.24,3.35,1.83,3.93,1.82.66,3.43-.48,3.93-1.83l12.39-34.08h2.15l12.52,34.09c.48,1.29,2.08,2.5,3.93,1.82,1.59-.58,2.4-2.34,1.82-3.93l-11.74-31.98h15.43c5.21,0,9.63-4.2,9.63-9.63V9.63c0-5.43-4.42-9.63-9.63-9.63ZM11.05,24.39c0-4.64,3.78-8.42,8.42-8.42s8.42,3.78,8.42,8.42-3.78,8.42-8.42,8.42-8.42-3.78-8.42-8.42Zm37.05,27.68s-.02.05-.02.07c-.21.58-.68,1.07-1.26,1.31-.61.25-1.3.22-1.89-.07-5.83-2.91-14.24-7.12-14.24-7.12-2.03-1.02-4.43.46-4.43,2.74v36.32h-13.56v-16.63c0-1.69-1.37-3.06-3.06-3.06-1.93,0-3.5-1.57-3.5-3.5v-9.84c0-7.49,6.1-13.34,13.34-13.34h2.71c2.05,0,4.1.48,5.94,1.4,0,0,15.2,7.56,19.07,9.48.83.41,1.22,1.38.92,2.25Zm50.35-6.35c0,.94-.36,1.81-1.02,2.47-.65.65-1.55,1.02-2.48,1.02h-40.95s0-.03-.02-.05l7.6-15.21c.76-1.51.14-3.35-1.37-4.11-1.51-.76-3.35-.14-4.11,1.37l-6.48,12.97c-1.21-.6-2.61-1.3-4.12-2.05V9.63c0-1.93,1.57-3.5,3.5-3.5h45.94c.92,0,1.83.37,2.48,1.03.66.66,1.02,1.54,1.02,2.47v36.1Z"/>
  <path class="cls-1" d="m88.39,13.13h-32.82c-1.69,0-3.06,1.37-3.06,3.06s1.37,3.06,3.06,3.06h32.82c1.69,0,3.06-1.37,3.06-3.06s-1.37-3.06-3.06-3.06Z"/>
  <path class="cls-1" d="m88.39,24.61h-16.41c-1.69,0-3.06,1.37-3.06,3.06s1.37,3.06,3.06,3.06h16.41c1.69,0,3.06-1.37,3.06-3.06s-1.37-3.06-3.06-3.06Z"/>
  <path class="cls-1" d="m88.39,36.1h-16.41c-1.69,0-3.06,1.37-3.06,3.06s1.37,3.06,3.06,3.06h16.41c1.69,0,3.06-1.37,3.06-3.06s-1.37-3.06-3.06-3.06Z"/>
</svg>