<?xml version="1.0" encoding="UTF-8"?>
<svg id="Layer_1" data-name="Layer 1" xmlns="http://www.w3.org/2000/svg" viewBox="0 0 109.09 89.47">
  <defs>
    <style>
      .cls-1 {
        fill: #d50321;
      }

      .cls-1, .cls-2 {
        stroke-width: 0px;
      }

      .cls-2 {
        fill: #014b8f;
      }
    </style>
  </defs>
  <path class="cls-1" d="m97.33,41.24h-5.56v-5.56c0-1.16-.94-2.09-2.09-2.09s-2.09.94-2.09,2.09v5.56h-5.56c-1.16,0-2.09.94-2.09,2.09s.94,2.09,2.09,2.09h5.56v5.56c0,1.16.94,2.09,2.09,2.09s2.09-.94,2.09-2.09v-5.56h5.56c1.16,0,2.09-.94,2.09-2.09s-.94-2.09-2.09-2.09Z"/>
  <g>
    <path class="cls-2" d="m71.87,63.19l-.06.06c-.81.83-.79,2.15.03,2.96.41.4.94.6,1.46.6s1.08-.21,1.49-.63l.06-.06c.81-.83.79-2.15-.03-2.96-.83-.81-2.15-.79-2.96.03Z"/>
    <path class="cls-2" d="m97.43,25.54c-2.25-14.6-14.73-25.54-29.26-25.54-7.12,0-13.93,2.58-19.27,7.29C43.55,2.58,36.74,0,29.62,0,13.29,0,0,13.59,0,30.3c0,2.96.77,6.26,2.29,9.83-1.32.36-2.29,1.56-2.29,2.99,0,1.7,1.39,3.09,3.09,3.09h2.35c3.96,6.56,10.14,14.04,18.37,22.22,11.22,11.16,22.71,20.03,23.2,20.41.54.41,1.2.64,1.88.64s1.33-.22,1.88-.64c.37-.28,9.08-6.98,18.83-16.17.6-.57.94-1.33.97-2.16s-.27-1.61-.84-2.21c-.58-.62-1.4-.97-2.25-.97-.79,0-1.54.3-2.12.84-6.98,6.58-13.47,11.89-16.47,14.28-3.82-3.05-12.31-10.04-20.75-18.43-6.51-6.48-11.67-12.46-15.35-17.8h16.85c1.37,0,2.59-.92,2.97-2.24l2.73-9.53,9.12,29.24c.41,1.3,1.59,2.17,2.95,2.17s2.55-.87,2.95-2.17l5.38-17.26h8.6c1.71,0,3.09-1.39,3.09-3.09s-1.39-3.09-3.09-3.09h-10.88c-1.36,0-2.55.87-2.95,2.17l-3.11,9.97-9.25-29.63c-.4-1.3-1.59-2.17-2.99-2.17h0c-1.38.02-2.56.92-2.94,2.24l-4.94,17.21H9.06c-1.91-3.73-2.87-7-2.87-9.72,0-13.3,10.51-24.12,23.44-24.12,6.49,0,12.53,2.67,17,7.52.58.63,1.41.99,2.27.99s1.69-.36,2.27-1c4.47-4.85,10.51-7.52,17-7.52,10.58,0,19.88,7.4,22.62,17.77-.37-.02-.74-.03-1.11-.03-10.7,0-19.41,8.71-19.41,19.41s8.71,19.41,19.41,19.41,19.41-8.71,19.41-19.41c0-7.78-4.56-14.7-11.66-17.79Zm5.48,17.79c0,7.29-5.93,13.22-13.22,13.22s-13.22-5.93-13.22-13.22,5.93-13.22,13.22-13.22,13.22,5.93,13.22,13.22Z"/>
  </g>
</svg>