<?xml version="1.0" encoding="UTF-8"?>
<svg id="Layer_1" data-name="Layer 1" xmlns="http://www.w3.org/2000/svg" viewBox="0 0 90.19 104.58">
  <defs>
    <style>
      .cls-1 {
        fill: #d50321;
      }

      .cls-1, .cls-2 {
        stroke-width: 0px;
      }

      .cls-2 {
        fill: #014b8f;
      }
    </style>
  </defs>
  <path class="cls-1" d="m14.5,80.09l-2.24-2.4-2.24,2.4c-.08.08-1.9,2.04-3.74,4.67-2.71,3.87-4.02,7.08-4.02,9.81,0,5.51,4.49,10,10,10s10-4.49,10-10c0-2.74-1.32-5.95-4.02-9.81-1.84-2.62-3.66-4.59-3.74-4.67Zm-2.24,18.35c-2.14,0-3.87-1.74-3.87-3.87,0-1.87,1.87-5,3.87-7.62,1.98,2.61,3.88,5.77,3.88,7.62,0,2.14-1.74,3.87-3.87,3.87Z"/>
  <path class="cls-2" d="m84.06,20.07v6.43h-5.75c-4.06,0-7.45,2.93-8.17,6.79h-11.53c-2.96-3.49-7.08-5.81-11.57-6.54v-5.4c1.65-.48,3.14-1.35,4.36-2.49.61.18,1.24.36,1.91.54,5.57,1.48,11.68,2.4,14.15,2.4,6.01,0,10.89-4.89,10.89-10.89S73.48,0,67.48,0c-2.47,0-8.59.92-14.15,2.4-.67.18-1.3.36-1.91.54C49.46,1.12,46.85,0,43.99,0s-5.48,1.12-7.43,2.93c-.61-.18-1.25-.36-1.91-.54C29.08.92,22.96,0,20.49,0,14.49,0,9.6,4.89,9.6,10.89s4.89,10.89,10.89,10.89c2.47,0,8.59-.92,14.15-2.4.67-.18,1.3-.36,1.91-.54,1.23,1.14,2.71,2.01,4.36,2.49v5.4c-4.49.73-8.6,3.04-11.57,6.54h-10.29C8.55,33.29,0,41.84,0,52.35v22.06h24.92v-16.21h4.56c3.62,4.19,8.94,6.64,14.51,6.64s10.88-2.46,14.51-6.64h11.53c.31,4.31,3.9,7.72,8.29,7.72h5.75v6.43h6.13V20.07h-6.13,0Zm-16.59-13.94c2.63,0,4.77,2.14,4.77,4.77s-2.14,4.77-4.77,4.77c-1.54,0-6.28-.64-11.19-1.84-.6-.15-1.17-.29-1.7-.44.19-.8.29-1.64.29-2.49s-.1-1.69-.29-2.49c.53-.14,1.1-.29,1.7-.44,4.91-1.2,9.65-1.84,11.19-1.84ZM20.49,15.66c-2.63,0-4.77-2.14-4.77-4.77s2.14-4.77,4.77-4.77c1.54,0,6.28.64,11.19,1.84.61.15,1.17.29,1.7.44-.19.8-.29,1.64-.29,2.49s.1,1.69.29,2.49c-.53.14-1.1.29-1.7.44-4.91,1.2-9.65,1.84-11.19,1.84Zm18.73-4.77c0-2.63,2.14-4.77,4.77-4.77s4.77,2.14,4.77,4.77-2.14,4.77-4.77,4.77-4.77-2.14-4.77-4.77Zm16.24,41.18l-.92,1.26c-2.45,3.37-6.4,5.38-10.56,5.38s-8.1-2.01-10.56-5.38l-.92-1.26h-13.72v16.21H6.13v-15.93c0-7.13,5.8-12.94,12.94-12.94h13.37l.92-1.29c2.45-3.44,6.43-5.5,10.64-5.5s8.19,2.06,10.64,5.5l.92,1.29h14.46v12.66h-14.54Zm22.85,7.72c-1.2,0-2.18-.98-2.18-2.18v-22.8c0-1.2.98-2.18,2.18-2.18h5.75v27.17h-5.75Z"/>
</svg>