<?xml version="1.0" encoding="UTF-8"?>
<svg id="Layer_1" data-name="Layer 1" xmlns="http://www.w3.org/2000/svg" viewBox="0 0 807.32 805.24">
  <defs>
    <style>
      .cls-1 {
        stroke-miterlimit: 10;
      }

      .cls-1, .cls-2 {
        fill: #66baff;
        stroke: #fff;
      }

      .cls-2 {
        stroke-linecap: round;
        stroke-linejoin: round;
      }
    </style>
  </defs>
  <path class="cls-1" d="m610.13,519.15l-.48.6-.74,1.46-.48.66-.61.5-1.93,1.08-1.19.99-.84,1.05-1.51,2.62-.45.52-.5.41-.41.45-.17.67-.02.75-.1.53-.24.48-1.89,2.22-.57.98-.23,1.17-.5,1.15-1.17.61-1.35.38-1.04.47-.58.64-2.57,4.09-.9,2.17-1.09,1.52-.35,1.06-.37.54-.54.38-1.06.37-.45.29-1.43,1.83-2.11,3.86-1.28,1.74-1.51,1.53-1.5,1.94-.59,2.2,1.28,2.31.3.95-.04,1.59-.22,1.67-1.72,5.77-3.22,6.61-.48,2.19,1.05,6.81-.04,2.5,1.97,4.88-.64,4.69,2.2,3.23-.53,2.94-4.14,1.33-3.42,2.85-.64,4.78-.88,2.24-1.21,2.07-5.8,18.26-5.53,1.63-6.62,4.96-2.39,1.07-5.86,3.73-4.94,4.46-4.28,5.13-5.96,5.21-6.87,3.8-5.04.14-1.88-3.58,4.05-5.32,2.32-6.09-2.99-5.5-2.31-5.73.08-2.44-.97-2.11-.84.42-1.54.44.03,3.39-.67,1.88-3.29,4.68-1.92,2.02-.43.33-6.15.89-4.53-.77-6.48,1.67-1.98-1.19-.4-.63-.68.19-.54-.57.21-.95-3.27.93-3.35,2.95-.69,2.04-1.24,1.58-2.63.18-2.67-.4-10.35.39-3.23-2.51.48-4.57,1.19-.98,1.64-.1,1.43-1.19,3.28-5.22,2.55-3.17.52-1.58-.69-1.59.3-2.38,1.13-2.31,3.01-2.75,1.14-3.78-1.28-2.51-.84-2.65-.25-5.36-.35-1.53-.02-1.24.48-.71-.26-.71-4.77,5.4-4.38,4.13-2.9,1.12-3.01.72-.22-3.57-1.02-3.42-14.06-11.09-5.09-7.79-1.6-.77-1.24,1.05-1.4.68-.9-2.95.28-5.35-.68-1.51-1.34-.64-.11-1.19,1.89-2.77-.08-3.34-1.23-3.04.38-3.32,5.96-.19,6.79,1.96,8.51,1.44,1.2,1.76.35,6.37,1.6,1.36.9-3.4-.12-3.58,2.76-9.57,2.2-2.12,6.88-3.19,5.27-4.75,2.79-7.79,5.11-6.4,5.75-5.36,6.5-3.98,2.76.58,2.39-.6,4.31-.66,1.28-2.19-.48-2.52-.4-1.23-.1-1.29.04-.97.12-.8,2.33-2.24,5.41-4.16,6.53-2.41,6.99.69,6.56,1.95,5.63-1.63,2.71-6.66,3.35-6.28,5.34-4.92,3.65-4.82-1.55-.36h-.77s-.25-.03-.25-.03l-1.11-.48-3.72-.36-.61.02-1.01.36-1.03.52-1.15.19-1.37-.61-.55-.68-.16-.8.29-2.34-.07-.27-.19-.27-.43-.34-.53-.24-1.11-.25-1.92-.22-1.48-.6-1.73-.38-.3-.19-.69-.88-1.29-1.06-1.57-.65-3.39-.8-.97-.11-1.65.3-1.01.06-2.19-.99-1.27-2.2-1.66-7.57,2.74-2.85.56-3.5-.92-3.61-.47-3.68.94-3.38,3.17-6.66,6.09-3.79.37-3.35-.38-13.45,1.75-5.56,1.14-1.63-.04-1.86-.84-1.19.21-1.19,1.06.3,1.04.16.85-1.34.45-1.58,1.56-3.74,1.83-7.32,3.06-1.52,4.02-6.07-2.02-17.61.11-4.28,2.22-3.62,3.97-1.3,10.82-8.72,1.12,7.89,2.24,1.15,1.97.66-1.54,2.2.28,1.95.27.49v.71s1.67,1.79,1.67,1.79l1.99,1.31,1.99-1.99,1.47-3.01,3.16-2.35,2.35-2.86,2.69-1.1,2.4-2.15,1.35-8.57,1.12-1.99,2.36.8.41.31.19.54.94.35,1.15-.13,1.27.67,1.29.15,2.51,1.05.87,3.43,4.82,5.54,1.79,1.54,2.01-2.03,3.89.2,3-.96-.1-2.09,1.11-.94,1.78.54,1.2-1.1,3.52,2.68,2.25,3.83.12,2.13.48,2.05,1.34,1.42,2.01,4.36,1.9,2.47.87,1.8,1.1,1.61,1.98.61,1.71.3-1.07.21-.48.64,1.92.92,1.35,1.63.24,6.02-1.54,11.43-1.89,4.4-1.35,1.49-.07,1.64-.28-.04.72,1.21.96,1.23.71,1.69,1.37.62,2.14.31,2.16,1.09,7.44,2.79,1.76.19,1.73-.31.71-.61.81-.41,1.4-.11,1.31.27,1.27,5.62-1.9,4.45-.69,4.4,2.89,4.16,1.63-.06,1.32.82.71.7.89.4,1.17-.29,1.13-.45,1.51.31,1.14.77,1.88-.14,1.39,1.1.25,2.66.72.85.44.97-1.86,3.79-2.69,3.36-1.64,3.18-2.95.35-2.76,1.68-2.1,2.75-1.81,5.56,3.22,9.3,1.47,3.17-.4,2.73-11.96,2.06-3.62,1.26-3.72.7-2.59-.65-2.72-.3-6.6,1.27-2.86.99-2.21,2-.6,3.76.02,3.92-.81,3.52.17,3.65-.32.34-.42.63-.28.62-.27.14-.26.26-.44.55-.21.42-.82,3.17-.18,1.72-.21.84-.59.74Z"/>
  <path class="cls-2" d="m333.63,636.88l-2.3-1.52-2.58-.94-1.21,1.08-.91,1.04-1.75,1.46-1.11,1.89,1.38,3.36-.14,1.32-.52,2.27-.05,1.38-.26.98-.61.77-1.1.72v.51l-1.22,1.33-.87-.63-.81-1.5-1.79-1.52-2.1-1.26-1.74-.72-1.93-1.27-1.9-1.92-2.03-1.27-2.38.66-1.97,1.11-1.89.25h-.04s-1.95-.35-1.95-.35l-2.26-.72-2.52-.26-1.8.76-1.75,1.03-2.31.56-3.09-.22-1.44-.44-1.14-.81-.89-1.41-1.28-2.79-1.37-1.3-4.18-2.98-1.33-.47-.66.12-1.17.78-.64.2-.89-.09-1.54-.47h-1.04s-.49.25-.49.25l-1.02.85-.68.23-.28-.16-2.18-.86-2-.44-.68-.27-4.58-3.56-3.72-3.71-1.3-.76-1.44.06-1.41.72-1.14,1.22-1.14-.73-5.55-2.11-3.45-2.29-.55-.11-1.29.13-.54-.19-.43-.56-.23-1.13-.28-.58-1.03-1.11-.94-.51-5.32-.45-6.39-1.4-2.79-.23-1.01-.68-1.07-1.65-1.44-3.42-.81-1.04-2.69-1.82-3-.75-9.68.19-1.58-.2-1.5-.53-1.46-1.1-2.73-2.78-.69-.37.03-.49-.68-4.5.71-.89,1.19-.14-.96-3.04-2.89-2.67-1.67-1.2-1.34-1.5,1.52-2.13-2.64-2.77-3.42-2.31,1.57-3.01,9.24-3.31,4.29-2.63,5.57-7.09.34-8.47-1.28-4.07.25-4.28,2.73-3.3,4.56-.16,9.33-6.33,1.94.91.31,1.5-.31,2.24,1.12,1.87.08,2.23.35,2.17,6.19,7.88,3.09.26,2.89-.38,2.79.53-.58-4.92-17.16-22.97-3.49-3.52-13.79-9.23-19.95-10.47-1.3-2.63,2.04-6.43,2.92-6.05,2.59-3.98,7.63-2.92,2.7-5.32,2.96-8.13.05-7.92,16.9-5.85,3.82-2.12,5.18.12,5.05-.86,1.92-1.43,4.77-7.68.87-1.88,1.85-.75,3.25.33,2.5-1.59,1.77-1.63,2.35-.84,6.38-1.5,6.06,1.8,5.15,3.46,5.98,1.37,16.14-.95,2.26,1.92,1.7,2.46,1.04,3.89.57,4.08,1.8,2.99,3.16,1.19,2.58,2.5,1.76,3.3,1.17,1.73,1.45,1.5,4.27,1.3.94,1.73.24,2.03,1.32,3.13.29,3.08,1.21.71,1.47.38,3.09,2.21,3.37,1.51,1.91,1.28,1.2,1.39-1.06,2.08-1.48,1.79-2.03,4.81-1.7,2.9-2.02,2.68-1.36,2.77-.64,3.06,1.07,2.18,2.85.38,34.56-1.75,3.82.31,10.99,2.61,2.74,1.93,3.17,1.04,20.11,3.22.74,2.27-.27,1.93,1.97.34,3.58-.3,3.37,1.21,2.04,2.08-1.8,2.45-3.25,2.54-4.08,1.22-1.8,2.23-2.68,6.22-1.94,3.26-2.63,2.02-3.13,1.06-2.73,2.55-2.11,3.25-1.55,3.12,1.18,3.05,1.59,2.33,1.21,2.57-.87,4.9-1.87,4.9-1.67,1.15-2.43-.29-2.78,1.03-2.39,1.68-1.94,3.92-2.61,2.78-3.44,1.38-3.83.08-7.12-1.03-7.42,1.82-4.28.1-4.34-.4-3.77,1.54-.76,2.16-2.07.68-5.48-1.9-4.05.8-3.06,2.75-4.26,6.97.43,3.58,2.47,2.86,1.72,3.18,1.25,3.4-1.58.84-.4,1.56,2.53.56.81,1,.2,2.36,1.67,2.16,4.06,7.04,2.25,3.09,1.38.6,1.5.21,2.99,3-.29,2.46Z"/>
  <path class="cls-2" d="m349.2,651.82l-7.22-7.66-.04-.02h0s-2.11-.97-2.11-.97l-1.28-1.41-.56-.33-2.52-3.07-1.03-.58-.71-.84-.1-.06.29-2.46-2.99-3-1.5-.21-1.38-.6-2.25-3.09-4.06-7.04-1.67-2.16-.2-2.36-.81-1-2.53-.56.4-1.56,1.58-.84-1.25-3.4-1.72-3.18-2.47-2.86-.43-3.58,4.26-6.97,3.06-2.75,4.05-.8,5.48,1.9,2.07-.68.76-2.16,3.77-1.54,4.34.4,4.28-.1,7.42-1.82,7.12,1.03,3.83-.08,3.44-1.38,2.61-2.78,1.94-3.92,2.39-1.68,2.78-1.03,2.43.29,1.67-1.15,1.87-4.9,10.52,3.21v3.77l17.81,6.29-.83,13.42,7.04,5.03,7.04.42,5.43-1.81,1.4-.68,1.24-1.05,1.6.77,5.09,7.79,14.06,11.09,1.02,3.42.22,3.57-2.23,2.15-2.67,1.95-3.41,1.64-2.83,1.79-2.23,2.33-2.82,1.84-6.46,6.02-4.81,2.6-7.23,7.74-5.41,2.24-2.46,1.34-.71,2.06,1.37,2.04,1.64,1.55,1.13,2.69-.23,3.68,2.94,4.31.71,4.94-6.25,8.72-.94,2.54-2.67.56-2.72-.02-2.51.91-1.77,1.95-.38,4.96-6.37,4.95-5.48,2.7-3.43,4.84-6.42,4.15-2.1.95-2.33.15-.86-.57-.92-.2-1.92.36h-.16s-.05-.4-.05-.4l.15-.97.69-1.69.16-.72-.31-1.41-1.43-2.4-.33-1.63,1.5-8.24.02-.8-.16-.94-.62-1.65-.71-4.01-2.46-5.57-.57-2.57.15-.75.66-1.47.15-.87-.1-.82-.87-2.58-2.23-3.17-.84-1.55-7.42-9.23-.08-.31-1.34-1.3-.34-.19-1.65-1.71-.43-.6-.37-1.43-.18-1.35-.47-1-2.22-.81Z"/>
  <path class="cls-2" d="m5.04,258.16l2.46.58,3.03.24.34.13.86-.66.23-.84.04-.96.28-1.05.47-.44,1.27-.59.38-.64.16-1.22.13-.26,1.21-.74.79.1.81.41,1.24.21.65-.22,3.95-1.86,2.66-2.5,2.55-1.45.75-.61,1.65-.93.94-1.19,1.9-4.54.77-1.11,5.06-4.22,2.24-2.73,1.74-3.02.19-.47,1.16-2.79,1.29-5.36.89-1.52,3.9-4,2.86-4.94,1.88-1.2,3.31,1.08.25-1.31-.23-1.16-.42-1.15-.31-1.25.08-1.38v-.06s.53-1.34.53-1.34l3.06-4.82.56-1.38.03-1.36-.18-1.49.4-.89,2.07-1.48.18-.3.28-.88.19-.23,1.24-.18.15.02.04.14,1.42-.12.08-.16.13-.65.12-.18,1.98-.45.51-.18.59-.52.97-1.15,3.48-1.62,1.95-1.89.1-1.98-2.24-1.22-.52-.28,1.37-1.65,1.4-1.31,1.64-1.01,2.03-.77.91-.12.73-.41.48-.67.23-.88,1.97.98,2.06-.23,1.79-1.22,1.12-2-.04-.43-.33-1.32-.04-.55,1.05-1.5.64-1.78.13-.93-.08-.94-.31-.53-.96-.71-.26-.56.06-.43.35-.99v-.39s-.74-1.03-.74-1.03l-1.83-1.72-.37-1.09.49-1.18,2.3-2.65.22-.4,1.96-1.04,1.49-1.68,1.37-1.92,7.31-6.66,3.12,1.25,1.73,3.3.08,1.16.56.9.6.25.35.57.16,5.62-2.07,5.33-2.81,4.35-.15,4.12.65.77.91.02,1.07-1.26,1.4-.9,3.91,2.89.84,5.36,1.89,5.17,1.37,2.56,1.59,2.39v-.03s.11.2.11.2l1.27,2.52-.24,2.76.31,2.36.68,2.57.17,5.11,1.8,4.66,4.17,3.98,4.48,9.87,1.3,6.09-.41,3.62-2.46,6.88-.21,3.67.61,2.29.31,2.36.88,1.11.24,1.31,1.59,3.86,2.46,3.9.03,3.46.52,3.38,2.06-.21.9,1.83.68,5.57,1.33,5.66-1.15,3.38-.66.74-4.15,1.55-1.4.96-.38,1.32.81,7.81-.6.9-3.42,1.6-1.33.82-.28.5-.29,1.17-.33.5-.52.33-1.7.57-3.69,2.82-.47.25.48,1.24.88,1.16.32,2-3.61,10.05-.65,8.61,2.77,11.84-1.38,2.59-5.35,1.21-5.75,1.54-1.8-6.04-.7-.97-1.27-1.34-.32-.49-.9-1.85-.57-.6-.58-.49-.52-.58-.41-.89-.28-3.2-.45-1.34-1.28-.55-1.3.62-1.61,2.98-1.12,1.03-1.59-1.23-2.2-3.13-1.84-1.29-.49-.07-1.11.15-.48-.08-.51-.45-1.01-1.63-2.36-1.49-3.39-.22-20.47.13-2.55,1.77-4.8,5.45-2.94,2.52-3.64.85-15.88.19-1.32,1.67,6.75,5.73,2.85,6.45,4.86,28.42,2.12,6.12,4.48,8.35,2.3,6.44,3.44,2.07,2.39,2.73-.78,4.66,1.31,3.04.26,3.38-7.04,4.83-2.21,6.57-1.69,2.28-4.14-3.96-.79-1.5-.44-1.43-1.12-1.17-1.49-.84-1.57-.42-3.37.09-3.15.9-5.71,3.15-.04-1.76-.9-1.03-2.62-1.34-3.59-3.06-6.58-8.21-.79-1.58-.52-.66-1.75-.51-.77-.57-.35-.77.37-.75.85-1.34.28-1.72-.5-5.01.17-4.75.5-1.5,1.25-1.87,1.49-1.67,1.31-.86.72.04,1.27.81.81.2.57-.29,4.85-4.55,1.68-.95,1.77-.37-.02-1.43.48-2.75.04-1.49-.72-3.41-7.96-17.64-1.46-1.91-3.41-3.18-1.51-2.09-.66-2.42.26-1.65.63-1.76.9-1.67.96-1.3.44-1.27.11-1.91-.11-1.8-.2-.92.55-.2.22-.15.24.04.55.31.31-.97-.5-1.51.46-.86.57-.68.02-.48-.2-.55-.13-.83-.22-.26-.44.02-.37-.07v-.48l.26-.33.31-.07h.28l.17-.11.26-.42.28-.29.28-.44.18-.86-.04-1.73-.46-1.73-.79-1.58-1.79-2.33-.46-1.36.31-.59.17-.46-.02-.44-.35-.39-.42-.04-.42.02-.28-.13-1.2-1.6-.72-.64-1.46-.42-1.97-.83-.52-.29-.57-.7-.33-.59-.46-.55-.94-.53-.74-.24-2.27-.22-1.33-.46v-.5l2.06-1.84.04-.48-.42-.57-.55-.61-.37-.61-.11-.75.04-5.33,3.5-18.71.35-4.39Z"/>
  <path class="cls-2" d="m48.98,416.81l1.69-2.28,2.21-6.57,7.04-4.83-.26-3.38-1.31-3.04.78-4.66-2.39-2.73-3.44-2.07-2.3-6.44-4.48-8.35-2.12-6.12-4.86-28.42-2.85-6.45-6.75-5.73,1.32-1.67,15.88-.19,3.64-.85,2.94-2.52,4.8-5.45,2.55-1.77,20.47-.13,3.39.22,2.36,1.49,1.01,1.63.51.45.48.08,1.11-.15.49.07,1.84,1.29,2.2,3.13,1.59,1.23,1.12-1.03,1.61-2.98,1.3-.62,1.28.55.45,1.34.28,3.2.41.89.52.58.58.49.57.6.9,1.85.32.49,1.27,1.34.7.97,1.8,6.04-.2,1.85-2.13,1.19-.05.87.21.89.51,1.2.26.23.34.1,4.93,3.75.43.18,1.04-.05.35.12.23.5-.04.47-.19.56.38.65.28.71.31,1.24-.51,1.71.08.38.35.71.08.45-.39,1.07.16.52.99.22,1.41-.29,1.5-.53,1.51-.25,1.46.52,1.43,2.52,1.08,1.12,1.32-.28,1.4-.58,3.07.35,1.37-.53,2.75,1.72,1.45.63,1.66.24,1.5-.27,1.41-.46,1.28-.09,1.11.82.78-1.16.81-.19,5.55,1.7.77-.12.83-.49,2.79-1.11.96-.21.02-.23.42-.52.81-.78.58-.38,1.5-.64,1.57-1.15,1.45-1.34,1.64-1.12,2.2-.47.44.14.39.34.7.78.43.22.32-.14.27-.24.27-.07,1.76.89,3.44.67,1.3.07,1.16-.61v.51l4.28,1.33,1.57.2.45.3.29.71.23.84.28.7.59.69,1.42,1.27.53.63.31,1.46-.05,3.67.48,1.24.94,1.35,1.31,5.02,1.24,2.71,1.73,2.54,1.9,2.11,1.77,1.41,3.85,2.06,1.01.74.45.24.94.15.44.37.07.34-.14.86.07.34.78,1.17.42.39.78.53,2.61,1.15,1.4,1.03,1.66.25.72.32,1.09,1.1,2.71,4.31,2.28,2.36,3.05,1.17,10.79.93,1.28.73.35,1.56.67,1.01.55,1.06-.44,1.42-.72,1.34-1.49,1.94-2.09,1.24-4.37,5.55-2.16,6.9-.36,7.78.47,7.79-.78,7.65-1.76,7.5-3.82,2.12-16.9,5.85-.05,7.92-2.96,8.13-2.7,5.32-7.63,2.92-2.59,3.98-2.92,6.05-2.04,6.43,1.3,2.63-16.58-2.8-12.14-1.63-9.71-1.63-1.62-10.61-1.62-11.42-.81-8.16-4.05-4.89-12.14-.82-10.52-.82-3.24-4.89v-6.52l-3.24-9.78-6.47-2.45-16.18.81-8.09,2.45-1.04.76-3.66-2.34-.5-1.01-1.75-1.15-4.88-5.51-1.27-2.93-.55-1.87.11-.81-2.78-3.59-1.66-3.94-.66-.64-1.29-.37-1.29-.9-3.45-3.3Z"/>
  <path class="cls-2" d="m72.59,445.17l1.04-.76,8.09-2.45,16.18-.81,6.47,2.45,3.24,9.78v6.52l3.24,4.89,10.52.82,12.14.82,4.05,4.89.81,8.16,1.62,11.42,1.62,10.61,9.71,1.63,12.14,1.63,16.58,2.8,19.95,10.47,13.79,9.23,3.49,3.52,17.16,22.97.58,4.92-2.79-.53-2.89.38-3.09-.26-6.19-7.88-.35-2.17-.08-2.23-1.12-1.87.31-2.24-.31-1.5-1.94-.91-9.33,6.33-4.56.16-2.73,3.3-.25,4.28,1.28,4.07-.34,8.47-5.57,7.09-4.29,2.63-9.24,3.31-1.57,3.01,3.42,2.31,2.64,2.77-1.52,2.13,1.34,1.5,1.67,1.2,2.89,2.67.96,3.04-1.19.14-.71.89.68,4.5-.03.49-.85-.46-.68-.03-1.43.34-.7.06-.77-.23-2.14-1.24-1.9-.27-1.18.51-1.07.8-1.55.65-3.15-.76-1.51-2.95v-3.71s1.4-3.05,1.4-3.05l-11.07-3.04-1.73.15-2.53,1.38-1.52.54h-1.5s-1.26-.5-1.26-.5l-7.15-5.52-1.72-2.3-.56-3.22v-2.8s-.51-1.91-.51-1.91l-1.48-1.24-2.86-.82-1.18-.75-1.6-1.85-1.17-.61-1.12-.09-1.01.11-.96-.09-.99-.65-.25-.53-.25-1.37-.28-.47-.66-.39-.24.1-.19.3-.53.21-.86.19-3.84,1.37-.57.38-.63.22-.96-.16-.79-.6-1.4-1.89-.87-.6h-1.79l-1.19.62-.07-.17.22-2.17-.2-.86-.79-.33-1.49-1.26-.07-2.79.81-4.66-1.36-2.41-4.44-2.78-1.31-2.03-.26.13h-.09l-.04.07-.13.35-.85-.97-.87-2.21-.83-.97-1.05-.51-.98-.35-.72-.62-.28-1.33.04-.68.07-.29.02-.27-.13-.55-.2-.27-.33-.38-.33-.51-.33-1.46-.42-.71-.22-.8.28-1.08h.55l.09.31.33.73.37-1.28-.2-1.44-.52-1.33-.61-1.08-1.2.73-.33.29-.77-1.26-.46-1.5-.24-3.16-.26-.95-1.53-2.41-.79-1.02-1.62-1.32-.66-.79-.55-2.63-.74-1.02-1.79-1.66-4.07-11.56-.83-.46-.55-1.04-.44-1.21-.44-.9-.77-.6-2.01-.95-.81-.55-.55-1.08-.39-1.37-.63-1.15-1.25-.51-.37-.9-2.95-5.18,1.2-2.58.39-1.43-.83-.64.04-.71.98-3.53.24-1.39-.48-2.91-3.13-6.85-.81-2.67-.39-.4-1.01-.35-.15-.77.22-.79.17-.42-.28-1.34-.77-1.32-1.01-1.08-1.03-.62.5-.88.39.09.39.48.5.31h2.06l1.03-.62.09-1.45-.28-1.72-.09-1.37.33-.51.98-.86.22-.4v-3.06l-.9-1.52-.06-.04Z"/>
  <path class="cls-2" d="m71.91,105.63l1.44-.85,1.58.2,1.61.46,1.55-.08.83-.7,1.06-2,.85-.67.96-.13.8.25,3.88,1.91.61.15.68-.18.54-.31,1.04-.25,1.15-.66,1.25-.55.97-.7.77-1.39.31-1.51-.31-5.09.64-3.27,2.56-8.27-.62-2.16-.79-1.08-1.13-1.14-1.34-.67-1.39.3.98-4.32-.22-1.97-2.23-.35.37-.6.45-.48,1.21-.94-.57-1.33.42-1.14.76-1.11.41-1.26-.59-2.98-.26-.78.85-2.04-.18-.68-.66-1.01-.17-.38.02-.8.96-5.86.06-1.91-.54-1.57-1.77.68-1.16-.91-.71-1.67-.72-2.67-.33-.57-.92-.98-1.23-1.64-.44-.97.4-.43.23-.88.14-1.94-.42-1.94-1.44-.88-1.46-.21-4.91-1.82-.68-.41-1.11-1.06-.78-.55-2.19-.91-.96-.72-.4-1.19.08-.55.18-.44.17-.32.07-.23-.15-.61-.69-.9-.44-1.51-1.35-2.24-.45-1.08-.29-1.92-.31-.46-.91-.66-.31.08-.48.26-.59.09-.65-.44-.12-.45.2-.45.28-.42.16-.44-.25-1.01-1.08-.74-.25-.8.23-.84.57-.81.59-.62.09-.09.6-.48.92.08.55.37.38.41.42.19.89-.07,1.38-.32,3.75-.35,1.62.18,1.79.56.94-.78,2.66-2.81,1.07-.56,2.82-.89,2.79-1.46,2.63.66,1.18.58h70.88l-1.16,2.01.11,1.33.96.57,1.6-.72.81-.42.55-1.38.25-1.39h1.01v.1s-.01.81-.01.81l.15.7.44.02.57-.26.61-.17.9.44-.5,1.01-.98,1.03-.68.52.48,1.2.02.9-.09.9.04,1.05.39.92.59.94.44.85-.11.66-.74,1.75-.57,7.11-.66,2.14-1.57,3.02-.46,3.15-.7,1.64-.17,1.01v2.27l-.13,1.09-.35.98-3.06-1.36-.48,2.08.28,3.26-.81,2.12,1.42,2.25-.5,1.73-1.33,1.77-1.16,2.41-.66,5.91-.98,2.1-.35,1.18-.7,5.03-.79,2.06-3.19,3.94-.92,1.95-.44,2.19-.11,2.63.77.13.35-.37.24-.52.44-.24.74.07.44.09.42.02.7-.17.61-.44.46-.57.66-.44,1.31-.09-.85,2.14-.2,1.01-.37.55-.11.37.15.31.74.59.17.37-.22.83-1.01,1.31-.28.7.09.66.74.83.15.52-1.4,3.02-.42.55.22.7-1.49,4.42.04,2.19-.26.59-.77.92-.37.57-.15.55-.02,1.47.15.96-5.15-.2-14.89-6.54-3.4-.52-3.92,1.31-4.96.78-2.35-.52-10.97,18.83-8.1,3.92-2.61,7.32,3.4,3.66,3.66,3.14.91,4.69-7.31,6.66-1.37,1.92-1.49,1.68-1.96,1.04.5-.89-1.73-.02-3.47.97-1.73.15-.98-.29-1.7-1.11-.91-.34-.92.06-.74.29-.78.19-.99-.22-.2-.32-.21-1.21-.19-.45-.32-.22-.98-.42-4.82-2.89-.6-.1-1.04.38-.88.73-1.47,2.03-.36.17v-.03s-.32-.92-.32-.92l-.64-.64-.43-.59.34-.81-1.35-.37-1.13-1.06-1.86-2.41-.16-1.28.85-1.65,1.62-2.19.03-1.89.24-1.15.6-.98,4.27-4.49.48-1.41-1.7.63-2.66,1.21-1.57.51-1.44-.02-.83-.8.29-1.83.61-.92,1.77-1.68.71-.93.32-.78.61-2.36,2.82-6.86.99-1.58,2.46-3.1Zm90.62-19.38l-.42-.35-.37-1.05.02-1.03.33-1.01.52-1.03.5.57-.09,1.07.26.96.61.7,1.01.24,1.33.22-.26.44-1.36.68-.37.44-.85-.28-.87-.57Z"/>
  <path class="cls-2" d="m333.31,5.45l3.96,2.21,15.94,8.91,15.95,8.9,12.03,6.72,3.91,2.18,15.94,8.9,15.95,8.91,3.37,1.88v.02s-1.6,29.29-1.6,29.29l.59,3.33,2.8,1.82,4.22,1.26,1.04,3.69-1.11,4.38-1.88,3.99-2.09.67-1.8.85-3.07,8.7-40.84.32-2.73-1.21-4.17-2.85-1.88-.1-2.4.3-2.13-1.08-1.68-2.6-2.04-2.38-5.49-3.2-2.45-1.8-1.73-2.5-1.71-1.01-2.04-.41-5.8-3.12h-2.61s-2.59-.33-2.59-.33l-4.75-4.4-1.82,1.1-.51,2.59-2.95.27-5.03-.29-1.95.91-2.93-1.63.03-.7-1.16-2.92h0s0-.01,0-.01l-2.19-2.1-2.75-.68-2.15,1.09-.61.31-1.31.96-2.07,1.5-.7.33-1.12.35-.98.85-1.73,1.84-2.93-1.47-3.64-.64-.58-.1-.49-.02-3.97-.14-2.85.27-.8.07-.53.2-1.53.57-1.07.11-.46-.63-.33-.96-.81-.77-.77-.42-1.14-.63-1.18-.44-.93-.35h-1.71l-1.49.79-1.33,1.51-.59-.88-.26-.52-.03-.1-.14-.52.05-.52.03-.26v-.02s.67-1,.67-1l.27-.78h0s0-.02,0-.02l-.02-.55-.04-.22-.1-.57-.08-.27-.09-.36h-.17s.11-.28.11-.28l.21-.51.15-.08.07.08.1.13.37.09,1.77.08.3.02h0s.01,0,.01,0v-.07s-.01-.02-.01-.02l1.84.49.36.29h0s0-.01,0-.01l.5-.81-.02-1.03-.57-.94-1.1-.54.87-.82,1.13.81.86,1.23.15.22.1.2.44.91h.51v-.02s0,0,0,0l-.02-2.17h0s1.2.2,1.2.2l2.02,1.76.89.78h0s0,0,0,0l.22-.53.22-.23.03-.03.4-.11.65-.16h0s0-.01,0-.01l-2.07-3.03,2.05-1.92,2.34.67,4.83,3.28,3.45.02.37.15.21.09.26-.57.22-.46.55-.62.34-.38.18-.63.14-.44-.36-.39-.79-.88-.59.33-.22.07-.2-.15-.56-.24.18-.09.09-.04h.09l.04-.07.03-.07.11-.22h-.01s0,0,0,0l-2.95-.72-2.34-.21-.82-.08,1.98-1.29.13-.42-.59-.83-1.6-1.05-.42-.59.48-.9h0s0,0,0,0l-.29-.04-.65-.09-.83.04-.57.35-.2.74-2.6.15-2.95,2.06-2.86,1.46-.43-.3-1.89-1.34,1.7-1.06.09-.06.28-.13-.02-.59v-.5s.06-.55.06-.55l.14-.26.43-.74h0s.17-.32.17-.32l.74-2.12.5-.83,2.01-1.62,1.73-.42,4.42.07-.55,1.92.77.87,1.49.22,1.62-.04.94-.31.74-.68.55-.68.33-.31,1.03-.04.68-.22.52-.46.57-.81.31-.94-.13-.61.02-.46.81-.52.17.2,2.36.57.39.5.87.22.87-.24.39-.98-.39-.37-1.97-1.36-.68-.61-.5.57-.68-1.12-.42-.52-.44-.44-1.6-1.03-.46-.46-.55-1.09.44-.24,2.69.28,7.61-.04.57-.13.48-.28.5-.72.2-.87-.15-.85-.55-.66-.68.37-.63.07-.59-.13-.63-.31.85-.63.46-.13.17-.17.04-.83-.11-.48-.92-1.29-.87.33-.66-.04-.42-.46-.13-.87-.72.35-.7.13-.61-.11-.5-.37,1.05-.79,1.14-.09,1.14.04,1.05-.44.74-1.05.35-1.18-.26-.77-1.09.2-.44-.79-.68-.66-.39-.72.48-.87,1.01-.46,1.01.15,1.55.77.28.24.35.35.46.33.68.15.66-.15.98-.72.59-.2,1.18.11.94.28.66-.02.33-.83.94.87.48,1.18.59,1.05,1.27.44,2.12-.07.68.07.7.22,1.18.61.66.2.35-.15.37-.35.28-.37.04-.15.39.04.52.42.35.09.61-.15.22-.37-.22-.35-.61-.17-.15-.28-.2-.63-.31-.68-.61-.44h-.68l-.7.26-1.14.74.04-.85-.26-.44-.85-.72-.26-.09-.35.09-.28.02-.63-1.55-.52-.59-.13-.35-.2-.28-.66-.33-.61-.11-1.31.15-.61-.04-.98-.57-.72-.87v-.9l1.2-.72,4.55,1.53-.44-.81-.68-.74-.87-.33-1.05.35.13-.44.02-.2.04-.13.31-.24-1.9-1.9-.48-1.07.87-1.09,1.27.5,4.57-.5,1.66.09.77.24,1.36.79,1.51.17.57.24,1.03,1.01-.24.13-.24.5-.13.57.11.33.79.13.46-.46.22-.74.04-.72-.48-1.27-1.18-1.25-1.51-.94-1.4-.37v-.46l.15-.24.15-.48.15-.35h-.46l-1.4.57-1.71-.59-.94-1.62.96-2.43,1.07-1.07,1.12-.74,2.43-1.16,1.11-.79,2.19-2.56-.17-.72-.77-.94-.33-.79,1.27-.35,1.75.09.52-.09.35-.35.17-.52.24-.48.52-.2,2.32-1.53.16-.49Z"/>
  <path class="cls-2" d="m420.38,54.06l12.57,7.02,15.94,8.91,15.94,8.91,15.94,8.91,15.94,8.91,15.95,8.9,15.94,8.9,15.94,8.91,15.94,8.91,15.95,8.92,5.69,3.18h-.05s-3.27-.75-3.27-.75l-6.13-2.54-2.42-1.42-2.69-.31-1.45.5-1.28-.47-3.78.12-3.43,2.27-4.44,3.64-1.87,1.96-2.48,1.07-4.96,1.46-1.71,4.89.12,3.57.68,3.48,1.8,1.75,2.38,1.04,5.18,3.41,2.77,5.09.15,13.5-2.59.98-2.36,1.59-1.38,1.95-1.7,1.53-5.58.06-1.95,2.15-1.83,2.46-2.27.53-1.4-2.49-1.34-.91-1.37-.38-5.42.28-.53.57v.77s-.54,1.23-.54,1.23l-1.47.51-1.54,1.34-1.44.3-1.34.52-4.44,5.83-1.22,3.02.64,8.51,1.67,9.41-.1,4.26-1.06.55-1.22-.5-2.1-.08-2.03.65-3.49.3-3.34.65-.72,1.52-3.45.44-3.69-1.56-16.78-24.37-3.54-6.65-2.44-3.5-4.28,1.45-3.6,4.76-2.65,2.32-1.97,2.5-.22,2.23-1.51.42-1.62-5.12.52-5.42,1.83-5.35-.98-3.53-1.97-.27-.44,5.18-1.29,2.67-8.82,2.36.23,2.86-1.3,1.96-3.35-.46-2.25-2.32,1.46-2.52,1.89-2.15-2.32-.98-2.99-.59-2.88-1.56-3.14.03-4.93,4.98-2.96,1.08-2.59,1.78-2.09.68-2.28-.03-7.07,4.34-.69.91-.24,1.09-1.04,1.11-4.36,1.34-2.57,1.38-2.82,1.17-2.56,1.38-5.1-3.74-4.68-4.27-.82-2.88.28-2.98,1.99-2.82,2.55-2.32.45-1.06.12-1.13,1.46-.62,1.75.48,2.02-1.92.64-53.1,2.59.38,2.8,2.26,1.77,2.73,2.83.9,1.27-.78,1.15-.96,4.05-1.82,2.03-3.79,4.91-21.18-.64-7.18,3.07-8.7,1.8-.85,2.09-.67,1.88-3.99,1.11-4.38-1.04-3.69-4.22-1.26-2.8-1.82-.59-3.33,1.6-29.29v-.02Z"/>
  <path class="cls-2" d="m582.13,144.45l10.26,5.74,6.13,3.43,1.14,1.83,1.31,8.06.16.98,1.49,9.09-1.35.1-.74.64-.26,1.04.11,1.33-1.4.11-1.77.95-1.66,1.31-1.08,1.2-.38.66-.35.83-.19.87.12.78.54.55,1.22.15.38.58-.3,1.23-.59,1.45.21,1.02,3.55-.21,1.59.14,1.57.42,1.4.68,1.04.95.56,1.15,1.29,4.58.74,1.52,1.02,1.34,4.05,2.91,6.34,4.58,6.33,4.58,6.35,4.58,6.33,4.57,6.33,4.58,6.35,4.57,5.84,4.22h0s-25.33,36.3-25.33,36.3l-3.35,2.33-1.97-2.32-1.62-1.42-.78-.32-1.47-.29-.74-.49-1.03-.41-4.48-.15-1.67.22-2.73,1.72-1.7.27-1.79-.65-5.15-3.94-6.47-3.61-1.72-.23-3.82-3.14-2.46-4.22-.15-5.71.41-5.76-.16-2.39.05-2.32,1.11-2.72-.08-2.07-.45-2.01-1.63-5.65-.9-1.52-.66-3.77.26-8.27-1.31-3.31-2.2-3.88-2.74-4.67-3.99-4.34-2.3-5.44.3-1.42-1.08-.94-2.17-.13-2.06-.66-.91-1.35-.95-1.12-1.47.14-1.48.43-1.97,1.98-2.03-.21-1.88.18-1.83.47-.15-13.5-2.77-5.09-5.18-3.41-2.38-1.04-1.8-1.75-.68-3.48-.12-3.57,1.71-4.89,4.96-1.46,2.48-1.07,1.87-1.96,4.44-3.64,3.43-2.27,3.78-.12,1.28.47,1.45-.5,2.69.31,2.42,1.42,6.13,2.54,3.27.74h.05Z"/>
  <path class="cls-2" d="m655.8,233.54l.49.36,6.35,4.57,6.33,4.57,6.33,4.58,6.35,4.58,6.34,4.57,6.34,4.58,6.34,4.58,6.34,4.57,6.3,4.56.51.47,1.31.36.48,2.09-.4,2.41-1.38,1.28-2.02,1.02,1.64.66,1.12.1.65.41.19,1.65-.09,1.58-.28,1.29-.48,1.19-2.37,4.03-.96.91-.43-1.09.25-1.47.48-1.44.24-1.41-.47-1.31-1.31,3.84-1.14,1.36-1.61-.12,1.29,2,.2.74.26,4.23-.22.75-.51.32-1.15-.36-.64.28-.28.38-.74,1.44-.13,1.02,1.07-.06,2.38-.98.05,1.12.82,1.79.14.69-.3.55-2.83,2.48-.48.64-1.47,3.08-2.27,3.42-.24.53.58.55.81-.62,1.15-1.46.45.92-3.22,9.35-.81,1.64-1.03,1.38-.78.52-.86.42-.68.58-.22,1.02.32.63.59.28.51.46.1,1.18-1,2.96-2.14,4.38-2.59,3.93-2.43,1.55,1.02.46-.49,1.54-.06,3.47-.72,1.38-.94,1.19-1.35,2.77-1.64,2.5-.53,1.61-.28,1.74-.02,4.81-.31.73-.48.52-.42.65-.29.7-.05.25-6.21-1.03-1.21.97-1.48.5-1.03-.2-1.03.11-1.34,1.4-1.63.51-4.26,1.85-.97-.54-1.07.27h-1.5s-1.32-.51-1.32-.51l-.82.54-.74.63-2.49-.52-1.27-.76-1.13-1.13-2.36.13-2.04-.86-1.94-2.74-3.16-.82-2.77-1.01-2.09-2.3-4.66-2.33-5.3-.43-1.91.93-2.16.36-5.04-1.15-11.25,3.02-1.2,1.1-1.78-.54-1.11.94.1,2.09-3,.96-3.89-.2-2.01,2.03-1.79-1.54-4.82-5.54-.87-3.43-2.51-1.05-1.29-.15-1.27-.67-1.15.13-.94-.35-.19-.54-.41-.31-2.36-.8-1.12,1.99-1.35,8.57-2.4,2.15-2.69,1.1-2.35,2.86-3.16,2.35-1.47,3.01-1.99,1.99-1.99-1.31-1.67-1.79v-.71s-.26-.49-.26-.49l-.28-1.95,1.54-2.2-1.97-.66-2.24-1.15-1.12-7.89,8.83-6.03,2.35-3.84,1.6-8.74,1.41-4.01,6.82-8.83,1.67-4.95,1.64-7.2.08-2.12-.61-1.95.62-1.73,10.94-13.25,4.1-3.69h3.7s3.61,1.22,3.61,1.22l4.41,1.05,4.57-1.07,3.7-1.24,5.08-1.08,1.3-.07,1.96,1.43,2.06,1.17,3.58.14-.64-2.82-1.24-1.92-.86-2.1-.52-2.43-1.47-1.95-1.03-3.19.05-3.6.58-4.93,3.71-3.92,3.35-2.33,25.33-36.29h0Z"/>
  <path class="cls-2" d="m731.46,462.08l-.59.79-.42,1.33-.18,1.2-.33,1.1-.86,1.03-.96.76-.47.19-.62.07-.58.23.07.56.33.66.21.58-.44.85-1.03.19-1.18-.07-.91.05.73,1.21.74.83.5.96v1.61s-.32,1.1-.32,1.1l-.66,1.54-.79,1.37-1.96,1.82-.86,2.83-1.31,8.26.08,1.54.31,1.55.95,2.4.25,1.4-.44,1.12-.25,1.06,1.12,2.74-.36,1.32-3.31,3.87,2.27-.51,1.62-1.86,1.06-2.49.63-2.42,1.15.95.89,1.02.11,1.07-1.18,1.11,2.79-.27,1.27.14,1.31.92,2.02,1.98.24,1.06-.48,1.85-1.1,2.43-.1.92.8,2.62.07,2.93.33,1.34,1.14-.71.38-.36-.24,2.31-.92,2.12-2.39,3.82-2.47,6.75-1.09,2.05-.51-.24-.23.02-.24.13-.58.1.52,1.11-.17,2.69.21,1.33-1.06-.47v.6s-.46,1.41-.46,1.41l-1.21-1.34-.62-.46-.71-.21.59,1.09.04.88-.53.65-1.11.41.34.7-1.06-.39-2.76-2.2-3.71.12-14.42,3.17-9.24,3.11-4.64.99-1.24-.43-.71-1.11-1.43-.44-5.18,1.16-1.92,3.13-1.58,4.15-3.45,2.1-4.23-.13-1.21-3.05-1.21-7.11-5.49-5.27-3.62-2.49-6.83-6.03-4.13-2.11-9.16-2.01-8.8-3.08-3.77-2.31-10.38-7.93.59-.74.21-.84.18-1.72.82-3.17.21-.42.44-.55.26-.26.27-.14.28-.62.42-.63.32-.34-.17-3.65.81-3.52-.02-3.92.6-3.76,2.21-2,2.86-.99,6.6-1.27,2.72.3,2.59.65,3.72-.7,3.62-1.26,11.96-2.06.4-2.73-1.47-3.17-3.22-9.3,1.81-5.56,2.1-2.75,2.76-1.68,2.95-.35,1.64-3.18,2.69-3.36,1.86-3.79-.44-.97-.72-.85-.25-2.66-1.39-1.1-1.88.14-1.14-.77-1.51-.31-1.13.45-1.17.29-.89-.4-.71-.7-1.32-.82-1.63.06-2.89-4.16.69-4.4,1.9-4.45-1.27-5.62-1.31-.27-1.4.11-.81.41-.71.61-1.73.31-1.76-.19-7.44-2.79-2.16-1.09-2.14-.31-1.37-.62-.71-1.69-.96-1.23-.72-1.21.28.04.07-1.64,1.35-1.49,1.89-4.4,1.54-11.43-.24-6.02-1.35-1.63-1.92-.92.48-.64,1.07-.21-1.71-.3-1.98-.61-1.1-1.61-.87-1.8-1.9-2.47-2.01-4.36-1.34-1.42-.48-2.05-.12-2.13-2.25-3.83-3.52-2.68,11.25-3.02,5.04,1.15,2.16-.36,1.91-.93,5.3.43,4.66,2.33,2.09,2.3,2.77,1.01,3.16.82,1.94,2.74,2.04.86,2.36-.13,1.13,1.13,1.27.76,2.49.52.74-.63.82-.54,1.32.52h1.5s1.07-.28,1.07-.28l.97.54,4.26-1.85,1.63-.51,1.34-1.4,1.03-.11,1.03.2,1.48-.5,1.21-.97,6.21,1.03-.4,1.9-.71,1.52-.55,1.63.08,1.81.27.48.92,1.07.33.49.71,2.88.31.74.44.43,1.64,1.05,1.16.98.13.46.29,2.82-.18,1.79-.52,1.61-.88,1.09.57,1.86.25,4.19.93,1.86.81.59.91.47.77.51.32.72.11.8.33.84.48.77.6.64.43.31.37.15.97.05.51.22.25.49.21.52.34.35.94.17,2.06.11.8.46.76.29.8-.29-.07-.6-.65-.29-1.2-.47-1.46-.97,2.13.66,1.55.69,4.11,3.91,2.45,2.96-.69.28-1.27,1.44-1.37,1.16-1.36,3.32-.37,3.64-.94,3.26-2.1,2.65-.17,1.12,1.79.11.94.81.03,1.42.56,2.59,2.1,1.33.38,1.49.67,1.6-.81,1.42-1.48.88-.88,1.54-.38,1.8-1.32,1.59-.9,1.77.88.81,1.43-.51,1.53,1.44,1.72-1.1,1-1.68,1.51-1.16,1.14.52,1.34.46,1.13-.96.65-1.31,1.07.15,1.17-.1,1.7-2.47,2.49-.29.96.09,1.07-.1,1.85.25,1.92.56,2.07,2.39,1.63,2.68.12,10.62.99-.31.85,1.15.05.06Zm34.23,34.15l1.14,1.26-.12,2.42-1.18,5.05-2.12,4.87-.99,1.35-.14.56v.48s-.08.49-.08.49l-.51,1.54-.22.4-.65.88-.13.53-.36.9h-.88l-2.05-.61-2.16.71-.94,1.62-.45,1.72-.71,1.01-2.94,1.16-1.5.34-1.23.04-1.5-.61-1.96-2.11-1.2-.92.7-.16,1.26-.05.63-.26v-.21s.21-.54.21-.54l.24-.49.11-.02.17-.57.42-.13.51.04.42-.13,3.2-3.12,1.08-1.71-.69-.84.42-1.26.85-.59,1.16-.16h1.36s1.24-.24,1.24-.24l2.32-1.08,1.27-.26-.41-.6-.7-.11-1.92.2v-.46l.89-.22.79-.41,1.35-.95,1.59-.66.68-.59.51-1.92.6-1.12.74-.98.66-.41.36-.39.76-1.93.15-.75Zm-11.41,26.78l2.38-.27,1.68.09.35,1.06-.8.97-3.09,3.45-2.21,2.03-1.24-.09-.44-1.24.44-1.94.88-1.59,2.03-2.47Z"/>
  <path class="cls-2" d="m708.76,415.72l1.96,1.41.58.64,1.12,1.92.66.69,1.26.76.63.55.5.85.3.97.1.95.46,1.86,1.11,2.05,1.34,1,1.2-1.29.33,2.17-.34,2.92.04,2.65,1.5,1.41-.05-1.36-.12-.58-.33-.61,1.36.09,1.08.42,2.12,1.28,1.14.3,2.25.2.93.52,1.1.4,2.72-.03.53.43.31,1.03,1.37,1.81.62,2.21,3.55,4.71.24.52-.08.72-.36.46-.39.39-.18.48.63,4.77-.08,1.97-1.11-.1-.75.95-.56,2.03-.44.88-.83.66-.7-.02-.53-.66-.25-1.27-3.12,2.19-.08.11-.05-.06-.85-1.15-.99.31-.12-10.62-1.63-2.68-2.07-2.39-1.92-.56-1.85-.25-1.07.1-.96-.09-2.49.29-1.7,2.47-1.17.1-1.07-.15-.65,1.31-1.13.96-1.34-.46-1.14-.52-1.51,1.16-1,1.68-1.72,1.1-1.53-1.44-1.43.51-.88-.81.9-1.77,1.32-1.59.38-1.8.88-1.54,1.48-.88.81-1.42-.67-1.6-.38-1.49-2.1-1.33-.56-2.59-.03-1.42-.94-.81-1.79-.11.17-1.12,2.1-2.65.94-3.26.37-3.64,1.36-3.32,1.37-1.16,1.27-1.44.69-.28Z"/>
  <path class="cls-2" d="m728.18,373.76l.08.13.82,3.42.45.26,1.58.25.16,1-.19.91-.32.92-.16,1.01.04,1.19.15.91.3.83.53.92-.89,1.1-.38.61-.25.85,1.08-.46.67.46.56.84.74.65.05-1.11.49-.73.6-.05.37.91.34-.04.09-.05v-.13l.09-.29,1.2.31v-1.56s-.34-2.22-.34-2.22l.16-1.64,1.29,1.71.66,2.12,1.38,10.92.27.67,2,3.54-.34,3.23-1.87,2.24-2.66.89-2.73-.8-1.08-.97-1-1.31-.73-1.5-1.46-6.37.17-1.12-1.67.51v.81s.71.99.71.99l.45,1.02-.09,1.68-.36.41-2.07-.77.33-1.44-.42-1.15-1.93-2.05-2.33-3.61-.65-.55-.08-.45-.22-1.54-1.3-1.38-.75-1.69-.13-1.91.45-5.86-.38-1.48-.12-1.51,5.4-.37,2.84-1.88.41-.25h0Z"/>
  <path class="cls-2" d="m713.87,376.23l-.87-2.93.33-4.19-.08-.91.07-.88.21-.76.31-.55.22.39.57.77.22.41,1.24-2.02,2.65-2.21,1.23-1.43.61-2.35.52-5.52,1.35-1.35.87,2.28,2.27,4.09.45,2.62-.53,3.14-.03,1.17.23,1.15.65,2.13.13,1.1.34,1.16,1.34,2.21h0s-.41.25-.41.25l-2.84,1.88-5.4.37-2.69-.24-2.7.23-.27-.02Zm2.09-19.74l-.05,1.02.36,1.33.61.92-.51.77.46.97v1.48s-.92.2-.92.2l-.82-.05-.15-1.07.15-1.33.2-2.09-.21-1.53.87-.61Z"/>
  <path class="cls-2" d="m722.05,392.08l-.57-.47-1.01.55v.55l.44.07.05.22-.06.33.08.41-1-.69-.31,1.17.26,1.68.8.86-.18.1-.11.16-.28.04-.69-.3-.67-.43-.25-.29-.17-.3-3.75-4.34-.7-1.17-.95-3.36-.65-1.34,2.67-3.26-.6-4.32-.51-1.7.27.02,2.7-.23,2.69.24.12,1.51.38,1.48-.45,5.86.13,1.91.75,1.69,1.3,1.38.22,1.54.08.45Z"/>
  <path class="cls-2" d="m762.74,312.7l-.02,3.51-.53,1.2.56.56-.89,1.04-2.21,6.59-.57.8-.31.32-.11.47-.03,1.26-.34.98-.65.17-.43-.6.36-1.33h-.4l-.5,1.21-.26.44-.35.38.25.79-.39.83-.83.77-1.05.67-.71.19-.2-.28.25-.47.66-.41v-.56l-1.06.27-.8.5-.61.12-.53-.89-2.59.08-1.08-.35-.44-1.01.04-2.61.29-1.19.69-1.03-.46-.8.93-.16,2.61.45-.6-1.06-1.55-1.91-.42-1.15,1.16.3,1.46.11,1.31-.22.73-.69-.85-.19-.73-.27-.6-.42-.47-.64h1.16s1.78-.45,1.78-.45l1.17-.06,1.34.7.74-.21.51-1.51-1.5.56-1.81-.51-3.38-2.14-.73.47-.91-.28-.84-.76-.56-.96.8.33.53.38.5.15.7-.35.71.22,2.53.38,1.38-.04-.56-.56.57-1.44-.28-1.23.68-.36,2.15.06.61.86-.25,1.05.25,1.05,1.47.31,1.41-.74,2.09-.7Zm-20.83,15.83l.65.35,1.09.69.78,1.09.87,1.35,1.17.43,1.13.3.74.95-.17.91-2,.13-1.3-1.04-1.13-1.35-.65-.95-.87-.91-.78-1.09.48-.87Z"/>
  <path class="cls-2" d="m754.32,311.17l-.8-.39-1,1.04.39-1.52.21-.48-.44-.55-.58-.36-.74-.03-.88.48.17-.83.11-.34.27-.45-.3-.89.1-1.06.39-.79.56-.07.88.42.4-.25-.06-.64-.47-.75-.64-.38-2.41-.92.22-.71,1.03-.83.31-.77-1.06.51-.6-1.38.4-1.08,1-.35,1.29.77.29-1.2-.83-.7-1.21-.65-.83-1.02-.04-.86.45-2.09.09-1.13.17.38.18.31.21.22.22.07.57.33.41.71.25.72.07.33.82-.12.28-.55.16-.61.46-.29.37.26,1.2,1.2.25.35,3.43,1.97.62.58.05.86.18.75.31.27.49-.58-.05-.6-.28-.72v-.83s.89-.9.89-.9l.08.55.26.56.11.42.61-1.23.44-1.49.16-1.41-.15-.97,1,.66v1.52l-.19,1.78.84,2.79-.83,1.35-1.32,1.04-1,.5.37,1.32-.24,1.44-.45,1.46-.24,1.41.71,2.23.07.4.68-.32.06-.71-.13-.73.12-.37.94.41.12,1.31-.51,2.86v.88s-2.09.7-2.09.7l-1.41.74-1.47-.31-.25-1.05.25-1.05-.61-.86-2.15-.06-.68.36Z"/>
  <path class="cls-2" d="m540.35,373.88l-2.22,3.62-.11,4.28,2.02,17.61-4.02,6.07-3.06,1.52-1.83,7.32-1.56,3.74-.45,1.58-.85,1.34-1.04-.16-1.06-.3-.21,1.19.84,1.19.04,1.86-1.14,1.63-1.75,5.56.38,13.45-.37,3.35-6.09,3.79-3.17,6.66-.94,3.38.47,3.68.92,3.61-.56,3.5-2.74,2.85-.4-1.81-.47-1.07-1.27-.83-1.78-.36-3.44.05-2,.65-.99.12-.93-.48-.27-.57-.21-1.47-.28-.59-.41-.56-.85-1.74-.56-.55-1.14-.7-.38-.34-.68-1.53-.51-1.69-.87-1.37-1.73-.56-1.44-.24-6.72-2.68-1-.1-1.63.09-.84-.07-.59-.3-1.07-.29-4.3,1.04-1.55-.29-2.94-1.02-1.29-.23-1.11-.49-1.33-.86-.75-.18-6.53-1.61-2.39.17-2.63-.21-5.3-2.93-3.57-1.31-3.58-.4-1.07-.63.02-1.18-.93-1.5-1.67-.9-3.49-1.19-3.56-.31-2.49.41h-2.52s-2.12.55-2.12.55l-1.52,1.61-7.48,1.17-7.21-4.37-.35-7.95-1.21-6.96,9.36-.43,2.06-4.99-1.31-12.8.77-6.72,1.24-2.38.03-2.69-.7-2.95-1.5-2.64-.61-6.49,1.61-6.72.28-8.66,2.64-6.21,1.91-2.8.72-2.85.37-3.01,2.31-2.02,1.53-1.88-.83-2.16-2.46-2.68-1.88-3.1-.17-1.44-.32-1.21-.71-.17-.53-.46-.79-.96-1.11-.71-1.32-2.17-.91-2.35-2.03-2.17-1.71-2.48-1.18-5.07-1.34-2.92-.95-3.03.07-2.78-.23-2.77-1.52-2.5.39-2.49,18.12-12.44.67-1.93,1.23-2.48-.3-2.63,1,.12.91.44,6.8.63,3.88-.65,1.64-2.65,5.1-10.39,3.77-5.97.71-2.84-1.31-2.63-.41-1.19-.14-1.26.35-1.31.67-.39,1.63.63,5.84-4.02,3.2-3.06.79-1.27,1.2-.85,1.29.54,1.25.7,1.8-.89,1.82-1.25,3.68.08,2.27-3.78.84-.61,1.83-1.08,2.21-1.69,18.58-5.25.52,22.09.72,4.19,1.2,4.07,1.72,3.79.41,2.44-.87,15.15-2.74,17.93-1.59,5.23-2.36,3.67-1.62,4,.81,4.7-1.27,4.19.99,3.42,2.85,3,3.85,3.1,3.47,3.46,2.13,3.73,2.61,3.4,4.52,2.78,4.77,2.26,2.98,3.63,2.14,4.34,2.69,4.2,3.7,3.28,4.98,1.95,5.16,1.51Z"/>
  <path class="cls-2" d="m555.13,363.86l-10.82,8.72-3.97,1.3-5.16-1.51-4.98-1.95-3.7-3.28-2.69-4.2-2.14-4.34-2.98-3.63-4.77-2.26-4.52-2.78-2.61-3.4-2.13-3.73-3.47-3.46-3.85-3.1-2.85-3-.99-3.42,1.27-4.19-.81-4.7,1.62-4,2.36-3.67,1.59-5.23,2.74-17.93.87-15.15-.41-2.44-1.72-3.79-1.2-4.07-.72-4.19-.52-22.09-18.58,5.25-2.21,1.69-1.83,1.08-.84.61-2.27,3.78-3.68-.08-1.82,1.25-1.8.89-1.25-.7-1.29-.54-1.2.85-.79,1.27-3.2,3.06-5.84,4.02-1.63-.63-.67.39-.35,1.31.14,1.26.41,1.19,1.31,2.63-.71,2.84-3.77,5.97-5.1,10.39-1.64,2.65-3.88.65-6.8-.63-.91-.44-1-.12-4.43-1.7-2.8-5.24-4.35-.77-2.99-2.05.03-3.13-.71-2.95-4.95-2.41-2.73-6.03-3.7-4.26-5.06-3-3.35-3.73,2.76-7.53,3.96-7.19,4.25-5.66-.19-2.22-6.35-6.91-2.73-5.62,2.56-1.38,2.82-1.17,2.57-1.38,4.36-1.34,1.04-1.11.24-1.09.69-.91,7.07-4.34,2.28.03,2.09-.68,2.59-1.78,2.96-1.08,4.93-4.98,3.14-.03,2.88,1.56,2.99.59,2.32.98-1.89,2.15-1.46,2.52,2.25,2.32,3.35.46,1.3-1.96-.23-2.86,8.82-2.36,1.29-2.67.44-5.18,1.97.27.98,3.53-1.83,5.35-.52,5.42,1.62,5.12,1.51-.42.22-2.23,1.97-2.5,2.65-2.32,3.6-4.76,4.28-1.45,2.44,3.5,3.54,6.65,16.78,24.37,3.69,1.56,3.45-.44.72-1.52,3.34-.65,3.49-.3,2.03-.65,2.1.08,1.22.5,1.06-.55.1-4.26-1.67-9.41-.64-8.51,1.22-3.02,4.44-5.83,1.34-.52,1.44-.3,1.54-1.34,1.47-.51.55-1.23v-.77s.52-.57.52-.57l5.42-.28,1.37.38,1.34.91,1.4,2.49,2.27-.53,1.83-2.46,1.95-2.15,5.58-.06,1.7-1.53,1.38-1.95,2.36-1.59,2.59-.98,1.83-.47,1.88-.18,2.03.21,1.97-1.98,1.48-.43,1.47-.14.95,1.12.91,1.35,2.06.66,2.17.13,1.08.94-.3,1.42,2.3,5.44,3.99,4.34,2.74,4.67,2.2,3.88,1.31,3.31-.26,8.27.66,3.77.9,1.52,1.63,5.65.45,2.01.08,2.07-1.11,2.72-.05,2.32.16,2.39-.41,5.76.15,5.71,2.46,4.22,3.82,3.14,1.72.23,6.47,3.61,5.15,3.94,1.79.65,1.7-.27,2.73-1.72,1.67-.22,4.48.15,1.03.41.74.49,1.47.29.78.32,1.62,1.42,1.97,2.32-3.71,3.92-.58,4.93-.05,3.6,1.03,3.19,1.47,1.95.52,2.43.86,2.1,1.24,1.92.64,2.82-3.58-.14-2.06-1.17-1.96-1.43-1.3.07-5.08,1.08-3.7,1.24-4.57,1.07-4.41-1.05-3.61-1.21h-3.7s-4.1,3.69-4.1,3.69l-10.94,13.25-.62,1.73.61,1.95-.08,2.12-1.64,7.2-1.67,4.95-6.82,8.83-1.41,4.01-1.6,8.74-2.35,3.84-8.83,6.03Z"/>
  <path class="cls-2" d="m427.4,288.26l.3,2.63-1.23,2.48-.67,1.93-18.12,12.44-.39,2.49,1.52,2.5.23,2.77-.07,2.78.95,3.03,1.34,2.92,1.18,5.07,1.71,2.48,2.03,2.17.91,2.35,1.32,2.17,1.11.71.79.96.53.46.71.17.32,1.21.17,1.44,1.88,3.1,2.46,2.68.83,2.16-1.53,1.88-2.31,2.02-.37,3.01-.72,2.85-1.91,2.8-2.64,6.21-.28,8.66-1.61,6.72.61,6.49,1.5,2.64.7,2.95-.03,2.69-1.24,2.38-.77,6.72,1.31,12.8-2.06,4.99-9.36.43,1.21,6.96.35,7.95-2.98-.92-3.09-.36-3.08-.78-2.85-.25-1.12,1.09-1.36.86-1.48.58-1.27.97-3.16,1.8-2.74,2.21-.85,7.24-2.77,5.26-21.85,4.57-3.75,4.52.12,2.33-1.46,1.21-3.47.51-3.46-.15-3.33-1.22-3.41-.03-2.55,2.82-2.29,3.22-6.13,4.18-6.52,3.65-3.37-1.51-3.09-2.21-1.47-.38-1.21-.71-.29-3.08-1.32-3.13-.24-2.03-.94-1.73-4.27-1.3-1.45-1.5-1.17-1.73-1.76-3.3-2.58-2.5-3.16-1.19-1.8-2.99-.57-4.08-1.04-3.89-1.7-2.46-2.26-1.92,3.22-6.6-.43-7.92.49-7.94-.78-1.64,3.55-4.23,1.14-.66,5.37-2.04,7.56-7.7,2.96-2.14,1.6-.67,1.83-.25.81-.64,2.61-4.21,4.34-3.65,5.12-3.82-.29-2.41-.84-2.56.21-6.23,3.89-14.51.06-6.53.19-1.46.43-1.34,1.99-1.57,1.54-3.12-.23-3.36-2.23-1.66-1.63-1.94,3.29-5.02,4.83-4.1,2.76-2.83,2.08-3.24-1.62-2.04-6.59-6.65-2.55-1.64-2.39-1.94-3.35-1.99-3.78-1.4-2.16-2.19-.74-3.15-.45-3.13,2.1-5.85-.64-2.92-1.24-3.57-.05-3.74,2.66-7.19-.16-6.4-.82-6.3,1.6-6.8,8.82-11.43,3.21-6.91,3.82-6.59,1.73-1.47,2.37.81,2.34-.23.55-2.36.72-1.19.59-1.34.26-3.26,2.83-2.44,4.51-1.17,1.88-2.02,2.22-1.65,2.66-.8,2.71-.56,12.63-5.12.94-1.58,1.99-1.63,2.67-.5,4.68,4.27,5.1,3.74,2.73,5.62,6.35,6.91.19,2.22-4.25,5.66-3.96,7.19-2.76,7.53,3.35,3.73,5.06,3,3.7,4.26,2.73,6.03,4.95,2.41.71,2.95-.03,3.13,2.99,2.05,4.35.77,2.8,5.24,4.43,1.7Z"/>
  <path class="cls-2" d="m349.25,227.32l-.26,3.26-.59,1.34-.72,1.19-.55,2.36-2.34.23-2.37-.81-1.73,1.47-3.82,6.59-3.21,6.91-8.82,11.43-1.6,6.8.82,6.3.16,6.4-2.66,7.19.05,3.74,1.24,3.57.64,2.92-2.1,5.85.45,3.13.74,3.15,2.16,2.19,3.78,1.4,3.35,1.99,2.39,1.94,2.55,1.64,6.59,6.65,1.62,2.04-2.08,3.24-2.76,2.83-4.83,4.1-3.29,5.02,1.63,1.94,2.23,1.66.23,3.36-1.54,3.12-1.99,1.57-.43,1.34-.19,1.46-.06,6.53-3.89,14.51-.21,6.23.84,2.56.29,2.41-5.12,3.82-4.34,3.65-2.61,4.21-.81.64-1.83.25-1.6.67-2.96,2.14-7.56,7.7-5.37,2.04-1.14.66-3.55,4.23.78,1.64-.49,7.94.43,7.92-3.22,6.6-16.14.95-5.98-1.37-5.15-3.46-6.06-1.8-6.38,1.5-2.35.84-1.77,1.63-2.5,1.59-3.25-.33-1.85.75-.87,1.88-4.77,7.68-1.92,1.43-5.05.86-5.18-.12,1.76-7.5.78-7.65-.47-7.79.36-7.78,2.16-6.9,4.37-5.55,2.09-1.24,1.49-1.94.72-1.34.44-1.42-.55-1.06-.67-1.01-.35-1.56-1.28-.73-10.79-.93-3.05-1.17-2.28-2.36-2.71-4.31-1.09-1.1-.72-.32-1.66-.25-1.4-1.03-2.61-1.15-.78-.53-.42-.39-.78-1.17-.07-.34.14-.86-.07-.34-.44-.37-.94-.15-.45-.24-1.01-.74-3.85-2.06-1.77-1.41-1.9-2.11-1.73-2.54-1.24-2.71-1.31-5.02-.94-1.35-.48-1.24.05-3.67-.31-1.46-.53-.63-1.42-1.27-.59-.69-.28-.7-.23-.84-.29-.71-.45-.3-1.57-.2-4.28-1.33v-.51l-1.16.61-1.3-.07-3.44-.67-1.76-.89-.27.07-.27.24-.32.14-.43-.22-.7-.78-.39-.34-.44-.14-2.2.47-1.64,1.12-1.45,1.34-1.57,1.15-1.5.64-.58.38-.81.78-.42.52-.02.23-.96.21-2.79,1.11-.83.49-.77.12-5.55-1.7-.81.19-.78,1.16-1.11-.82-1.28.09-1.41.46-1.5.27-1.66-.24-1.45-.63-2.75-1.72-1.37.53-3.07-.35-1.4.58-1.32.28-1.08-1.12-1.43-2.52-1.46-.52-1.51.25-1.5.53-1.41.29-.99-.22-.16-.52.39-1.07-.08-.45-.35-.71-.08-.38.51-1.71-.31-1.24-.28-.71-.38-.65.19-.56.04-.47-.23-.5-.35-.12-1.04.05-.43-.18-4.93-3.75-.34-.1-.26-.23-.51-1.2-.21-.89.05-.87,2.13-1.19.2-1.85,5.75-1.54,5.35-1.21,1.38-2.59-2.77-11.84.65-8.61,3.61-10.05-.32-2-.88-1.16-.48-1.24.47-.25,3.69-2.82,1.7-.57.52-.33.33-.5.29-1.17.28-.5,1.33-.82,3.42-1.6.6-.9-.81-7.81.38-1.32,1.4-.96,4.15-1.55.66-.74,1.15-3.38-1.33-5.66-.68-5.57-.9-1.83-2.06.21-.52-3.38-.03-3.46,1.7-2.61.77-3.14,1.91-2.39,3.02-.83,7.17.78,5.13-2.54-.41-2.09-.89-1.96-1.43-.88-.59-1.36,1.04-2.26,2.93-4.44,8.68,2.67,6.6,1.36,2.49,1.8,2.17,2.07.53,3.83-.19,4.04.3,3.84,1.06,3.68-.21,3.08-.56,2.84,5.53-2.58,6.09-4.65,6.17-1.2,6.06,1.9,2.82,1.74,2.98,1.42,2.67-.56,1.9-2.4,1.15-.9.26-1.61-.5-2.81.5-2.93,1.18-1.92,1.96-.31,2.61-1.6,2.46,1.14,1.4,1.48.8,2.11-.08,1.4.12,1.25,1.78-.07,7.21-2.12,1.37-3.96-3.32-1.14-1.5-1.32-1.28-1.52.54-1.31,1.27-1.13.84-1.35,1.78-.28,1.09-4.08-.81-4.26,4.08-1.35,4.77-2.06,1.06-1.08,1.28-.65,5.3,1.15,3.57-1.54,3.02,1.01,3.36,2.82,4.44.37,3.95-.19,6.59-3.12,8.59-2.07,4.15,1.08h5.05s2.05-.74,2.05-.74l4.28-1.08,4.15.95.34,1.9,1.47,1.15,2.46-.39,2.55-.07,5.57,1.9,4.46.14,2.36.32,1.97,1.22,1.52,2.05,2.02,1.44,2.43.66,2.37.05,1.69-.5,1.44.58,1.14,1.08,1.5.43,2.66.19,2.54,1.05,2.04-.05.97-1.79,1.7-.93,2.13.3Z"/>
  <path class="cls-2" d="m511.84,476.21l1.66,7.57,1.27,2.2,2.19.99,1.01-.06,1.65-.3.97.11,3.39.8,1.57.65,1.29,1.06.69.88.3.19,1.73.38,1.48.6,1.92.22,1.11.25.53.24.43.34.19.27.07.27-.29,2.34.16.8.55.68,1.37.61,1.15-.19,1.03-.52,1.01-.36.61-.02,3.72.36,1.11.48.25.04h.77s1.55.36,1.55.36l-3.65,4.82-5.34,4.92-3.35,6.28-2.71,6.66-5.63,1.63-6.56-1.95-6.99-.69-6.53,2.41-5.41,4.16-2.33,2.24-.12.8-.04.97.1,1.29.4,1.23.48,2.52-1.28,2.19-4.31.66-2.39.6-2.76-.58-6.5,3.98-5.75,5.36-5.11,6.4-2.79,7.79-5.27,4.75-6.88,3.19-2.2,2.12-2.76,9.57.12,3.58-.9,3.4-1.6-1.36-.35-6.37-1.2-1.76-8.51-1.44-6.79-1.96-5.96.19-.38,3.32,1.23,3.04.08,3.34-1.89,2.77.11,1.19,1.34.64.68,1.51-.28,5.35.9,2.95-5.43,1.81-7.04-.42-7.04-5.03.83-13.42-17.81-6.29v-3.77l-10.52-3.21.87-4.9-1.21-2.57-1.59-2.33-1.18-3.05,1.55-3.12,2.11-3.25,2.73-2.55,3.13-1.06,2.63-2.02,1.94-3.26,2.68-6.22,1.8-2.23,4.08-1.22,3.25-2.54,1.8-2.45-2.04-2.08-3.37-1.21-3.58.3-1.97-.34.27-1.93-.74-2.27-20.11-3.22-3.17-1.04-2.74-1.93-10.99-2.61-3.82-.31-34.56,1.75-2.85-.38-1.07-2.18.64-3.06,1.36-2.77,2.02-2.68,1.7-2.9,2.03-4.81,1.48-1.79,1.06-2.08-1.2-1.39-1.91-1.28,6.52-3.65,6.13-4.18,2.29-3.22,2.55-2.82,3.41.03,3.33,1.22,3.46.15,3.47-.51,1.46-1.21-.12-2.33,3.75-4.52,21.85-4.57,2.77-5.26.85-7.24,2.74-2.21,3.16-1.8,1.27-.97,1.48-.58,1.36-.86,1.12-1.09,2.85.25,3.08.78,3.09.36,2.98.92,7.21,4.37,7.48-1.17,1.52-1.61,2.12-.54h2.52s2.49-.41,2.49-.41l3.56.31,3.49,1.19,1.67.9.93,1.5-.02,1.18,1.07.63,3.58.4,3.57,1.31,5.3,2.93,2.63.21,2.39-.17,6.53,1.61.75.18,1.33.86,1.11.49,1.29.23,2.94,1.02,1.55.29,4.3-1.04,1.07.29.59.3.84.07,1.63-.09,1,.1,6.72,2.68,1.44.24,1.73.56.87,1.37.51,1.69.68,1.53.38.34,1.14.7.56.55.85,1.74.41.56.28.59.21,1.47.27.57.93.48.99-.12,2-.65,3.44-.05,1.78.36,1.27.83.47,1.07.4,1.81Z"/>
  <path class="cls-2" d="m277.22,66.19h0s-.43.75-.43.75l.42-.75Zm-.63,2.06l.02.59-.28.13-.09.06.09-.06.26-.13v-.59Zm-.16,3.17l.43.3h0s-.43-.3-.43-.3Zm11.09-4.42l.29.04h0s-.29-.04-.29-.04Zm.29,5.11l.82.08-.83-.07h0Zm6.11,1.01h.01s-.11.23-.11.23l.1-.23Zm-.35.41l-.18.09h-.01s.19-.09.19-.09Zm2.17.97l.36.39-.14.44.13-.44-.35-.39Zm-.3,1.84l-.55.62-.22.46.22-.48.55-.61Zm-1.25,1.57l-.37-.15-3.45-.02-4.83-3.28-2.34-.67-2.05,1.92h0s2.06-1.93,2.06-1.93l2.34.68,4.83,3.28,3.43.02.38.15Zm-10.97.83h0s-.65.17-.65.17l.64-.17Zm-1.07.31l-.22.23-.22.53h0s.22-.55.22-.55l.23-.21Zm-1.34-.02l-2.02-1.76-1.2-.2,1.2.17,2.02,1.78Zm-3.2.21v.02s-.51,0-.51,0l-.44-.91.45.89h.5Zm-1.2-1.31l-.86-1.23-1.13-.81-.87.82h-.01s.87-.84.87-.84l1.14.81.86,1.25Zm-1.67,2.1h0s-.36-.28-.36-.28l-1.84-.49v-.02l1.84.5.37.28Zm-2.21-.75v.07s0,0,0,0v-.07Zm-.3.06l-1.77-.08-.37-.09-.1-.13.1.12.37.09,1.78.09Zm-2.31-.39l-.15.08-.21.51.2-.51.15-.09h0Zm-.47.86h0s0,0,0,0h0Zm.26.36l.08.27.1.57-.11-.56-.07-.28Zm.24,1.62h0s-.27.79-.27.79l-.66,1,.64-1.01.28-.78Zm-.97,2.07l-.05.52.14.52-.15-.51.06-.53Zm6.42.59l1.18.44,1.14.63-1.16-.63-1.17-.44Zm16.36,24.75l5.69,6.58,3.26,3.22,2.7,2.41,3.38,1.54,3.39,2.09,1.79,3.4-.25,2.11-1.44,1.45-1.49-.08-1.3.55-2.83,2.21-5.12-1.48-2.03,1.31-1.77.51-1.25,1.13-1.13,1.37-1.77.43-1.06,1.89,2.3,8.33-.63,3.01-2.13,6.45-.5,3.54-.97,2.31-1.86,1.74-1.82,5.36-4.05,2.45-2.92.85-3.19.44-2.78-.67-2.58.92-2.82,5.52-4.9,2.3-1.75-1.02-1.46-1.43-1.39-.63-1.52-.19-2.3-1.17-2.43-.73-2-1.56-1.18-2.73-2.1-2-2.3-1.73-2.15.44-2.44.78-1.93-.55-1.5.89-1.12,2.34-2.19,1.04-2.14-.13-.53,2.05-1.04,2.81.35,2.34,1.73.28-.08,2.06-2.77-.1-5.95-3.62-2.63-1.99-.03-3.8.55-4.14-.62-2.76-1.63-2.19,6.41-17.67-6.48-5.44,1.88-5.65-12.96-7.53,3.97-7.53-12.54-2.09-2.3-3.14-3.84-1.29.83-.66-.5-1.16-.7-.59-.83-.46-1.2-.92-1.11-.44-.52-.31-.26-.42-.15-.92-.33-.46-.68-.28-.85-.17-.7-.37-.31-.88.04-1.05.15-.96.31-.79.52-.57.33.15,2.75.11.28.81.74.5.98.17.98-.2,1.33-1.33,1.9-3.63,1.38-.04.26-2.36-.09-1.23-.46-.53-.28-.24.02-.46.35-.39.66.09.24.33.46,1.27.35.42,1.25.35.87-.24.77-.44.92-.22.94-.04.31.04,1.4,3.26.7.57,1.25.24.46.17-.33.35-.92.57.07-.26-.46-.22-.66-.13-.46.07-.28,1.49,1.33,1.86,1.71,1.84-.22.94.98,1.18,1.77.33,3.41-.07-.13.35-.24.85-.17.35.83-.04.79.02.77.17.7.31.59-.55.66.02.63.46.66.63.61-.79,1.51-.98.42-.81h.52l.22,1.09-.04,1.2-.33,1.16-.61.94-1.29,1.09-.5.63-1.05,2.08,1.68.5,1.84-1.07,5.6-5.3.42-1.03.15-1.55.2-.77.5-1.25.66-1.23.66-.63.46,1.58.04,1.23.24,1.18,1.07,1.47.81,1.47-.35,1.2-.77,1.09-.48,1.03,1.03-.53,3.06-1.97.46.5-.17.55.2,1.53-.02.98.9-.72,1.16-1.73,1.05-.61.85.28,1.29-.74.66.22.5.68.26.53.31.37.68.2v.46l-.5.9-.77.68-.61.79-.13,1.23.81-.2.57.26.37.61.26.85-1.6.2-.02,1.05.42,1.44-.31,1.42-.42-.24-1.11-.31.39,1.31.28.61.35.59.52-.33.59.09,1.42.81-1.31,1.18-.31.96.83.66,2.08.24.81.85-.52,1.9-1.57,2.87-.02.94.26.81-.04.57-3.08.66-.94.07-.85.2-2.43,1.34-1.75.59-.37.53.59.96,1.27-.39,1.44.66,2.36,1.77v.5l-2.01.11-.55.74.02,1.01-.26.9-.77,1.14-.24,1.18.17,1.12.57.9h.55l.59-.94,2.45-2.15.42-.72,1.16-2.82-.22-.96.24-1.6.52-1.64.66-1.12,1.44-.92,1.27-.53.98-.74.61-1.64h.57l.09,1.84.72,1.18,1.2.83,4.29,1.97,1.46.42.9-.09.35-.48.09-.55-.11-.57-.33-.48-.98-.68-.72.04-.63.26-.7-.09-1.03-.55-.04-.28.11-.99-.07-.26-.63-.13-2.45.13.63-1.36.92-.63.5-.55-.52-1.03-.39-.22-1.22-.53-.42-.26-.28-.42-.42-1.09-.31-.57-.48-.5-1.27-1.16-.28-.31.11-1.01.55-.28.55.09.26.13.52-.63.24-.17-.13-.28-.63-.94-.31-.28-1.4-.98-.48-.83-.35-1.27.04-1.18.79-.53.07-.57,1.75-2.43.46-.33-.39-1.27-1.75-1.86-.39-.94.15-1.31.5-.74.81-.15,1.07.39-.28-2.39,1.75-2.17,2.69-1.55,2.71-.59,6.03.63,2.89.83-.02,1.2.59.94.85,1.75.63.77.31.04,1.4.42.04.11.26.24-.07,1.07.31.24.61.28,1.64,1.31,1.03.39.92-.02,3.89-.5,1.81-.44.37.24.55.44.5.18.33-1.07.31-.35.46-.15.55.22.11.44-.17.7-.26.63-.2.2.92.48,1.18.09,1.03-.13.44-.15.11,1.14.42.59.79.17,1.27-.11-.35-.55-.15-.48.09-.5.42-.55.92.46.81-.31.59-.81.22-1.07-.39-.59-2.65-1.23-.98-.7v-.04h.7l1.9-1.12,1.71-.59.77-.63,1.31.94,1.62.02Zm-73.09-9.08l-.83,1.25-.59,1.16.31,1.18.15-.22.04-.09.04-.09.28-.15-.28,1.16-.94,1.01-1.09.57-.77-.15-.7.72-.72.48-.79.15-.81-.31-.5-1.25-.17-1.51-.42-1.27-1.22-.55-.17-.94,1.95-5.69.33.85.61.5.63-.04.5-.85h.46l-.22,3.15.72.77,2.03-.26-.24-.63-.22-1.97h.46l.81.15.81-.42.66.11.31,1.73-.42,1.44Zm-34.26-2.49l-1.46,3.59-.94.72-1.25.5-1.27.26h-1.12l.09.09-.24.15-.37.15-.28.07-.26-.13.02-.28.07-.31-.07-.22-.24-.35-.11-.48-.28-.2-.85.48.46-.94,1.05-.92.77-1.01-.28-1.18-.68-.24-1.57.2-.28-.48.28-.66.68-.42,1.07-.44,1.38-.79,1.22-.9,1.2-.7,1.36-.15.04.83.11.33.31.37.5-.52-.37.57-.26.61-.22.66-.11.7h.46l.72-1.03.57.13.28.81-.11,1.12Z"/>
  <path class="cls-2" d="m314.13,85.01h0s1.16,2.93,1.16,2.93l-.03.7,2.93,1.63,1.95-.91,5.03.29,2.95-.27.51-2.59,1.82-1.1,4.75,4.4,2.59.32h2.61s5.8,3.12,5.8,3.12l2.04.41,1.71,1.01,1.73,2.5,2.45,1.8,5.49,3.2,2.04,2.38,1.68,2.6,2.13,1.08,2.4-.3,1.88.1,4.17,2.85,2.73,1.21,40.84-.32.64,7.18-4.91,21.18-2.03,3.79-4.05,1.82-1.15.96-1.27.78-2.83-.9-1.77-2.73-2.8-2.26-2.59-.38-.64,53.1-2.02,1.92-1.75-.48-1.46.62-.12,1.13-.45,1.06-2.55,2.32-1.99,2.82-.28,2.98.82,2.88-2.67.5-1.99,1.63-.94,1.58-12.63,5.12-2.71.56-2.66.8-2.22,1.65-3.56-2.57-3.15-2.96-4.13-5.32-3.15-7.3-2.56-8.48-2.36-3.94-6.1-1.77-6.89-.2-5.51-.59-3.54-2.17-2.16-4.14-2.16-.99-2.56,1.38-2.75.59-3.74-.99-6.49-3.15-5.31-4.93-3.54-3.15-3.86-.45,1.82-5.36,1.86-1.74.97-2.31.5-3.54,2.13-6.45.63-3.01-2.3-8.33,1.06-1.89,1.77-.43,1.13-1.37,1.25-1.13,1.77-.51,2.03-1.31,5.12,1.48,2.83-2.21,1.3-.55,1.49.08,1.44-1.45.25-2.11-1.79-3.4-3.39-2.09-3.38-1.54-2.7-2.41-3.26-3.22-5.69-6.58,1.09-.63-.22-1.05-.48-.37-.42-.2-.26-.31-.11-.66.28-.59.63-.77.74-.63.61-.28,1.25-.2,2.97-1.16,1.12-.68,1.6-2.12,1.09-.79,1.42.37,2.54-1.97,1.01-.57,3.3-.7.77-.68.77-.13,4.31-2.84-.15-.74-.35-.44-.35-.31-.17-.24.07-.7.42-1.18.02-.7-1.16-2.92Zm-31.4,2.62l.53-.2.8-.07-.8.08-.53.2Zm8.15-.41l.49.02.58.1-.58-.1-.49-.02Zm14.23-2.64l1.31-.96.61-.31-.6.31-1.32.95Z"/>
  <path class="cls-2" d="m135.93,251.14l-2.46-3.9-1.59-3.86-.24-1.31-.88-1.11-.31-2.36-.61-2.29.21-3.67,2.46-6.88.41-3.62-1.3-6.09-4.48-9.87-4.17-3.98-1.8-4.66-.17-5.11-.68-2.57-.31-2.36.24-2.76-1.27-2.52-.1-.2v.03s-1.6-2.39-1.6-2.39l-1.37-2.56-1.89-5.17-.84-5.36-3.91-2.89-1.4.9-1.07,1.26-.91-.02-.65-.77.15-4.12,2.81-4.35,2.07-5.33-.16-5.62-.35-.57-.6-.25-.56-.9-.08-1.16-1.73-3.3-3.12-1.25-.91-4.69-3.66-3.14-3.4-3.66,2.61-7.32,8.1-3.92,10.97-18.83,2.35.52,4.96-.78,3.92-1.31,3.4.52,14.89,6.54,5.15.2.59.42,1.31-.04,1.9-.9,1.42-1.29,1.57-.85,2.23.46-.31.79-.2.31,1.11.5.66.7-.09.46-1.18-.17.07,1.47.24.9,1.22,1.73,1.03.31.48.33-.5,1.18.15.55.28.55.09.55-.39.96-.61.9-.87.74-1.18.55-1.14.09-.98-.11-.66.2-.26,1.05.39,1.29.87.39.87.2.39.72v4.07l.46.63,1.07-.15,2.27-.72,2.23-.02,1.22-.18.9-.35-.2,1.23-.66.13-.85-.31h-.83l-.37.22-.15.15-.02.31v.57l-.07.61-.2.09-.31-.09-.83.28-.96-.07-.42.2-.44.63v.44l.15.35.02.31-.92,1.77-.2,1.38-.09.35.2.11,1.38-.02.42.11.22.53.07,1.18-.59,3.66.04,1.79,1.01,1.42,1.01-.55,1.14-.92.96-1.07.48-1.01-.2-.96-.98-2.63-.11-.53.24-.22-.11-.53-.37-1.01.17-.77.42-.44.55-.33.63-.53.74-.13.77.7.46,1.12-.17,1.12,1.18-.37,1.36-.13-.28-.81-.24-2.39.02-.88-.11-.55-.26-.31-.09-.26.46-.44.37-.02.15.48-.02,1.09,1.9-.55.5.98-.11,1.4v.7l1.68.42.42,1.05-.02,1.49.24,1.66.92,1.01,1.36.2,1.22-.61.55-1.38-.28-.7-1.36-1.12-.44-.48-.04-.59.11-1.42-.07-.53-.33-.37-.5-.33-.48-.57-.39-1.64-.48-.77-.57-.63-.52-.26-.61-.15-.5-.37-.26-.5.15-.5.5-.39.55-.07.63.02.85-.11.42.04.28.24h.37l.68-.53.17-.33.09-.42-.02-.37-.24-.18-.26-.37.28-1.82-.02-.61-.46-1.55.61-1.27.98-.28.66,1.36h.5l-.02-.77.09-.61.17-.59.26-.61.44.94,1.71,1.93.85,1.18.22-.55.15-.15-.04-.18-.33-.59.59-.18.66.02.66.24.66.42-.2.68.48.72.83.42.94-.28.48,1.44-.02.61,1.38-.7.31-1.12.11-1.12,3.84,1.29,2.3,3.14,12.54,2.09-3.97,7.53,12.96,7.53-1.88,5.65,6.48,5.44-6.41,17.67-2.4.48-4.63,2.24-2.2,1.8-1.75,2.03-1.2,2.48-2.34-.24-1.92-1.58-.64-2.78-2.24-1.55-2.83.81-2.31,1.85-3.21,4.14-1.57,4.97,1.05,7.59,1.31,7.33-1.04,5.76-6.79.52-7.58,1.05-7.84,3.67-6.53,5.76-4.18,6.28-1.05,4.71,1.02,5.2-2.93,4.44-1.04,2.26.59,1.36,1.43.88.89,1.96.41,2.09-5.13,2.54-7.17-.78-3.02.83-1.91,2.39-.77,3.14-1.7,2.61Zm37.37-144.35l-.52.57-2.78,2.21-1.14.5-.87-.44-.57-1.01-.2-1.12.2-1.12.79-1.66-.02-1.03-.46-.77-1.49-1.27-.59-1.01,1.01-.83-.59-.44-1.44-.07-1.51.37-.5-2.6,1.07.22.81-.57.5-1.01.2-1.16-1.66.57.2-1.9,1.46-3.81h.46l.07,1.49.79.52.9.42.33.63.85,2.08.28,2.34.66,1.97,2.01.81.87.07-.04.35-.42.77-.15,1.33.37,1.09.7,1.03.52,1.09-.09,1.36Z"/>
  <path class="cls-2" d="m349.25,227.32l-2.13-.3-1.7.93-.97,1.79-2.04.05-2.54-1.05-2.66-.19-1.5-.43-1.14-1.08-1.44-.58-1.69.5-2.37-.05-2.43-.66-2.02-1.44-1.52-2.05-1.97-1.22-2.36-.32-4.46-.14-5.57-1.9-2.55.07-2.46.39-1.47-1.15-.34-1.9-4.15-.95-4.28,1.08-2.05.73h-5.05s-4.15-1.07-4.15-1.07l-8.59,2.07-6.59,3.12-3.95.19-4.44-.37-3.36-2.82-3.02-1.01-3.57,1.54-5.3-1.15-1.28.65-1.06,1.08-4.77,2.06-4.08,1.35.81,4.26-1.09,4.08-1.78.28-.84,1.35-1.27,1.13-.54,1.31,1.28,1.52,1.5,1.32,3.32,1.14-1.37,3.96-7.21,2.12-1.78.07-.12-1.25.08-1.4-.8-2.11-1.4-1.48-2.46-1.14-2.61,1.6-1.96.31-1.18,1.92-.5,2.93.5,2.81-.26,1.61-1.15.9-1.9,2.4-2.67.56-2.98-1.42-2.82-1.74-6.06-1.9-6.17,1.2-6.09,4.65-5.53,2.58.56-2.84.21-3.08-1.06-3.68-.3-3.84.19-4.04-.53-3.83-2.17-2.07-2.49-1.8-6.6-1.36-8.68-2.67-1.02-5.2,1.05-4.71,4.18-6.28,6.53-5.76,7.84-3.67,7.58-1.05,6.79-.52,1.04-5.76-1.31-7.33-1.05-7.59,1.57-4.97,3.21-4.14,2.31-1.85,2.83-.81,2.24,1.55.64,2.78,1.92,1.58,2.34.24,1.2-2.48,1.75-2.03,2.2-1.8,4.63-2.24,2.4-.48,1.63,2.19.62,2.76-.55,4.14.03,3.8,2.63,1.99,5.95,3.62,2.77.1.08-2.06-1.73-.28-.35-2.34,1.04-2.81.53-2.05,2.14.13,2.19-1.04,1.12-2.34,1.5-.89,1.93.55,2.44-.78,2.15-.44,2.3,1.73,2.1,2,1.18,2.73,2,1.56,2.43.73,2.3,1.17,1.52.19,1.39.63,1.46,1.43,1.75,1.02,4.9-2.3,2.82-5.52,2.58-.92,2.78.67,3.19-.44,2.92-.85,4.05-2.45,3.86.45,3.54,3.15,5.31,4.93,6.49,3.15,3.74.99,2.75-.59,2.56-1.38,2.16.99,2.16,4.14,3.54,2.17,5.51.59,6.89.2,6.1,1.77,2.36,3.94,2.56,8.48,3.15,7.3,4.13,5.32,3.15,2.96,3.56,2.57-1.88,2.02-4.51,1.17-2.83,2.44Z"/>
  <path class="cls-2" d="m370.89,713.94h.16s1.92-.37,1.92-.37l.92.2.86.57,2.33-.15,2.1-.95,6.42-4.15,3.43-4.84,5.48-2.7,6.37-4.95.38-4.96,1.77-1.95,2.51-.91,2.72.02,2.67-.56.94-2.54,6.25-8.72-.71-4.94-2.94-4.31.23-3.68-1.13-2.69-1.64-1.55-1.37-2.04.71-2.06,2.46-1.34,5.41-2.24,7.23-7.74,4.81-2.6,6.46-6.02,2.82-1.84,2.23-2.33,2.83-1.79,3.41-1.64,2.67-1.95,2.23-2.15,3.01-.72,2.9-1.12,4.38-4.13,4.77-5.4.26.71-.48.71.02,1.24.35,1.53.25,5.36.84,2.65,1.28,2.51-1.14,3.78-3.01,2.75-1.13,2.31-.3,2.38.69,1.59-.52,1.58-2.55,3.17-3.28,5.22-1.43,1.19-1.64.1-1.19.98-.48,4.57,3.23,2.51,10.35-.39,2.67.4,2.63-.18,1.24-1.58.69-2.04,3.35-2.95,3.27-.93-.21.95.54.57.68-.19.4.63,1.98,1.19,6.48-1.67,4.53.77,6.15-.89.43-.33,1.92-2.02,3.29-4.68.67-1.88-.03-3.39,1.54-.44.84-.42.97,2.11-.08,2.44,2.31,5.73,2.99,5.5-2.32,6.09-4.05,5.32,1.88,3.58,5.04-.14,6.87-3.8,5.96-5.21,4.28-5.13,4.94-4.46,5.86-3.73,2.39-1.07,6.62-4.96,5.53-1.63-1.01,4.5-1.77,4.38-3.25,4.69-5.67,6.29-6.15,5.61-1.89,4.13-.51,4.59.28,5.49-.22,5.43,3.67,3.15,17.95,6.92,41.24,10.12,3.48,2.53,2.24,1.27,2.02,1.61,1.83,3.06.8,1.78.5,1.67,1.91,3.34,1.06,3.55,1.27,1.95,1.65,1.87,3.7,6.88,2.33,15.37,5.13,17.87h0s-1.68-.02-1.68-.02l-4.24.73-.7.74-.66.17-3.02.19-1.23.3-4.67,2.66-.51.66-.19,1.11-1.14,3.42-.7.92.11,1.36-1.78,3.19-.39,1.7.3,1.01.45.93.14.93-.61,1.01-.93.83-1.54,1.09-5.4,2.39-3.31,2.66-1.38.79-1.59.28-2.36.02-1.61.31-2.69,1.43-1.55.33-.9.41-.58.94-.42,1.05-.41.75-.62.54-.5.27-1.41.24h-1.7l-3.68-1.04-.61-.31-1.32-1.4-.86-.41-.7.05-.58.28-.58.38-.72.33-2.66.29-3.24-.35-6.31-1.44-2.61-1.26-2.59-2.19-2.02-2.54-.89-2.34-1.17.69-.66.5-.7.31-6.87.62-1.1-.21-1.84-1.2-1.47-.11-.71-.36-1.26.42-3.36,4-2.06,3.05-.67.63-.85.45-2.74,1.05-.72.6-.4.49-.54.34-1.98.22-1.11.38-4.66.75-1.28-.14-1.87-.93-.41-.16-.47-.4-.45-1.78-.58-.41h-8.67l-.35.16-.38.35-.51.35-2.33.35-2.7.78-1.09.12-.77-.22-1.15-.71-.89-.16-3.06.53-.85-.6-.67-1.37-.22-1.56.48-1.14-.5-1.51-.17-1.72-.41-1.42-1.2-.58-.68-.16-.51-.39-.48-.51-.62-.49-.71-.31-1.64-.43-.73-.3-2.71-1.68-1.55-.7-1.07.07-1.44.42-1.39-.74-.67-1.43.71-1.69-1.28-1.56-.99-.49-2.8.03-.48-.13-2.1-.9-3.04-.56-.98.67-2.32,2.94-1.31,1.03-3.73.68-1.37.81.58,1.66-.9.59-.82,1.01-.62,1.05-.52,1.56-.74.48-4.01,1.06h-.08s-1.74.98-1.74.98l-1.22-.31-1.2-.48-.81.06-.09,1.3-.84-.27-.34-.42-.19-.52-.4-.57-.66-.51-.35-.04-.29.17-.48.14-.02.07-.99.4-.32.03-1.83-.09-.69-.23-.49-.49-.13-.42-3.1.09-30.98-.31-.12-.66v-3.93l-.17-1.1-.37-.89-.35-.68-.17-.45-.31-.56-.7-.6-.7-.8-.64-2.05-1.39-1.16-.31-.57-.56-1.56-1.39-1.26-1.8-.95-3.21-1.09-.61-.08-.55.2-.94.83-.49.05-.48-.58-1.64-3.08.45-.23.64-.5.44-.25v-.47l-1.18-.67-.97-1.11-.66-1.47-.24-1.73-.18-.68-.46-.59-.59-.41-1.34-.34-.35-.48-.23-.67-.39-.74-3.54-3.06-.56-1.33-.22-1.85-.99-3.11-.32-1.55.37-1.91,2.16-2.79,1.37-3.09.16-.78v-3.35l.96-4.73-.28-1.98.45-.64.91-.68-.19-.98-.45-.54-.48-.35-.31-.43-.13-.34-.47-.7.98-1.59-.06-1.65-.71-1.52-1.6-1.9-.2-.45.06-1.45-.21-.88-.51-.15-.64.04-.63-.3-.6-.86-.49-.99-.35-1.05-.07-.59Z"/>
  <path class="cls-2" d="m805.88,709.63l-1.18,2.19-2.36,2.38-2.66,1.92-4.81,1.69-2.81,2.11-4.39,4.37-1.4,1.84-.87.85-2.07.77-9.29,7.3-1.41.74-7.66,3.29-7.44,5.15-1.88.8-12.46,2.74-5.73.43-1.27.42-1.17.65-14.56,11.73-1.73.95-1.87.56-1.97-.02-1.57-.58-3.02-1.66-1.75-.35-2.29,1.04-2.57.51h-9.71s-2.51.57-2.51.57l-1.99,1.74-1.31.92-1.55.39-.98.63-2.96,2.83-1.36.72-.82-.03-1.6-.38-.89-.09-.81.16-1.5.7-2.21.6-1.19,1.02-1.67,2.12-7.32,4.99-1.85,2.3-.04-.02-2.18-1.28-5.89-1.49-2.63-1.35-4.1-4.33-2.66-1.86-3.43-.54-.74.2-1.64.69-.85.15-.88-.24-1.46-1.07-.72-.24-.24-.15-.39-.7-.13-.19h-.45s-.38.19-.38.19l-.23.22v.12h-.58s0-.02,0-.02l-5.13-17.87-2.33-15.37,13-.93,2.61-1.76,3.65-5.53,4.6-4.68,19.74-8.19,6.65-.52,2.34-1.14,2.53.08,2.15,1.51,2.89.82,5.19-.43,1.37-1.55,2.03-1.49,5.74-2.64,3.45-1.15,6.16-3.45,3.01-1.26,2.44.52.49,2.39.92,2.02,3.29-.66.75-3.18.83-1.74,2.39.15,2.3-1.12,1.9-2.13,1.87-.31,1.82-.06,5.7,3.65,2.46,6.92,1.05,1.35,1.2.8,2.16,5.29,3.03,1.62,2.46-2.3,1.74-2.66-.4-2.7-1.91-1.64-.04-2.03,1.28-2.92.48-3.23,1.9-2.52,3.11-1.14,12-6.85,2.59-1.98,2.38-1.49.03.96.62,2.26.76-.9.38-1.24v-1.31s-.36-1.16-.36-1.16l-.67-1.52.16-.64.88-.09,1.42.21,1.08.32,2.3,1.01,1.45.34,2.97,1.08.36-.09.22.11.24.82-.14.98-.49,1.01-.24,1.11.61,1.27.22.7-.55.38-.72.32-.22.47.39.61.39.04.39-.17.36-.06,1.24.77.58.12.25-.6.05-.79.23-.44.46-.09.78.33.91.63,1.72,1.54.92.64v-.69s.11-.48.11-.48l.2-.41.19-.53.59.41.44.11.45-.14.6-.37-1.26-.37-3.85-1.64,2.53-3.14.99.32.43.85.22,1.05.39.92.65.53,1.67.81.77.66.4.67,2.39,5.38.75.7.19-.13,2.5.5.36.14,2.4-.7.34-1.49-.89-1.17-1.31.26-.34-.89.25-.65.68-.38.94-.14.69.26.33.62.25.77.44.67.65,1.36-.68,1.21-1.23,1.14-.95,1.19.47-.04.99.08.47-.04-.8,2.56-.11.83.2.57.42.57.34.7-.05,1Z"/>
  <path class="cls-2" d="m720.31,547.3l.6,1.22.61,1.97.33,2.09.1,2.29-.5,4.35.23,2.11,2.48,2.55.93,1.74.65,1.93.31,1.7-.13,6.27-.42,1.47,2.6.74.44.47.21.6.3.53.81.23,1.49.11.45.44.04.93.31,1.59.65,1.23.82.56.89.39.96.67.63,1.05.85,2.63.82,1.21,2.09,1.59.45.69-1.04.29-.88-.06-.53-.18-1.09-.84-.14-.16-1.43-1.33-1.5-1.85-1.13-.66-1.43.2-.83.34-.44.12-.31.21-1.5,2.15,1.12.43,4.48-.43-.99,1.22-.25.78.57.43,1.45.13,1.26.4v1.05s-.42,1.49-.42,1.49l-.1,1.68.18.28.66.51.17.28.02,1.42-.02.12-.4.76-.06.27.16.18.35.13.34.23.17.45-.22.72-.43.49-.3.54.15.83.54,1.21v.57l-.31.75,1.05-.23,1.28-.61,1.2-.76.82-.69.89-.06,1.08.99,3.2,4.07,1.27,2.16.36,2.32-1.17,2.37-.05.53.44.62.56.62.33.56v.84l-.41,1.51-.1.73.24,2.5-.25.9-1,1.27-1,.88-.65.15-.73-.11-1.18.12-.92.43-.38.7.02,1.05.24,1.46.66-.33.85-.15,1.54-.07.18-.83.37-.32.73.37.47.5.25.2.31.07.82.35.12.78-.16.86-.02.58.51.69,1.78,1.64.63,1.48.88,4.11.78,1.14,1,.71-.19.48-.59.47-.17.63.37.82.36.52.99.98.42.82-.25,1.53.68,1.46-.6.49-1.5.58-1.25,1.19-.33.64.6.28,2.95-.07.56.07.24.54.59,2.04.47.77,1.22.9.58.56.5.86.5,2.14-.54,1.54-1.4.74-2.15-.26.63,1.02,2.12,1.64.07.66-.8.53-2.56,1.09-2.28.56-.04.87.94,1.91-.15,1.41-.54,1.06-.86.85-1.09.79,1.91-.35,3.47-4.22,1.52.17.99.56,2.22-.16,1.58,1.59.98.13,1.09-.05,1,.18,1.85,1.43,4.5,7.51.11,3.39-2.38,1.49-2.59,1.98-12,6.85-3.11,1.14-1.9,2.52-.48,3.23-1.28,2.92.04,2.03,1.91,1.64.4,2.7-1.74,2.66-2.46,2.3-3.03-1.62-2.16-5.29-1.2-.8-1.05-1.35-2.46-6.92-5.7-3.65-1.82.06-1.87.31-1.9,2.13-2.3,1.12-2.39-.15-.83,1.74-.75,3.18-3.29.66-.92-2.02-.49-2.39-2.44-.52-3.01,1.26-6.16,3.45-3.45,1.15-5.74,2.64-2.03,1.49-1.37,1.55-5.19.43-2.89-.82-2.15-1.51-2.53-.08-2.34,1.14-6.65.52-19.74,8.19-4.6,4.68-3.65,5.53-2.61,1.76-13,.93-3.7-6.88-1.65-1.87-1.27-1.95-1.06-3.55-1.91-3.34-.5-1.67-.8-1.78-1.83-3.06-2.02-1.61-2.24-1.27-3.48-2.53-41.24-10.12-17.95-6.92-3.67-3.15.22-5.43-.28-5.49.51-4.59,1.89-4.13,6.15-5.61,5.67-6.29,3.25-4.69,1.77-4.38,1.01-4.5,5.8-18.26,1.21-2.07.88-2.24.64-4.78,3.42-2.85,4.14-1.33.53-2.94-2.2-3.23.64-4.69-1.97-4.88.04-2.5-1.05-6.81.48-2.19,3.22-6.61,1.72-5.77.22-1.67.04-1.59-.3-.95-1.28-2.31.59-2.2,1.5-1.94,1.51-1.53,1.28-1.74,2.11-3.86,1.43-1.83.45-.29,1.06-.37.54-.38.37-.54.35-1.06,1.09-1.52.9-2.17,2.57-4.09.58-.64,1.04-.47,1.35-.38,1.17-.61.5-1.15.23-1.17.57-.98,1.89-2.22.24-.48.1-.53.02-.75.17-.67.41-.45.5-.41.45-.52,1.51-2.62.84-1.05,1.19-.99,1.93-1.08.61-.5.48-.66.74-1.46.48-.6,10.38,7.93,3.77,2.31,8.8,3.08,9.16,2.01,4.13,2.11,6.83,6.03,3.62,2.49,5.49,5.27,1.21,7.11,1.21,3.05,4.23.13,3.45-2.1,1.58-4.15,1.92-3.13,5.18-1.16,1.43.44.71,1.11,1.24.43,4.64-.99,9.24-3.11,14.42-3.17,3.71-.12,2.76,2.2,1.06.39Z"/>
</svg>