<?xml version="1.0" encoding="UTF-8"?>
<svg id="Layer_1" data-name="Layer 1" xmlns="http://www.w3.org/2000/svg" xmlns:xlink="http://www.w3.org/1999/xlink" viewBox="0 0 777.12 775.12">
  <defs>
    <style>
      .cls-1 {
        stroke-width: 5px;
      }

      .cls-1, .cls-2 {
        fill: none;
        stroke: #231f20;
        stroke-miterlimit: 10;
      }

      .cls-3 {
        fill: url(#linear-gradient);
      }

      .cls-3, .cls-4, .cls-5, .cls-6, .cls-7 {
        stroke-width: 0px;
      }

      .cls-4 {
        fill: #66baff;
      }

      .cls-5 {
        fill: #1ab752;
      }

      .cls-6 {
        fill: #014b8f;
      }

      .cls-2 {
        stroke-width: 7px;
      }

      .cls-7 {
        fill: #001725;
      }
    </style>
    <linearGradient id="linear-gradient" x1="620.71" y1="285.33" x2="280.81" y2="523.51" gradientUnits="userSpaceOnUse">
      <stop offset="0" stop-color="#f57d23"/>
      <stop offset=".18" stop-color="#f59722"/>
      <stop offset=".55" stop-color="#f7c622"/>
      <stop offset=".84" stop-color="#f8e322"/>
      <stop offset="1" stop-color="#f9ef22"/>
    </linearGradient>
  </defs>
  <g>
    <polygon class="cls-4" points="156.25 78.34 155.74 79.33 155.42 80.3 155.4 81.3 155.76 82.31 156.16 82.65 157 83.19 157.83 83.47 158.18 83.05 159.49 82.39 159.74 81.97 158.46 81.76 157.49 81.53 156.9 80.85 156.65 79.93 156.73 78.89 156.25 78.34"/>
    <polygon class="cls-4" points="726.49 503.59 724.53 505.97 723.68 507.51 723.25 509.38 723.68 510.57 724.87 510.66 727 508.7 729.98 505.38 730.75 504.44 730.4 503.42 728.79 503.33 726.49 503.59"/>
    <polygon class="cls-4" points="734.92 482.08 734.35 483.16 733.85 485.01 733.19 485.57 731.66 486.21 730.36 487.13 729.6 487.53 728.74 487.74 728.74 488.19 730.59 487.99 731.27 488.1 731.66 488.68 730.44 488.93 728.2 489.97 727.01 490.21 725.7 490.2 724.58 490.35 723.76 490.91 723.35 492.12 724.02 492.94 722.98 494.59 719.89 497.59 719.49 497.72 719 497.69 718.59 497.82 718.43 498.36 718.32 498.38 718.09 498.85 717.9 499.37 717.89 499.57 717.28 499.82 716.07 499.86 715.4 500.02 716.56 500.91 718.45 502.93 719.89 503.52 721.08 503.49 722.53 503.16 725.36 502.04 726.05 501.06 726.48 499.41 727.39 497.84 729.47 497.16 731.45 497.75 732.3 497.75 732.65 496.88 732.78 496.37 733.4 495.52 733.62 495.14 734.11 493.65 734.2 493.18 734.19 492.72 734.33 492.19 735.29 490.88 737.32 486.19 738.47 481.32 738.58 479 737.49 477.78 737.35 478.5 736.62 480.37 736.27 480.74 735.64 481.14 734.92 482.08"/>
    <polygon class="cls-4" points="688.48 353.79 688.27 353.4 687.72 352.66 687.51 352.28 687.2 352.81 687 353.54 686.93 354.39 687.02 355.26 686.7 359.31 687.54 362.13 688.03 363.77 688.61 367.93 686.04 371.08 686.67 372.38 687.59 375.61 688.26 376.74 691.87 380.92 692.04 381.21 692.28 381.49 692.93 381.9 693.59 382.19 693.87 382.16 693.98 382 694.15 381.9 693.38 381.07 693.13 379.45 693.44 378.32 694.4 378.99 694.32 378.6 694.38 378.28 694.33 378.07 693.91 378.01 693.91 377.48 694.88 376.95 695.43 377.4 696.06 377.93 698.31 381.41 700.17 383.39 700.58 384.49 700.26 385.88 702.26 386.62 702.61 386.23 702.7 384.61 702.26 383.63 701.59 382.68 701.58 381.9 703.19 381.41 703.02 382.49 704.43 388.63 705.13 390.07 706.1 391.34 707.14 392.27 709.77 393.04 712.33 392.18 714.14 390.02 714.47 386.9 712.54 383.49 712.27 382.84 710.95 372.32 710.31 370.27 709.06 368.63 708.91 370.2 709.25 372.34 709.23 373.84 708.08 373.54 707.99 373.82 707.99 373.95 707.91 373.99 707.58 374.03 707.22 373.15 706.65 373.21 706.18 373.91 706.12 374.98 705.41 374.35 704.87 373.54 704.22 373.1 703.19 373.54 703.43 372.73 703.8 372.14 704.66 371.08 704.14 370.2 703.85 369.39 703.71 368.52 703.68 367.37 703.83 366.4 704.14 365.51 704.32 364.63 704.17 363.66 702.65 363.42 702.21 363.17 701.42 359.87 701.34 359.74 700.04 357.61 699.72 356.49 699.59 355.43 698.96 353.38 698.74 352.28 698.77 351.15 699.27 348.12 698.84 345.6 696.65 341.65 695.81 339.45 694.51 340.75 694.01 346.08 693.42 348.34 692.24 349.72 689.68 351.85 688.48 353.79"/>
    <polygon class="cls-4" points="688.72 343.69 688.92 345.17 688.72 347.19 688.58 348.47 688.72 349.5 689.51 349.55 690.4 349.35 690.4 347.93 689.95 346.99 690.45 346.25 689.85 345.37 689.51 344.09 689.56 343.1 688.72 343.69"/>
    <polygon class="cls-4" points="715.7 318.92 716.33 319.84 717.42 321.14 718.68 322.14 720.6 322.01 720.77 321.13 720.06 320.21 718.97 319.92 717.84 319.5 717 318.21 716.24 317.16 715.19 316.49 714.56 316.16 714.1 317 714.86 318.04 715.7 318.92"/>
    <polygon class="cls-4" points="720.86 318.87 723.35 318.79 723.87 319.64 724.46 319.52 725.22 319.04 726.24 318.79 726.24 319.32 725.61 319.72 725.36 320.18 725.56 320.45 726.24 320.26 727.26 319.62 728.06 318.87 728.44 318.07 728.2 317.31 728.54 316.94 728.79 316.52 729.27 315.35 729.66 315.35 729.31 316.63 729.73 317.21 730.36 317.04 730.68 316.09 730.71 314.88 730.82 314.42 731.11 314.12 731.66 313.34 733.79 306.99 734.64 305.98 734.11 305.45 734.62 304.29 734.64 300.9 734.64 300.05 735.13 297.29 735.02 296.03 734.11 295.63 733.99 295.99 734.12 296.69 734.06 297.37 733.4 297.68 733.34 297.29 732.65 295.14 732.88 293.78 733.32 292.37 733.54 290.98 733.19 289.7 734.16 289.22 735.43 288.22 736.24 286.92 735.43 284.23 735.61 282.51 735.61 281.05 734.64 280.41 734.78 281.35 734.63 282.71 734.21 284.15 733.62 285.33 733.51 284.92 733.26 284.38 733.19 283.85 732.34 284.72 732.33 285.53 732.6 286.22 732.65 286.79 732.18 287.36 731.88 287.09 731.71 286.37 731.66 285.55 731.06 284.99 727.76 283.09 727.51 282.76 726.36 281.61 726 281.36 725.56 281.64 725.41 282.23 725.14 282.76 724.35 282.87 724.28 282.55 724.04 281.86 723.65 281.18 723.09 280.87 722.88 280.79 722.67 280.58 722.5 280.29 722.34 279.92 722.25 281.01 721.82 283.02 721.85 283.85 722.66 284.84 723.82 285.46 724.62 286.13 724.35 287.29 723.1 286.54 722.13 286.88 721.75 287.92 722.33 289.25 723.35 288.76 723.05 289.5 722.06 290.3 721.85 290.99 724.17 291.88 724.79 292.24 725.24 292.96 725.3 293.58 724.92 293.83 724.07 293.43 723.53 293.49 723.16 294.25 723.06 295.27 723.35 296.12 723.09 296.55 722.98 296.88 722.82 297.68 723.67 297.22 724.39 297.24 724.95 297.6 725.36 298.13 725.16 298.59 724.79 300.05 725.76 299.05 726.52 299.43 726.79 300.61 726.24 302.01 726.78 302.54 725.45 302.59 723.02 302.22 722.33 302.01 721.65 302.34 721.17 302.2 720.66 301.83 719.89 301.51 720.43 302.44 721.24 303.18 722.11 303.45 722.82 302.99 726.08 305.05 727.83 305.54 729.27 305 728.78 306.45 728.07 306.66 726.78 305.98 725.65 306.04 723.94 306.49 722.82 306.48 723.27 307.1 723.84 307.5 724.54 307.76 725.36 307.95 724.67 308.62 723.4 308.83 721.99 308.73 720.87 308.44 721.28 309.55 722.78 311.39 723.35 312.41 720.84 311.98 719.94 312.13 720.38 312.9 719.72 313.89 719.44 315.04 719.41 317.56 719.82 318.53 720.86 318.87"/>
    <polygon class="cls-4" points="202.81 98.57 203.21 99.79 203.38 101.24 203.87 102.45 204.65 102.74 205.41 102.59 206.1 102.13 206.78 101.43 207.51 101.58 208.57 101.03 209.47 100.06 209.75 98.95 209.47 99.09 209.43 99.18 209.39 99.26 209.24 99.47 208.95 98.33 209.51 97.22 210.32 96.01 210.72 94.62 210.42 92.96 209.79 92.85 209.01 93.25 208.23 93.1 207.79 93.1 208 95 208.23 95.61 206.27 95.87 205.57 95.13 205.78 92.09 205.34 92.09 204.86 92.91 204.25 92.96 203.66 92.47 203.34 91.65 201.46 97.13 201.63 98.04 202.81 98.57"/>
    <polygon class="cls-4" points="170.3 93.38 170.95 93.61 171.23 94.75 170.49 95.72 169.48 96.61 169.04 97.51 169.86 97.05 170.13 97.24 170.24 97.7 170.47 98.04 170.53 98.25 170.47 98.55 170.45 98.82 170.7 98.95 170.97 98.88 171.33 98.74 171.56 98.59 171.48 98.5 172.55 98.5 173.78 98.25 174.98 97.77 175.88 97.07 177.3 93.61 177.4 92.54 177.13 91.75 176.58 91.63 175.88 92.62 175.44 92.62 175.55 91.94 175.76 91.31 176.01 90.72 176.37 90.17 175.88 90.68 175.59 90.32 175.48 90 175.44 89.2 174.14 89.35 172.98 90.03 171.8 90.89 170.47 91.65 169.44 92.07 168.78 92.47 168.51 93.1 168.78 93.57 170.3 93.38"/>
    <polygon class="cls-4" points="162.27 92.94 162 90.68 161.18 88.68 160.86 88.06 160 87.66 159.24 87.16 159.17 85.72 158.73 85.72 157.32 89.39 157.13 91.23 158.73 90.68 158.54 91.8 158.06 92.77 157.28 93.32 156.25 93.1 156.73 95.61 158.18 95.26 159.57 95.32 160.14 95.74 159.17 96.54 159.74 97.51 161.18 98.74 161.62 99.47 161.64 100.46 160.88 102.07 160.69 103.14 160.88 104.22 161.43 105.19 162.27 105.61 163.37 105.13 166.04 103 166.55 102.45 166.63 101.14 166.13 100.08 165.45 99.09 165.1 98.04 165.24 96.75 165.64 96.01 165.69 95.68 164.84 95.61 162.9 94.83 162.27 92.94"/>
    <polygon class="cls-4" points="776.47 675.21 777.12 674.04 776.5 672.73 776.08 672.08 775.84 671.34 775.52 670.74 774.86 670.49 773.95 670.62 773.3 670.99 773.06 671.62 773.39 672.48 774.65 672.22 775.5 673.35 775.17 674.79 772.86 675.46 772.52 675.33 770.1 674.84 769.92 674.97 769.2 674.29 766.89 669.11 766.5 668.46 765.76 667.82 764.16 667.04 763.53 666.53 763.15 665.64 762.93 664.63 762.52 663.81 761.57 663.5 759.13 666.53 762.84 668.11 764.06 668.46 763.48 668.83 763.05 668.96 762.62 668.85 762.06 668.46 761.87 668.98 761.68 669.37 761.56 669.83 761.57 670.49 760.68 669.88 759.02 668.39 758.15 667.79 757.4 667.48 756.96 667.56 756.73 667.98 756.68 668.74 756.44 669.32 755.88 669.2 754.68 668.46 754.34 668.52 753.96 668.68 753.59 668.64 753.22 668.06 753.43 667.61 754.13 667.3 754.66 666.93 754.44 666.26 753.85 665.04 754.08 663.97 754.55 662.99 754.68 662.05 754.45 661.26 754.24 661.15 753.89 661.24 751.03 660.19 749.63 659.86 747.41 658.89 746.37 658.58 745 658.38 744.15 658.47 743.99 659.08 744.64 660.54 745 661.66 744.99 662.93 744.62 664.12 743.89 664.99 743.3 662.81 743.27 661.89 743.16 658.62 738.82 651.38 737.04 650.01 736.08 649.83 735.03 649.88 734.09 649.75 732.57 648.22 730.43 648.37 729.47 647.83 728 647.68 724.66 651.74 722.82 652.08 723.87 651.31 724.7 650.49 725.22 649.47 725.36 648.11 724.46 646.27 724.5 645.44 726.7 644.9 729.17 643.84 729.94 643.33 729.87 642.69 727.83 641.11 727.22 640.13 729.3 640.38 730.64 639.67 731.16 638.18 730.68 636.12 730.21 635.29 729.65 634.75 728.47 633.89 728.02 633.14 727.46 631.18 727.22 630.66 726.69 630.59 723.84 630.66 723.26 630.39 723.58 629.77 724.79 628.62 726.23 628.07 726.82 627.6 726.16 626.19 726.41 624.71 726 623.92 725.05 622.97 724.7 622.47 724.35 621.69 724.51 621.08 725.08 620.63 725.27 620.16 724.3 619.48 723.55 618.38 722.7 614.42 722.1 612.99 720.38 611.41 719.89 610.74 719.91 610.18 720.07 609.35 719.95 608.6 719.16 608.26 718.86 608.19 718.62 607.99 718.16 607.52 717.46 607.16 717.1 607.46 716.92 608.26 715.44 608.33 714.63 608.48 713.99 608.8 713.76 607.39 713.74 606.38 714.11 605.71 715 605.29 716.14 605.18 716.84 605.28 717.47 605.14 718.43 604.3 719.39 603.07 719.63 602.2 719.41 599.79 719.5 599.09 719.89 597.63 719.89 596.82 719.58 596.28 719.04 595.68 718.62 595.08 718.67 594.57 719.8 592.29 719.46 590.05 718.23 587.97 715.15 584.04 714.12 583.09 713.25 583.15 712.46 583.81 711.31 584.54 710.07 585.13 709.06 585.35 709.36 584.62 709.36 584.07 708.83 582.91 708.69 582.11 708.97 581.59 709.39 581.12 709.6 580.42 709.43 579.98 709.11 579.76 708.77 579.63 708.62 579.45 708.67 579.19 709.06 578.46 709.08 578.34 709.06 576.97 708.9 576.7 708.26 576.21 708.08 575.94 708.17 574.32 708.59 572.89 708.58 571.88 707.36 571.49 705.97 571.37 705.41 570.95 705.65 570.19 706.6 569.01 702.28 569.43 701.19 569.01 702.65 566.94 702.94 566.73 703.36 566.62 704.17 566.29 705.54 566.1 706.63 566.74 708.08 568.52 709.46 569.8 709.6 569.96 710.64 570.76 711.16 570.94 712.01 570.99 713.01 570.71 712.58 570.05 710.56 568.52 709.78 567.35 708.95 564.82 708.34 563.8 707.42 563.15 706.56 562.78 705.77 562.24 705.14 561.05 704.84 559.52 704.81 558.63 704.38 558.2 702.94 558.1 702.16 557.87 701.87 557.36 701.67 556.79 701.24 556.33 698.74 555.62 699.14 554.21 699.27 548.16 698.98 546.52 698.35 544.66 697.45 542.99 695.07 540.53 694.85 538.49 695.32 534.29 695.23 532.09 694.92 530.08 694.33 528.18 693.75 527 693.42 526.33 694.48 525.93 695 525.3 694.96 524.46 694.4 523.4 695.08 523.61 695.67 524.05 696.84 525.34 697.27 523.98 697.28 523.4 698.31 523.85 698.11 522.58 698.27 519.99 697.77 518.92 698.33 518.82 698.56 518.7 698.78 518.68 699.27 518.92 700.32 516.94 702.7 510.44 705 506.76 705.9 504.72 706.12 502.49 705.76 502.84 704.66 503.52 704.34 502.23 704.27 499.41 703.5 496.88 703.6 495.99 704.66 493.65 705.12 491.87 704.89 490.85 702.94 488.94 701.68 488.06 700.46 487.92 697.77 488.19 698.91 487.12 698.8 486.08 697.94 485.1 696.84 484.19 696.23 486.52 695.21 488.91 693.65 490.71 691.45 491.2 694.64 487.46 694.99 486.19 693.91 483.55 694.15 482.53 694.58 481.45 694.33 480.1 693.42 477.78 693.12 476.29 693.04 474.81 694.3 466.85 695.13 464.12 697.02 462.37 697.79 461.05 698.42 459.57 698.74 458.51 698.73 456.96 698.25 456.04 697.54 455.24 696.84 454.07 697.72 454.02 698.85 454.09 699.84 453.9 700.26 453.09 700.06 452.52 699.74 451.88 699.67 451.34 700.23 451.12 700.83 451.05 701.28 450.87 702.21 450.13 703.04 449.14 703.35 448.08 703.52 446.92 703.92 445.63 704.49 444.87 704.57 444.77 707.58 442.66 707.82 443.88 708.34 444.52 709.01 444.54 709.81 443.91 710.23 443.06 710.77 441.11 711.49 440.19 712.57 440.29 712.64 438.39 712.03 433.79 712.2 433.33 712.58 432.95 712.93 432.51 713.01 431.82 712.78 431.32 709.36 426.77 708.76 424.64 707.44 422.9 707.14 421.91 706.62 421.5 704 421.53 702.94 421.15 702.05 420.65 699.88 420.45 698.78 420.16 696.74 418.92 695.71 418.52 694.4 418.44 694.72 419.03 694.83 419.59 694.88 420.9 693.44 419.54 693.4 416.99 693.73 414.18 693.42 412.09 692.26 413.33 690.97 412.37 689.91 410.4 689.46 408.6 689.36 407.69 689.08 406.75 688.6 405.94 687.99 405.4 686.78 404.67 686.14 404.01 685.06 402.15 684.51 401.54 682.62 400.18 680.26 397.33 676.3 393.57 674.81 392.9 672.76 392.27 674.16 393.21 675.32 393.66 675.94 393.93 676.01 394.51 675.24 394.78 674.51 394.51 673.73 394.06 671.75 393.96 670.84 393.79 670.52 393.45 670.31 392.95 670.07 392.48 669.58 392.27 668.64 392.22 668.28 392.07 667.87 391.78 667.29 391.16 666.82 390.42 666.51 389.61 666.4 388.83 666.09 388.13 665.35 387.64 664.47 387.19 663.69 386.62 662.79 384.82 662.55 380.78 662 378.99 662.85 377.94 663.35 376.39 663.53 374.66 663.25 371.94 663.12 371.5 662 370.55 660.42 369.53 660 369.12 659.71 368.4 659.02 365.63 658.71 365.16 657.82 364.13 657.56 363.66 657.48 361.92 658.01 360.35 658.69 358.89 659.08 357.06 659.13 356.82 659.41 356.14 659.81 355.52 660.28 355.02 660.58 354.31 660.6 349.68 660.87 348 661.38 346.44 662.97 344.04 664.27 341.37 665.18 340.22 665.87 338.89 665.93 335.54 666.4 334.05 665.42 333.61 667.76 332.11 670.26 328.32 672.32 324.1 673.29 321.24 673.19 320.1 672.69 319.66 672.13 319.39 671.82 318.79 672.03 317.8 672.69 317.24 673.51 316.84 674.26 316.34 675.26 315.01 676.04 313.43 679.14 304.41 678.71 303.53 677.6 304.93 676.82 305.53 676.26 305 676.49 304.49 678.69 301.19 680.11 298.22 680.57 297.6 683.3 295.22 683.59 294.69 683.46 294.02 682.67 292.3 682.62 291.22 680.33 292.16 679.3 292.22 679.42 291.23 680.13 289.84 680.4 289.48 681.02 289.21 682.13 289.56 682.62 289.25 682.83 288.53 682.58 284.45 682.39 283.74 681.15 281.81 682.7 281.92 683.8 280.6 685.06 276.9 685.51 278.16 685.28 279.53 684.82 280.92 684.57 282.34 684.99 283.39 685.91 282.51 688.19 278.63 688.66 277.48 688.93 276.23 689.01 274.71 688.83 273.12 688.21 272.72 687.13 272.63 685.55 271.99 687.51 271.01 688.84 269.77 689.23 267.45 688.77 265.43 687.51 265.08 687.02 264.63 680.94 260.24 674.83 255.83 668.72 251.41 662.61 247 656.5 242.59 650.38 238.17 644.28 233.76 638.17 229.35 632.05 224.95 631.58 224.6 625.95 220.53 619.83 216.13 613.73 211.72 607.62 207.31 601.51 202.9 595.4 198.49 589.29 194.08 585.39 191.27 584.41 189.98 583.69 188.52 582.45 184.1 581.91 182.99 580.91 182.07 579.56 181.42 578.05 181.02 576.51 180.89 573.09 181.09 572.88 180.1 573.45 178.7 573.74 177.52 573.38 176.95 572.2 176.8 571.68 176.28 571.57 175.52 571.76 174.68 572.1 173.88 572.46 173.25 573.5 172.09 575.1 170.82 576.8 169.91 578.16 169.81 578.05 168.53 578.31 167.52 579.02 166.91 580.32 166.81 578.88 158.05 578.73 157.11 577.46 149.33 576.37 147.57 570.46 144.27 560.57 138.74 555.09 135.67 539.72 127.08 524.35 118.5 508.98 109.91 493.62 101.32 478.24 92.74 462.88 84.15 447.52 75.56 432.15 66.98 416.79 58.39 404.67 51.63 401.43 49.81 386.05 41.23 370.69 32.65 366.92 30.54 355.32 24.06 339.95 15.49 324.58 6.9 320.76 4.77 320.6 5.24 318.37 6.71 317.86 6.9 317.63 7.37 317.46 7.87 317.13 8.21 316.62 8.3 314.94 8.21 313.71 8.55 314.03 9.31 314.77 10.21 314.94 10.91 312.83 13.37 311.75 14.13 309.41 15.25 308.34 15.97 307.31 17 306.38 19.34 307.29 20.9 308.93 21.47 310.28 20.92 310.72 20.92 310.57 21.26 310.43 21.72 310.28 21.95 310.28 22.4 311.63 22.75 313.08 23.66 314.22 24.86 314.68 26.08 314.64 26.78 314.43 27.5 313.99 27.94 313.23 27.81 313.12 27.5 313.25 26.95 313.48 26.46 313.71 26.34 312.72 25.37 312.17 25.14 310.72 24.97 309.41 24.21 308.68 23.98 307.08 23.89 302.67 24.38 301.45 23.89 300.61 24.95 301.07 25.98 302.9 27.81 302.61 28.04 302.57 28.17 302.55 28.36 302.42 28.78 303.43 28.44 304.27 28.76 304.93 29.48 305.35 30.26 300.96 28.78 299.81 29.48 299.81 30.34 300.5 31.18 301.45 31.73 302.04 31.77 303.3 31.63 303.89 31.73 304.53 32.05 304.72 32.32 304.84 32.66 305.35 33.23 305.96 34.73 306.23 34.7 306.57 34.62 306.82 34.7 307.64 35.4 307.9 35.82 307.86 36.64 308.95 35.93 309.63 35.67 310.28 35.67 310.87 36.1 311.16 36.75 311.35 37.36 311.5 37.63 312.09 37.8 312.3 38.14 312.09 38.5 311.5 38.65 311.16 38.56 310.66 38.16 310.28 38.12 310.24 38.27 309.96 38.63 309.6 38.96 309.27 39.11 308.63 38.92 307.5 38.33 306.82 38.12 306.17 38.06 304.13 38.12 302.9 37.7 302.33 36.69 301.87 35.55 300.96 34.7 300.65 35.51 300.02 35.53 299.11 35.25 297.97 35.15 297.4 35.34 296.46 36.03 295.82 36.18 295.17 36.03 294.73 35.72 294.39 35.38 294.12 35.15 292.62 34.41 291.65 34.26 290.68 34.7 290.22 35.55 290.6 36.24 291.25 36.88 291.67 37.63 292.73 37.44 292.98 38.18 292.64 39.32 291.93 40.33 290.91 40.75 289.82 40.71 288.72 40.8 287.71 41.56 288.2 41.91 288.79 42.02 289.46 41.89 290.16 41.56 290.28 42.4 290.68 42.84 291.31 42.88 292.16 42.57 293.04 43.81 293.15 44.27 293.11 45.08 292.94 45.24 292.49 45.37 291.67 45.98 292.28 46.28 292.85 46.4 293.46 46.34 294.12 45.98 294.64 46.61 294.79 47.44 294.6 48.28 294.12 48.98 293.65 49.25 293.11 49.38 285.77 49.42 283.18 49.14 282.76 49.38 283.29 50.43 283.73 50.87 285.27 51.86 285.69 52.28 286.09 52.79 286.74 53.87 287.23 53.32 287.88 53.91 289.78 55.22 290.16 55.57 289.78 56.52 288.93 56.75 288.09 56.54 287.71 56.06 285.44 55.51 285.27 55.32 284.49 55.83 284.47 56.27 284.59 56.86 284.3 57.77 283.75 58.55 283.24 58.99 282.59 59.2 281.6 59.24 281.28 59.54 280.76 60.19 280.04 60.84 279.13 61.14 277.58 61.18 276.14 60.97 275.41 60.13 275.93 58.27 271.68 58.21 270.01 58.61 268.07 60.17 267.59 60.97 266.87 63.02 266.7 63.31 266.29 64.03 266.15 64.28 266.09 64.81 266.1 65.29 266.11 65.86 265.86 65.99 265.77 66.04 264.13 67.06 265.95 68.35 266.37 68.64 266.37 68.64 269.13 67.23 271.97 65.25 274.48 65.1 274.67 64.39 275.22 64.05 276.02 64.01 276.64 64.09 276.92 64.13 276.92 64.13 276.46 65 276.86 65.57 278.4 66.58 278.97 67.38 278.84 67.78 276.93 69.02 276.92 69.02 277.72 69.1 279.98 69.3 282.82 69.99 282.82 70 282.73 70.22 282.7 70.29 282.65 70.35 282.57 70.35 282.48 70.39 282.3 70.48 282.31 70.48 282.84 70.71 283.03 70.86 283.24 70.8 283.81 70.48 284.57 71.33 284.91 71.7 284.79 72.13 284.61 72.74 284.28 73.1 283.75 73.68 283.54 74.14 283.29 74.7 283.08 74.61 282.72 74.46 279.41 74.44 274.75 71.28 272.5 70.63 270.52 72.48 270.52 72.49 272.52 75.41 272.51 75.41 271.89 75.58 271.51 75.69 271.48 75.71 271.25 75.92 271.05 76.44 271.04 76.45 270.19 75.69 268.24 73.98 267.08 73.81 267.08 73.81 267.1 75.9 267.1 75.9 266.62 75.9 266.19 75.04 266.09 74.84 265.95 74.63 265.12 73.43 264.03 72.65 263.18 73.45 263.2 73.46 264.26 73.98 264.81 74.89 264.83 75.88 264.34 76.66 264.34 76.66 263.98 76.38 262.21 75.9 262.21 75.91 262.21 75.93 262.21 76 262.21 76 261.92 75.99 260.21 75.9 259.85 75.81 259.76 75.69 259.69 75.61 259.69 75.6 259.54 75.69 259.35 76.18 259.24 76.45 259.24 76.45 259.25 76.45 259.41 76.45 259.5 76.79 259.56 77.06 259.66 77.6 259.71 77.82 259.73 78.34 259.73 78.35 259.45 79.1 258.83 80.08 258.82 80.09 258.79 80.34 258.74 80.85 258.88 81.35 258.91 81.44 259.16 81.95 259.73 82.79 261.01 81.34 262.45 80.58 264.09 80.58 264.99 80.92 266.11 81.34 267.23 81.95 267.97 82.35 268.75 83.09 269.06 84.02 269.51 84.63 270.54 84.52 272.01 83.97 272.52 83.78 273.29 83.71 276.04 83.45 279.87 83.58 280.34 83.59 280.89 83.69 284.4 84.31 287.23 85.72 288.89 83.95 289.84 83.13 290.91 82.79 291.59 82.48 293.58 81.03 294.85 80.11 295.44 79.82 297.51 78.77 300.16 79.42 302.27 81.44 302.27 81.45 303.39 84.27 303.37 84.94 302.97 86.08 302.9 86.76 303.07 86.99 303.41 87.28 303.75 87.71 303.89 88.42 299.74 91.16 299.01 91.29 298.27 91.94 295.09 92.62 294.12 93.17 291.67 95.07 290.3 94.71 289.25 95.47 287.71 97.51 286.64 98.17 283.77 99.28 282.57 99.47 281.98 99.75 281.26 100.36 280.65 101.1 280.38 101.67 280.48 102.3 280.74 102.59 281.14 102.78 281.6 103.14 281.81 104.16 280.76 104.77 279.2 104.75 277.93 103.84 277.2 104.45 275.55 105.02 273.72 106.1 273.05 106.1 273.05 106.14 273.99 106.81 276.54 107.99 276.92 108.56 276.71 109.6 276.14 110.38 275.36 110.67 274.48 110.23 274.08 110.76 273.99 111.24 274.14 111.71 274.48 112.23 273.26 112.34 272.5 112.17 272.1 111.6 271.99 110.5 271.57 110.65 270.58 110.78 269.44 110.69 268.56 110.23 268.75 110.04 269 109.43 269.17 108.75 269.06 108.33 268.54 108.12 268.09 108.27 267.8 108.61 267.48 109.64 267 109.47 266.47 109.05 266.11 108.82 264.36 109.24 260.61 109.72 259.73 109.74 258.74 109.36 257.16 108.1 256.57 107.83 256.27 107.59 256.34 106.56 256.08 106.33 256.04 106.22 254.69 105.82 254.4 105.78 253.79 105.04 252.96 103.35 252.39 102.45 252.42 101.29 249.63 100.49 243.82 99.87 241.21 100.44 238.61 101.94 236.93 104.03 237.2 106.33 236.17 105.95 235.39 106.1 234.91 106.81 234.76 108.08 235.14 108.99 236.82 110.78 237.2 112 236.76 112.32 235.07 114.66 235.01 115.21 234.25 115.71 234.21 116.85 234.55 118.08 235.01 118.88 236.36 119.83 236.65 120.1 237.27 121.01 237.39 121.28 237.16 121.45 236.65 122.06 236.4 121.94 235.87 121.85 235.35 122.13 235.24 123.1 235.52 123.39 236.74 124.51 237.2 125 237.5 125.54 237.9 126.6 238.17 127 238.57 127.25 239.75 127.76 240.13 127.97 240.64 128.96 240.15 129.49 239.27 130.1 238.66 131.41 241.02 131.28 241.63 131.41 241.69 131.66 241.59 132.61 241.63 132.89 242.62 133.41 243.29 133.5 243.9 133.24 244.6 133.2 245.55 133.86 245.86 134.32 245.97 134.87 245.88 135.4 245.55 135.86 244.68 135.94 243.27 135.54 239.14 133.64 237.98 132.84 237.29 131.7 237.2 129.93 236.65 129.93 236.06 131.51 235.12 132.23 233.89 132.74 232.5 133.62 231.87 134.7 231.37 136.28 231.13 137.82 231.34 138.75 230.23 141.47 229.83 142.17 227.47 144.24 226.9 145.14 226.37 145.14 225.82 144.28 225.66 143.2 225.89 142.06 226.62 140.97 226.88 140.1 226.86 139.13 227.38 138.41 229.32 138.31 229.32 137.82 227.05 136.11 225.66 135.48 224.43 135.86 223.86 134.93 224.22 134.43 225.91 133.86 228.25 132.57 229.07 132.38 229.97 132.32 232.95 131.68 232.99 131.13 232.74 130.35 232.76 129.45 234.27 126.68 234.78 124.85 234 124.02 232 123.79 231.2 123.16 231.49 122.23 232.76 121.09 231.39 120.31 230.82 120.23 230.31 120.54 229.97 119.97 229.7 119.38 229.32 118.12 230.4 118.41 230.8 118.65 231.09 117.27 230.69 115.88 230.71 114.87 232.25 114.68 232 113.86 231.64 113.27 231.09 113.01 230.31 113.2 230.44 112.02 231.03 111.26 231.77 110.61 232.25 109.74 232.25 109.3 231.6 109.11 231.3 108.75 231.05 108.25 230.56 107.59 229.93 107.38 228.69 108.1 227.87 107.83 226.86 108.42 225.74 110.08 224.88 110.78 224.9 109.83 224.71 108.35 224.88 107.83 224.43 107.34 221.48 109.24 220.49 109.74 220.96 108.75 221.69 107.7 222.03 106.54 221.25 105.13 220.22 103.71 219.99 102.57 219.94 101.39 219.5 99.87 218.87 100.49 218.24 101.67 217.75 102.87 217.56 103.61 217.42 105.1 217.02 106.1 211.62 111.2 209.85 112.23 208.23 111.75 209.24 109.74 209.72 109.13 210.97 108.08 211.56 107.17 211.87 106.05 211.92 104.89 211.71 103.84 211.2 103.84 210.8 104.62 209.35 105.57 208.76 106.33 208.12 105.72 207.51 105.27 206.88 105.25 206.31 105.78 205.64 105.48 204.9 105.32 204.14 105.29 203.34 105.34 203.51 105 203.74 104.18 203.87 103.84 200.58 103.9 198.87 103.59 197.92 102.45 198.14 101.54 196.49 99.77 195.21 97.98 195.48 96.54 195.92 96.48 196.56 96.61 197 96.82 196.93 97.07 197.82 96.52 198.14 96.18 197.69 96.01 196.49 95.78 195.82 95.23 194.47 92.09 194.17 92.05 193.27 92.09 192.38 92.3 191.65 92.72 190.8 92.96 189.6 92.62 189.26 92.22 188.82 91 188.59 90.68 187.96 90.6 187.62 90.97 187.6 91.42 187.87 91.65 188.32 92.16 188.4 93.34 188.15 95.61 186.82 95.66 184.99 99.16 183.7 100.44 182.75 100.63 181.81 100.46 181.09 99.98 180.81 99.2 178.16 99.09 177.84 98.95 177.34 99.49 177.04 100.25 176.9 101.18 176.85 102.19 177.15 103.04 177.82 103.4 178.64 103.56 179.3 103.84 179.61 104.28 179.76 105.17 180.01 105.57 180.52 105.86 181.59 106.29 182.75 107.17 183.55 107.61 184.23 108.18 184.71 109.3 183.91 109.93 183.81 111.01 183.51 112.09 182.18 112.76 182.21 112.17 181.74 110.78 180.84 111.05 180.04 110.65 179.57 109.96 179.76 109.3 179.13 108.9 178.5 108.67 177.86 108.65 177.3 108.82 177.61 109.39 177.65 109.55 177.51 109.7 177.3 110.23 176.47 109.09 174.83 107.23 174.41 106.33 174.16 106.92 173.99 107.49 173.9 108.08 173.92 108.82 173.44 108.82 172.81 107.51 171.86 107.78 171.27 109.01 171.71 110.5 171.73 111.09 171.46 112.85 171.71 113.2 171.94 113.37 171.96 113.73 171.88 114.13 171.71 114.45 171.06 114.95 170.7 114.95 170.43 114.72 170.03 114.68 169.2 114.79 168.59 114.76 168.07 114.83 167.58 115.21 167.43 115.69 167.69 116.18 168.17 116.54 168.76 116.68 169.27 116.94 169.82 117.55 170.28 118.29 170.66 119.87 171.12 120.42 171.61 120.73 171.92 121.09 171.99 121.6 171.88 122.97 171.92 123.54 172.34 124 173.65 125.08 173.92 125.75 173.4 127.08 172.22 127.67 170.91 127.48 170.03 126.51 169.79 124.91 169.82 123.48 169.42 122.46 167.79 122.06 167.79 121.39 167.9 120.04 167.41 119.09 165.58 119.62 165.6 118.56 165.45 118.1 165.1 118.12 164.65 118.54 164.74 118.79 164.99 119.09 165.1 119.62 165.07 120.46 165.31 122.76 165.58 123.54 164.27 123.67 163.14 124.02 163.3 122.95 162.86 121.87 162.12 121.2 161.41 121.32 160.8 121.83 160.27 122.15 159.87 122.57 159.7 123.31 160.06 124.28 160.16 124.78 159.93 125 160.04 125.5 160.99 128.03 161.18 128.96 160.71 129.93 159.79 130.97 158.69 131.85 157.72 132.38 156.75 131.01 156.71 129.28 157.28 125.75 157.21 124.62 157 124.11 156.6 124 155.28 124.02 155.09 123.92 155.17 123.58 155.36 122.25 156.25 120.54 156.22 120.25 156.08 119.91 156.08 119.49 156.5 118.88 156.9 118.69 157.83 118.75 158.63 118.48 158.92 118.56 159.11 118.48 159.17 117.89 159.17 117.34 159.2 117.04 159.34 116.89 159.7 116.68 160.5 116.68 161.32 116.98 161.96 116.85 162.15 115.67 161.28 116.01 160.1 116.18 157.95 116.2 155.76 116.89 154.73 117.04 154.29 116.43 154.29 112.51 153.91 111.81 153.06 111.62 152.22 111.24 151.84 110 152.09 108.99 152.73 108.8 153.67 108.9 154.77 108.82 155.91 108.29 156.75 107.57 157.34 106.71 157.72 105.78 157.64 105.25 157.36 104.72 157.21 104.2 157.7 103.06 157.24 102.74 156.25 102.45 155.07 100.78 154.83 99.92 154.77 98.5 155.91 98.67 155.99 98.23 155.36 97.55 154.29 97.07 154.48 96.77 154.77 96.01 152.62 95.57 151.1 96.39 149.73 97.64 147.9 98.5 146.64 98.55 146.07 98.14 145.92 97.22 145.94 95.8 146.09 95.28 146.45 94.73 147.18 93.84 147.44 93.27 147.4 91.16 148.83 86.9 148.62 86.23 149.02 85.7 150.37 82.79 150.22 82.29 149.5 81.49 149.42 80.85 149.69 80.18 150.66 78.91 150.87 78.11 150.7 77.75 149.99 77.18 149.84 76.89 149.95 76.53 150.3 76 150.49 75.03 151.31 72.97 150.05 73.05 149.42 73.47 148.98 74.02 148.39 74.44 147.71 74.61 147.31 74.59 146.89 74.51 146.17 74.44 145.75 74.67 145.52 75.18 145.18 75.54 144.45 75.41 144.55 72.88 144.97 70.77 145.86 68.9 148.93 65.1 149.69 63.12 150.37 58.27 150.7 57.13 151.65 55.11 152.28 49.42 153.4 47.1 154.69 45.39 155.17 43.73 153.8 41.56 154.58 39.51 154.31 36.37 154.77 34.37 157.72 35.67 158.06 34.73 158.18 33.67 158.18 31.48 158.35 30.51 159.03 28.93 159.47 25.89 160.99 22.99 161.62 20.92 162.17 14.07 162.88 12.38 162.99 11.75 162.57 10.93 162 10.02 161.62 9.14 161.58 8.13 161.66 7.26 161.64 6.4 161.18 5.24 161.83 4.73 162.78 3.74 163.26 2.77 162.4 2.35 161.81 2.52 161.26 2.77 160.84 2.75 160.69 2.08 160.71 1.3 160.7 1.2 159.73 1.2 159.49 2.54 158.96 3.87 158.18 4.27 156.65 4.97 155.72 4.42 155.61 3.13 156.74 1.2 145.47 1.2 132.36 1.2 120.78 1.2 119.26 1.2 106.15 1.2 93.04 1.2 88.42 1.2 87.28 .64 84.75 0 82.06 1.41 79.34 2.26 78.31 2.8 75.75 5.51 74.84 6.27 73.11 5.73 71.55 5.56 67.94 5.89 66.61 6.2 65.75 6.27 65.35 6.08 64.98 5.68 64.44 5.33 63.55 5.25 62.98 5.71 62.89 5.8 62.33 6.39 61.78 7.18 61.55 7.98 61.79 8.75 62.83 9.47 63.07 10.45 62.92 10.87 62.65 11.28 62.45 11.71 62.57 12.14 63.2 12.56 63.77 12.47 64.24 12.22 64.53 12.14 65.41 12.77 65.72 13.22 66 15.07 66.43 16.11 67.73 18.27 68.16 19.73 68.82 20.59 68.97 21.18 68.9 21.4 68.73 21.71 68.56 22.13 68.49 22.67 68.87 23.81 69.8 24.51 71.91 25.38 72.66 25.91 73.74 26.94 74.39 27.34 79.12 29.09 80.53 29.29 81.92 30.13 82.32 32.01 82.19 33.87 81.97 34.71 81.59 35.13 82.01 36.06 83.2 37.64 84.09 38.59 84.4 39.14 85.1 41.71 85.79 43.33 86.91 44.21 88.61 43.56 89.13 45.08 89.07 46.92 88.15 52.57 88.12 53.34 88.29 53.71 88.92 54.68 89.1 55.34 88.28 57.31 88.53 58.06 89.1 60.94 88.71 62.15 87.98 63.22 87.58 64.33 88.12 65.61 86.96 66.52 86.53 66.98 86.17 67.56 88.32 67.9 88.53 69.8 87.59 73.97 88.93 73.68 90.22 74.32 91.31 75.42 92.08 76.45 92.67 78.53 90.21 86.51 89.59 89.66 89.89 94.56 89.59 96.02 88.85 97.36 87.92 98.03 86.72 98.57 85.61 99.2 84.61 99.45 84.09 99.75 83.44 99.92 82.86 99.78 79.12 97.94 78.35 97.69 77.43 97.82 76.61 98.46 75.58 100.39 74.78 101.06 73.28 101.14 71.73 100.7 70.21 100.51 68.82 101.32 66.45 104.31 65.49 105.82 62.78 112.44 62.19 114.71 61.88 115.47 61.19 116.36 59.49 117.98 58.9 118.87 58.62 120.64 59.42 121.41 60.81 121.42 62.32 120.93 64.89 119.76 66.53 119.15 66.07 120.5 61.95 124.83 61.37 125.77 61.14 126.88 61.11 128.7 59.55 130.81 58.73 132.41 58.89 133.64 60.68 135.96 61.76 136.98 63.07 137.34 62.74 138.12 63.16 138.7 63.78 139.31 64.08 140.2 64.09 140.23 64.43 140.07 65.85 138.11 66.7 137.41 67.7 137.04 68.28 137.13 72.93 139.92 73.88 140.32 74.19 140.52 74.37 140.96 74.57 142.13 74.76 142.44 75.72 142.65 76.47 142.47 77.18 142.18 78.06 142.12 78.94 142.45 80.58 143.53 81.53 143.81 83.2 143.66 86.54 142.73 88.21 142.74 87.74 143.59 87.52 143.98 85.31 146.53 84.83 147.67 85.19 148.73 86.95 150.39 87.65 151.38 87.67 151.76 87.33 152.71 87.27 153.13 87.52 153.67 88.45 154.35 88.75 154.86 88.82 155.76 88.69 156.66 88.07 158.37 87.06 159.82 87.1 160.34 87.41 161.62 87.45 162.03 86.37 163.96 84.65 165.14 82.66 165.36 80.77 164.42 80.55 165.27 80.09 165.92 79.39 166.31 78.51 166.42 76.55 167.16 74.97 168.14 73.62 169.4 72.31 170.99 72.81 171.26 74.97 172.44 74.87 174.35 73 176.17 69.64 177.74 68.7 178.85 68.13 179.35 67.64 179.52 65.74 179.96 65.63 180.14 65.5 180.76 65.43 180.92 64.06 181.03 64.02 180.9 63.88 180.88 62.69 181.06 62.5 181.28 62.24 182.13 62.06 182.41 60.07 183.85 59.68 184.71 59.85 186.14 59.82 187.46 59.29 188.79 56.33 193.44 55.83 194.73 55.83 194.78 55.75 196.11 56.05 197.32 56.46 198.43 56.68 199.55 56.44 200.81 53.25 199.76 51.44 200.92 48.68 205.68 44.93 209.54 44.07 211 42.82 216.17 41.71 218.86 41.52 219.32 39.84 222.22 37.68 224.86 32.81 228.92 32.07 229.99 30.24 234.37 29.34 235.51 27.75 236.41 27.02 236.99 24.57 238.39 22 240.8 18.2 242.59 17.57 242.8 16.37 242.6 15.59 242.21 14.83 242.11 13.67 242.83 13.54 243.08 13.39 244.25 13.02 244.87 11.8 245.44 11.34 245.86 11.08 246.88 11.04 247.8 10.82 248.61 10 249.25 9.67 249.13 6.75 248.9 4.38 248.34 4.05 252.57 .67 270.6 .63 275.74 .74 276.46 1.1 277.05 1.62 277.64 2.02 278.19 1.98 278.66 0 280.44 0 280.92 1.29 281.37 3.48 281.58 4.19 281.81 5.1 282.32 5.54 282.85 5.86 283.42 6.41 284.09 6.91 284.37 8.81 285.17 10.22 285.57 10.92 286.19 12.07 287.73 12.35 287.86 12.75 287.84 13.15 287.88 13.49 288.26 13.51 288.68 13.34 289.13 13.04 289.7 13.49 291.01 15.21 293.25 15.97 294.78 16.41 296.45 16.46 298.12 16.29 298.94 16.01 299.37 15.74 299.64 15.49 300.04 15.32 300.15 15.05 300.15 14.75 300.21 14.5 300.53 14.5 301 14.86 301.06 15.28 301.04 15.49 301.29 15.61 302.1 15.8 302.63 15.78 303.09 15.23 303.75 14.79 304.57 15.28 306.03 14.98 306.96 14.46 306.67 14.22 306.62 14.01 306.77 13.49 306.96 13.68 307.85 13.78 309.59 13.68 311.43 13.25 312.66 12.33 313.9 11.46 315.51 10.85 317.21 10.6 318.79 11.23 321.12 12.69 323.13 15.97 326.2 17.38 328.04 25.05 345.05 25.75 348.33 25.71 349.77 25.24 352.42 25.26 353.8 23.56 354.16 21.94 355.07 17.26 359.45 16.71 359.73 15.93 359.54 14.71 358.75 14.01 358.71 12.75 359.54 11.32 361.15 10.11 362.95 9.63 364.39 9.46 368.97 9.95 373.8 9.67 375.45 8.85 376.75 8.49 377.47 8.83 378.21 9.57 378.76 11.25 379.25 11.76 379.88 12.52 381.41 18.86 389.32 22.31 392.27 24.84 393.56 25.71 394.56 25.75 396.25 31.25 393.22 34.28 392.35 37.53 392.27 39.05 392.67 40.48 393.47 41.55 394.6 41.97 395.98 42.73 397.42 46.72 401.24 50.04 404.42 51.29 405.29 52.53 405.65 53.16 406.26 54.77 410.06 57.44 413.52 57.34 414.31 57.86 416.11 59.08 418.93 63.78 424.24 65.47 425.34 65.95 426.32 69.48 428.57 69.54 428.61 70.4 430.07 70.4 433.03 70.19 433.41 69.24 434.24 68.93 434.72 69.01 436.04 69.28 437.7 69.2 439.1 68.21 439.69 66.23 439.69 65.74 439.4 65.36 438.93 64.98 438.84 64.5 439.69 65.49 440.29 66.46 441.33 67.2 442.6 67.47 443.9 67.3 444.3 67.09 445.07 67.24 445.81 68.21 446.15 68.59 446.53 69.37 449.1 72.38 455.71 72.84 458.51 72.61 459.85 71.66 463.25 71.62 463.93 72.42 464.55 72.04 465.93 70.88 468.41 73.73 473.41 74.09 474.28 75.29 474.77 75.9 475.88 76.28 477.19 76.81 478.24 77.59 478.77 79.52 479.68 80.26 480.26 80.68 481.13 81.1 482.3 81.63 483.3 82.43 483.74 86.35 494.89 88.08 496.48 88.8 497.46 89.32 499.99 89.95 500.76 91.51 502.04 92.27 503.01 93.75 505.33 94 506.25 94.23 509.29 94.67 510.74 95.41 511.95 95.73 511.68 96.89 510.97 97.48 512.02 97.98 513.29 98.17 514.68 97.81 515.91 97.5 515.21 97.41 514.91 96.89 514.91 96.61 515.95 96.82 516.72 97.22 517.4 97.54 518.81 97.86 519.3 98.17 519.66 98.36 519.91 98.49 520.45 98.47 520.7 98.4 520.98 98.36 521.64 98.64 522.92 99.33 523.51 100.28 523.85 101.29 524.34 102.09 525.28 102.93 527.41 103.76 528.35 103.88 528.01 103.92 527.94 104.01 527.94 104.26 527.81 105.53 529.77 109.8 532.46 111.11 534.78 110.33 539.27 110.39 541.96 111.83 543.17 112.59 543.49 112.77 544.32 112.56 546.41 112.64 546.57 113.78 545.98 115.51 545.98 116.34 546.55 117.7 548.38 118.46 548.95 119.38 549.1 119.99 548.89 120.54 548.53 124.24 547.2 125.07 547.02 125.58 546.82 125.77 546.54 126 546.44 126.63 546.81 126.9 547.27 127.14 548.59 127.38 549.1 128.33 549.72 129.26 549.81 130.23 549.71 131.31 549.79 132.43 550.38 133.97 552.16 135.11 552.88 137.86 553.67 139.29 554.87 139.79 556.71 139.78 559.41 140.32 562.51 141.97 564.72 148.86 570.04 150.07 570.51 151.51 570.52 152.98 570 155.42 568.67 157.08 568.53 167.75 571.46 166.41 574.39 166.4 577.97 167.86 580.82 170.9 581.55 172.39 580.93 173.42 580.16 174.56 579.67 176.39 579.94 178.45 581.13 179.19 581.35 179.86 581.29 181.24 580.96 181.89 580.99 182.71 581.44 183.37 581.79 186 584.48 187.41 585.53 188.86 586.04 190.38 586.24 199.71 586.05 202.6 586.77 205.2 588.52 205.98 589.53 207.37 592.82 208.4 594.41 209.37 595.07 212.06 595.28 218.22 596.63 223.34 597.07 224.25 597.55 225.24 598.63 225.5 599.18 225.73 600.27 226.14 600.81 226.67 601 227.91 600.87 228.43 600.97 231.76 603.19 237.11 605.22 238.21 605.92 239.31 604.74 240.67 604.05 242.06 603.99 243.32 604.72 246.9 608.3 251.31 611.73 251.96 611.99 253.89 612.42 255.99 613.25 256.25 613.41 256.9 613.18 257.89 612.36 258.36 612.13 259.36 612.12 260.85 612.58 261.7 612.66 262.32 612.46 263.45 611.71 264.09 611.59 265.37 612.04 269.39 614.92 270.72 616.17 271.95 618.86 272.81 620.22 273.91 621 275.3 621.43 278.27 621.64 280.5 621.1 282.18 620.11 283.92 619.38 286.35 619.63 288.53 620.33 290.41 620.66 290.45 620.66 292.27 620.42 294.16 619.35 296.46 618.71 298.42 619.93 300.25 621.79 302.1 623.01 303.78 623.7 305.81 624.92 307.53 626.38 308.31 627.82 309.15 628.43 310.32 627.15 310.32 626.65 311.38 625.95 311.97 625.21 312.22 624.26 312.28 622.94 312.78 620.75 312.91 619.48 311.58 616.24 312.65 614.41 314.33 613.01 315.21 612.01 316.37 610.97 318.85 611.88 321.07 613.35 321.17 613.41 321.85 614.22 322.84 614.77 325.27 617.73 325.81 618.04 327.04 619.4 329.07 620.33 329.08 620.34 329.11 620.36 336.08 627.74 338.21 628.52 338.67 629.48 338.84 630.78 339.2 632.15 339.61 632.73 341.2 634.38 341.53 634.56 342.82 635.82 342.9 636.12 350.05 645.01 350.87 646.5 353.02 649.56 353.85 652.05 353.95 652.84 353.8 653.67 353.17 655.09 353.02 655.81 353.57 658.29 355.94 663.66 356.62 667.52 357.22 669.11 357.38 670.01 357.35 670.79 355.9 678.73 356.22 680.3 357.6 682.61 357.9 683.96 357.75 684.66 357.08 686.29 356.93 687.22 356.98 687.61 357.05 688.19 357.38 689.19 357.86 690.15 358.43 690.98 359.04 691.26 359.66 691.23 360.15 691.37 360.35 692.22 360.29 693.62 360.48 694.05 362.02 695.88 362.7 697.35 362.76 698.93 361.82 700.47 362.27 701.14 362.39 701.46 362.7 701.88 363.16 702.22 363.59 702.74 363.78 703.68 362.9 704.33 362.47 704.95 362.74 706.86 361.82 711.41 361.82 714.65 361.66 715.4 360.34 718.38 358.26 721.07 357.9 722.91 358.21 724.4 359.17 727.39 359.37 729.18 359.91 730.46 363.32 733.41 363.7 734.12 363.92 734.76 364.26 735.22 365.56 735.55 366.13 735.95 366.57 736.51 366.75 737.17 366.98 738.84 367.62 740.26 368.55 741.32 369.68 741.98 369.68 742.43 369.26 742.67 368.64 743.15 368.21 743.38 369.8 746.35 370.26 746.91 370.73 746.86 371.64 746.06 372.17 745.87 372.76 745.94 375.85 746.99 377.58 747.91 378.92 749.12 379.46 750.62 379.76 751.17 381.1 752.29 381.72 754.27 382.39 755.04 383.06 755.62 383.37 756.16 383.53 756.59 383.87 757.25 384.22 758.11 384.39 759.18 384.39 762.96 384.51 763.59 414.37 763.89 417.35 763.81 417.48 764.21 417.95 764.68 418.62 764.9 420.38 764.98 420.69 764.95 421.65 764.57 421.66 764.5 422.13 764.36 422.41 764.2 422.74 764.23 423.38 764.73 423.76 765.28 423.95 765.78 424.27 766.19 425.09 766.45 425.17 765.2 425.96 765.14 427.11 765.6 428.29 765.9 429.97 764.95 430.05 764.96 433.91 763.94 434.63 763.48 435.13 761.98 435.73 760.96 436.52 759.99 437.39 759.42 436.83 757.82 438.15 757.04 441.75 756.38 443.01 755.39 445.25 752.55 446.19 751.9 449.12 752.44 451.15 753.31 451.61 753.44 454.31 753.41 455.26 753.88 456.5 755.39 455.82 757.02 456.46 758.4 457.8 759.11 459.18 758.7 460.21 758.63 461.71 759.3 464.32 760.92 465.02 761.21 466.61 761.62 467.29 761.92 467.89 762.39 468.36 762.88 468.85 763.26 469.5 763.41 470.65 763.97 471.05 765.34 471.21 766.99 471.7 768.45 471.24 769.54 471.45 771.05 472.09 772.37 472.92 772.94 475.87 772.44 476.73 772.59 477.84 773.27 478.58 773.48 479.63 773.37 482.23 772.62 484.48 772.28 484.98 771.94 485.35 771.6 485.69 771.44 494.05 771.44 494.61 771.83 495.04 773.55 495.49 773.93 495.89 774.08 497.69 774.98 498.92 775.12 503.41 774.39 504.48 774.02 506.39 773.81 506.91 773.48 507.3 773.01 507.99 772.44 510.63 771.43 511.45 770.99 512.1 770.38 514.09 767.44 517.33 763.59 518.54 763.18 519.22 763.53 520.64 763.64 522.41 764.79 523.47 765 530.09 764.4 530.76 764.11 531.4 763.62 532.52 762.96 533.38 765.21 535.33 767.66 537.83 769.77 540.34 770.99 546.43 772.38 549.55 772.72 552.12 772.44 552.81 772.12 553.37 771.76 553.93 771.49 554.6 771.44 555.43 771.83 556.7 773.19 557.29 773.48 560.83 774.49 562.47 774.49 563.83 774.26 564.31 774 564.91 773.48 565.31 772.76 565.71 771.74 566.27 770.84 567.13 770.44 568.63 770.13 571.22 768.75 572.77 768.45 575.04 768.43 576.57 768.15 577.91 767.39 581.09 764.82 586.3 762.52 587.79 761.47 588.69 760.67 589.27 759.7 589.14 758.8 588.71 757.9 588.42 756.93 588.8 755.29 590.51 752.22 590.41 750.9 591.08 750.01 592.18 746.71 592.37 745.64 592.86 745.01 597.36 742.44 598.54 742.16 601.45 741.98 602.09 741.81 602.76 741.09 606.86 740.39 608.47 740.42 609.03 740.44 609.03 740.32 609.25 740.11 609.61 739.94 610.05 739.93 610.18 740.11 610.55 740.78 610.78 740.93 611.48 741.16 612.89 742.19 613.74 742.43 614.56 742.28 616.14 741.62 616.85 741.42 620.16 741.95 622.72 743.73 626.68 747.91 629.21 749.21 634.89 750.65 636.99 751.87 637.03 751.9 638.81 749.68 645.86 744.87 647.47 742.83 648.62 741.85 650.75 741.27 652.2 740.59 652.98 740.44 653.83 740.53 655.38 740.9 656.17 740.93 657.48 740.23 660.33 737.5 661.28 736.9 662.77 736.52 664.03 735.64 665.95 733.96 668.37 733.4 677.72 733.41 680.2 732.92 682.41 731.91 684.09 732.25 687.01 733.85 688.52 734.41 690.42 734.43 692.22 733.89 693.89 732.97 707.92 721.67 709.06 721.04 710.28 720.64 715.8 720.22 727.81 717.58 729.62 716.81 736.79 711.84 744.18 708.67 745.54 707.96 754.49 700.92 756.49 700.18 757.32 699.36 758.67 697.59 762.9 693.37 765.61 691.34 770.25 689.71 772.81 687.86 775.09 685.57 776.23 683.46 776.27 682.5 775.94 681.82 775.54 681.27 775.35 680.72 775.45 679.92 776.23 677.45 775.77 677.49 774.82 677.41 774.37 677.45 775.28 676.31 776.47 675.21"/>
  </g>
  <circle class="cls-6" cx="401.58" cy="384.39" r="300.01"/>
  <g>
    <path class="cls-4" d="m676.91,383.28c0,6.08-.19,12.11-.58,18.1-3.14,48.67-18.87,93.9-43.97,132.48-26.05,40.08-62.22,72.98-104.88,95.1-5.73,2.98-11.58,5.75-17.52,8.32-21.94,9.48-45.35,16.21-69.8,19.73-13,1.88-26.3,2.85-39.82,2.85s-26.82-.97-39.82-2.85c-26.22-3.78-51.25-11.24-74.56-21.83-4.32-1.96-8.56-4.03-12.76-6.21-43.95-22.79-81.02-57.04-107.24-98.79-24.29-38.66-39.27-83.76-41.8-132.16-.26-4.88-.39-9.79-.39-14.73,0-43.73,10.15-85.09,28.23-121.86,22.12-44.99,56.09-83.09,97.85-110.22,43.31-28.15,94.99-44.5,150.5-44.5.69,0,1.39,0,2.08.01.04,0,.09,0,.13,0,1.93.01,3.85.05,5.77.1,53.63,1.52,103.44,18.31,145.24,46.18,41.23,27.48,74.65,65.74,96.26,110.75,17.37,36.18,27.1,76.72,27.1,119.53Z"/>
    <g>
      <circle class="cls-1" cx="402.83" cy="397.13" r="264.8"/>
      <path class="cls-1" d="m652.31,265.97c17.37,36.18,27.1,76.72,27.1,119.53,0,6.08-.19,12.11-.58,18.1-3.14,48.67-18.87,93.9-43.97,132.48-2.96,1.26-5.93,2.51-8.92,3.73h0c-18,7.35-36.45,13.83-55.3,19.39-33.88,9.98-69.05,16.96-105.19,20.64-19.59,1.99-39.47,3.01-59.58,3.01-22.23,0-44.17-1.24-65.75-3.68-36.42-4.09-71.82-11.54-105.88-22.03-19.34-5.96-38.24-12.89-56.66-20.75-3.05-1.3-6.09-2.63-9.11-3.99-24.29-38.66-39.27-83.76-41.8-132.16-.26-4.88-.39-9.79-.39-14.73,0-43.73,10.15-85.09,28.23-121.86,22.12-44.99,56.09-83.09,97.85-110.22,43.31-28.15,94.99-44.5,150.5-44.5.69,0,1.39,0,2.08.01.04,0,.09,0,.13,0,.27,0,.54,0,.81,0,1.68,0,3.34.03,4.96.11,53.63,1.52,103.44,18.31,145.24,46.18,41.23,27.48,74.65,65.74,96.26,110.75Z"/>
      <path class="cls-1" d="m679.41,385.5c0,6.08-.19,12.11-.58,18.1-3.14,48.67-18.87,93.9-43.97,132.48-26.05,40.08-62.22,72.98-104.88,95.1-5.73,2.98-11.58,5.75-17.52,8.32-1.61.3-3.21.59-4.82.87h-.01c-19.78,3.49-39.9,5.98-60.32,7.41-13.69.96-27.51,1.45-41.45,1.45-16.05,0-31.94-.65-47.67-1.92-21.88-1.77-43.42-4.76-64.54-8.89h0c-1.73-.34-3.46-.68-5.19-1.04-4.32-1.96-8.56-4.03-12.76-6.21-43.95-22.79-81.02-57.04-107.24-98.79-24.29-38.66-39.27-83.76-41.8-132.16-.26-4.88-.39-9.79-.39-14.73,0-43.73,10.15-85.09,28.23-121.86,22.12-44.99,56.09-83.09,97.85-110.22,43.31-28.15,94.99-44.5,150.5-44.5.69,0,1.39,0,2.08.01.04,0,.09,0,.13,0,.27,0,.54,0,.81,0,1.68,0,3.34.03,4.96.11,53.63,1.52,103.44,18.31,145.24,46.18,41.23,27.48,74.65,65.74,96.26,110.75,17.37,36.18,27.1,76.72,27.1,119.53Z"/>
      <path class="cls-1" d="m652.31,265.97c17.37,36.18,27.1,76.72,27.1,119.53,0,6.08-.19,12.11-.58,18.1-3.8,2.03-7.64,4.01-11.49,5.96-22.89,11.53-46.66,21.59-71.17,30.06-37.74,13.05-77.25,22.32-118.06,27.37-23.67,2.93-47.79,4.44-72.25,4.44-26.57,0-52.71-1.78-78.34-5.23-40.88-5.49-80.41-15.23-118.14-28.76-24.54-8.79-48.3-19.18-71.19-31.05-3.88-2.01-7.72-4.06-11.55-6.16-.26-4.88-.39-9.79-.39-14.73,0-43.73,10.15-85.09,28.23-121.86,22.12-44.99,56.09-83.09,97.85-110.22,43.31-28.15,94.99-44.5,150.5-44.5.69,0,1.39,0,2.08.01.04,0,.09,0,.13,0,.27,0,.54,0,.81,0,1.68,0,3.34.03,4.96.11,53.63,1.52,103.44,18.31,145.24,46.18,41.23,27.48,74.65,65.74,96.26,110.75Z"/>
      <path class="cls-1" d="m652.31,265.97c-5.14,2.41-10.32,4.74-15.54,6.99-19.05,8.25-38.62,15.5-58.67,21.69-33.37,10.32-68.02,17.73-103.66,21.91-22.5,2.64-45.39,4-68.59,4-25.26,0-50.15-1.61-74.56-4.73-35.49-4.54-69.98-12.27-103.17-22.9-19.85-6.35-39.23-13.74-58.08-22.11-5.22-2.31-10.41-4.71-15.55-7.17,22.12-44.99,56.09-83.09,97.85-110.22,43.31-28.15,94.99-44.5,150.5-44.5.69,0,1.39,0,2.08.01.04,0,.09,0,.13,0,.27,0,.54,0,.81,0,1.68,0,3.34.03,4.96.11,53.63,1.52,103.44,18.31,145.24,46.18,41.23,27.48,74.65,65.74,96.26,110.75Z"/>
      <path class="cls-1" d="m556.05,155.22c-7.54,4.02-15.29,7.74-23.24,11.15-8.55,3.68-17.33,6.99-26.31,9.92-18.45,6.02-37.76,10.44-57.72,13.05-14.02,1.84-28.35,2.8-42.93,2.8-16.58,0-32.85-1.23-48.69-3.6-19.51-2.91-38.38-7.55-56.4-13.73-8.62-2.96-17.05-6.26-25.27-9.91-7.93-3.52-15.66-7.34-23.16-11.47,43.31-28.15,94.99-44.5,150.5-44.5.69,0,1.39,0,2.08.01.04,0,.09,0,.13,0,.27,0,.54,0,.81,0,1.68,0,3.34.03,4.96.11,53.63,1.52,103.44,18.31,145.24,46.18Z"/>
      <path class="cls-1" d="m442.36,120.63c0,6.46-16.34,11.7-36.51,11.7s-36.51-5.24-36.51-11.7,15.84-11.53,35.57-11.69c.04,0,.09,0,.13,0,.27,0,.54,0,.81,0,1.68,0,3.34.03,4.96.11,17.82.77,31.55,5.67,31.55,11.59Z"/>
      <path class="cls-1" d="m596.8,416.54c0,7.77-.22,15.47-.63,23.08-2.37,43.33-11.39,83.92-25.54,119.58-10.26,25.85-23.22,49.12-38.32,68.96h0c-.77,1.02-1.55,2.02-2.33,3.02-5.73,2.98-11.58,5.75-17.52,8.32-21.94,9.48-45.35,16.21-69.8,19.73-13,1.88-26.3,2.85-39.82,2.85s-26.82-.97-39.82-2.85c-26.22-3.78-51.25-11.24-74.56-21.83-4.32-1.96-8.56-4.03-12.76-6.21-.78-.99-1.56-2-2.33-3.01h0c-15.49-20.38-28.75-44.35-39.14-71.04-13.92-35.76-22.69-76.38-24.84-119.69-.34-6.9-.52-13.87-.52-20.91,0-44.3,6.92-86.24,19.26-123.61,16.1-48.75,41.42-89.75,72.64-118.12,29.19-26.51,63.53-41.99,100.31-42.47.58,0,1.17-.01,1.75-.01s1.19,0,1.79.01c37.45.49,72.37,16.54,101.89,43.95,30.85,28.64,55.81,69.69,71.6,118.36,11.99,36.94,18.7,78.26,18.7,121.88Z"/>
      <path class="cls-1" d="m479.31,416.54c0,17.21-.41,34.07-1.2,50.45-2,41.42-6.41,79.74-12.67,112.85-4.97,26.27-11.11,49.27-18.14,67.95-1.47,3.91-2.97,7.62-4.52,11.14-.04.1-.09.2-.13.3-13,1.88-26.3,2.85-39.82,2.85s-26.82-.97-39.82-2.85c-.05-.1-.09-.2-.13-.3-1.61-3.66-3.17-7.53-4.69-11.61-7.01-18.76-13.13-41.82-18.08-68.15-6.24-33.17-10.63-71.52-12.59-112.97-.77-16.13-1.16-32.72-1.16-49.66,0-35.46,1.75-69.4,4.94-100.71,5.21-51.1,14.27-95.16,25.87-127.29,12.74-35.32,28.54-56.22,45.66-56.22s33.16,21.21,45.96,57.02c11.51,32.21,20.5,76.23,25.66,127.22,3.15,31.1,4.87,64.79,4.87,99.98Z"/>
      <g>
        <path class="cls-5" d="m196.25,549.03l-.09-.3-.3-.1c-1.41-.49-2.5-1.55-3.66-2.66-1.43-1.38-2.92-2.8-5.1-3.18l.07-.11-.17-.3c-.3-.54-.8-1.15-1.23-1.55-1.27-1.12-4.23-3.76-4.76-9.27-.24-2.51-2-3.76-3.55-4.87-1.05-.73-2.03-1.43-2.59-2.45l-1.84-8.7.59-1.32-.14-.26c-.61-1.16-.72-1.3-1.4-2.08l-.35-.4-.81.48c-.39-.15-.6-.42-1.52-1.85.69.37.95.4,1.71.42h.35l.18-.29c.79-1.23.75-1.97-1.65-6.49.42-.13.93-.21,1.43-.28,1.53-.22,3.62-.53,3.53-2.92-.07-1.7-.19-5-3.95-8.86.69.22,1.41.42,2.2.46h.33s.15-.01.15-.01c1.44-.36,2.78-1.6,2.26-7.64l.08.09-.2-1.65c.9-.46,1.32-1.46,1.21-3.02l-.05-.15.07-.08-.15-.36.46-.11v-.48q.3-17.35,2.45-18.65c.32-.19,1.3-.91,1.73-2.43,5.22-.65,5.55-.75,6.29-3.13.02-.07,2.23-7.59.22-22.51-.5-3.64,1.34-6.41,3.29-9.33,1.77-2.64,3.59-5.38,3.59-8.85-.03-1.3-.04-1.35-.81-3.72-.91-2.81-.93-2.87-1.39-3.31-.79-.76-1.75-1.12-2.68-1.47-.78-.3-1.51-.57-2.09-1.06-.6-.51-1.11-1.12-1.64-1.77-.79-.98-1.63-1.99-2.84-2.66-.03-.02-2.57-1.35-5.81-1.35-1.11,0-2.16.15-3.15.48-.08-.19-.13-.43-.17-.69-.11-.53-.23-1.14-.73-1.63-.69-.69-3.92-2.33-3.95-2.35-1.55-.77-2.5-.76-3.14-.34,0-.36-.06-.75-.3-1.12-.28-.46-.69-.69-1.96-1.27l.02-.45-.38.05c-.14-.21-.32-.35-.55-.44.92-6.4-2.47-11.78-3.56-13.32-1.24-1.73-3.82-3.54-5.98-3.54h-.16c-1.75.08-2.12-.1-2.15-.12-.88-.81-1.36-1.91-1.86-3.07-.59-1.36-1.19-2.76-2.5-3.78-.4-.32-.51-.36-1.43-.59-.29-.53-.89-1.62-1.4-2.55.11.06.25.1.4.11h.03c.87-.04,1.28-.89,1.38-1.62.08-.58-.04-1.1-.32-1.43-.19-.24-.46-.36-.81-.38-.15.01-.37.05-.61.27-.07.06-.13.13-.18.2l-.09-.08c-.48-.42-1.07-.44-1.53-.46-.58-.01-.75-.05-.89-.3l-.28-.52-1.11.52-.08.27q-.27.91-1.48.91c-.7,0-1.69-.05-3.15-.14-.57-1.09-1.94-3.95-2-4.05l-.11-.32-1.01-.23-.24.24c-.09.1-.18.19-.27.3.01-.22-.02-.44-.13-.65-.19-.36-.56-.55-1.1-.6h-.15s-.13.05-.13.05c-.37.15-.67.36-.92.62-1.01,9.56-1.53,19.27-1.53,29.09,0,4.91.13,9.79.39,14.64.79,15.12,2.8,29.92,5.95,44.3,1.06,2.41,2.14,6.5,4.36,14.9l7.38,23.92c3.6,8.7,6.08,14.7,7.83,18.88h0c3.57,8.56,4.08,9.48,4.81,10.3-.06.94.29,2.33,2.41,4.97l.75.94.11-.36.23-.8c.03-.13.06-.27.07-.42.45.81.92,1.66,1.39,2.49l-.51-.38-.22.84-.02.07c-.06.25-.09.33-.06.49.03.2.21.5.22.51.19.32.44.56.77.75l.15.05.19.06.65-.22s.05.09.07.13l-.19.07-.11.28c-.14.36.05.68.12.81.15.26.33.49.51.73l.12.17v.04s.08.09.08.09l-.12.11-.33.32.17.4q1.31,2.99,1.55,3.26l.26.3.37-.11c.13-.04.26-.07.38-.1.09-.02.18-.03.24-.03.17,0,.41.11,1.04,1.35,1.11,2.16,1.85,3.6,2.41,4.6.01.03.03.07.06.1.34.58.61,1.01.87,1.35,0,0,.01,0,.01.01.57.75,1.08,1.09,1.96,1.68.05.03.06.05.1.07-.02.31.15.56.22.67.28.4.5.5.92.66,1.75,2.43,1.77,2.45,2.18,2.88l.12.11.17.04q.26.07.34.07h.34c-.02.09-.05.19-.1.3l-.19.5.46.26c.97.56,1.84,1.27,2.75,2.02.09.07.17.14.26.21l-.87.13,1.01.88c1.24,1.1,3.52,2.92,5.21,3.35l.03.07.2.02v.03h.06s.05.05.1.08l.17.08h.44c.63.5,1.57,1.25,3.01,2.41l.88.69.11-.94c1.98,1.17,2.04,1.18,2.63,1.22l1.12.09-.65-1.22.52-.44-.07-.16.26.03.12-.53c.07-.3.2-1.03.03-1.62Zm-52.49-186.3c-.07-.14-.14-.26-.19-.36.03-.01.05-.03.07-.05.04-.03.08-.05.12-.09-.01.16-.02.29-.03.34,0,.05.01.09.02.15Zm9.77,14.77s.07-.05.11-.07c0,0,0,.01,0,.03l-.11.05Z"/>
        <path class="cls-5" d="m316.49,160.97l.35-.36-.38-1.25-.52.06c-.54.07-.71.09-1.21.21v-.04l-.13.04-.15-1.1c-.12,0-.19,0-.36.02v-.05c-.27.03-.37.04-.79.11v-.03c-.71.08-.98.11-1.68.22v-.05c-.83.09-1.73.22-2.47.35v-.04c-.19.02-.39.05-.6.08v-.03c-.81.07-2.55.34-3.19.49v-.09c-.56.01-1.06.13-1.54.26-.24.05-.46.11-.67.14-1.25.18-1.26.18-3.49.63v-.03c-.93.16-1.27.22-2.06.4l-.04-.15c-.45.07-2.61.5-2.88.65l.03.09c-.17.04-.34.08-.54.13l-.09-.39c-.54.04-1.66.28-2.62.5l-.05-.22c-.89.01-2.78.45-3.89.78l-.04-.14s-.67.13-1.36.28l-1.23.09c-.91.07-9.83,1.91-11.27,2.71v.04c-1.05.24-2.95.73-3.33.96l-.46.28c-.1.03-.18.05-.28.08l-.38.02c-.98.24-3.87,1.16-4.37,1.58l-.24.19c-.13.03-.26.07-.38.1l-.19-.63c-1.39.05-6.81,1.91-11.75,3.72l-.34-.92c-1.06.38-3.05,1.08-5.22,1.94l-.48.19c-1.58.63-2.32.91-3.74,1.51-.1.04-.19.08-.29.13h0c-5.73,2.31-11.51,4.93-17.16,7.77-.91.44-1.82.87-2.73,1.3-.71.4-1.45.82-2.16,1.24-4.05,2.16-8.05,4.46-11.99,6.87-21.11,21.17-38.77,45.77-52.09,72.88-4.57,9.29-8.63,18.88-12.14,28.74,2.84-1.4,3.57-3.93,4.3-6.39.21-.7.41-1.39.67-2.04l.19.18.47-.31.14-.13c2.02-2.5,2.06-2.55,2.62-3.76.09-.19.14-.32.21-.41.32-.09.48-.17.86-.52.69-.63,1.16-1.38,1.61-2.12.47-.77.91-1.49,1.56-2,.22-.17.52-.26.87-.35.52-.14,1.18-.32,1.65-.91l.1-.12.09-.54c.56-.11,1.5-.27,2.09-.36h.3s.13-.07.13-.07c1.47-.72,1.51-1.71,1.4-2.22-.09-.46.04-.68,1-2.02.96-1.35,1.51-1.83,1.9-2.18.32-.28.69-.5,1.09-.71.42-.24.85-.49,1.25-.84.32-.26.73-.34,1.22-.43.34-.06.69-.13,1.06-.28.05-.01.09-.03.14-.06-.44.7-.69,1.38-.68,1.9,0,.51.26.91.68,1.08l.27.11.25-.13c.99-.52,1.87-1.09,2.97-2.2.15-.15.27-.19,3.11-1.37,1.92-.79,1.96-.81,4.58-2.33.56-.32.76-.52,1.05-1,.04-.08.11-.2.14-.35l.68-3.14h-.79c-1.28.03-1.88,1.04-2.37,1.85-.19.33-.36.56-.51.75h-.06c.27-.64.1-.97-.54-1.61q-.25-.25-.25-.56v-.78s-.14.03-.14.03c.38-.5.81-1.06,1-1.8l.08-.3-.04-.05c2-1.05,2.43-2.22,2.48-2.88.07-.64-.17-1.24-.61-1.53-.39-.26-1.08-.18-2.19.18,1.51-1.06,3-2.02,3.46-2.29l.99.11c-.32.13-.55.33-.72.84-.13.38-.05,1.55-.05,1.56.12.79.37.93,1.41,1.55l.21.12.24-.05c.35-.08.46-.14.85-.5l.13-.16c.51-.96.11-2.09.07-2.22-.21-.53-.56-.83-.87-1.01l4.4.44,3.77-1.86c-.15.14-.3.28-.45.42-.6.56-1.18,1.16-1.74,1.77-.66.69-1.34,1.4-2.05,2.05-.1.09-.14.11-1.49.97-.44.28-.55.72-.63,1.01-.03.09-.05.22-.09.26-.17.22-.4.39-.63.58-.28.23-.58.46-.84.79l-.11.17c-.08.15-.32.58-.11,1.01.1.2.32.46.84.55h.22c.21-.02.46-.06.73-.06h.19c.11.01.24.07.38.12.19.07.42.15.68.18h.17c.23.01.44-.03.62-.07.08-.02.15-.03.24-.05-.36.24-.84.61-.87,1.35,0,.11-.02.44.22.7l.28.24h.26c.32,0,.65-.16,1.42-.71-.02.21,0,.42.08.63.17.42.56.69,1.13.82h.17s.03.01.03.01c.57-.05,1.28-.41,2.7-2.59.24-.38.3-.69.32-.95l.09-.07-.13-.48h0c-.03-.1-.05-.2-.09-.28l-.05-.25-.08.02s-.04-.04-.07-.06c.27-.26.65-.55.99-.84l.16-.19c.19-.36.35-.67.05-1.1l-.03-.04c.1-.12.23-.25.36-.4.52-.55.91-1.49.36-2.33-.08-.12-.19-.2-.24-.24l-.24-.12h-.18c-.26,0-.45.1-1.07.45-.07.05-.15.09-.21.11.05-.1.11-.22.17-.35.09-.2.36-.73.07-1.2.41-.38.91-.83,1.3-1.21.4-.37.71-.67.76-.72,1.05-1.07,1.44-1.47,1.25-2.02-.02-.06-.07-.14-.14-.22l.44-.23q.66-.45,2.94-3.85c.48-.74.6-1.53.31-2.06-.05-.09-.11-.18-.2-.26.23-.46.25-.68.19-1.13l-.03-.15c.38-.22.7-.52.85-.94.14-.38.11-.77-.09-1.2l-.17-.37h-.28c-.12-.19-.22-.39-.32-.6-.05-.1-.11-.2-.16-.3.13-.46.17-.92.21-1.36.05-.54.1-1.06.32-1.5.08-.16.08-.17,1.47-1.23,1.03-.79,1.44-1.85,1.83-2.88.19-.52.38-1.01.65-1.44.91-1.54,1.98-3.03,3.02-4.46.58-.81,1.16-1.62,1.72-2.44l.33-.48-1.06-.81-.39.3c-4.66,3.7-6.44,5.1-7.37,5.49.19-.63.59-1.57,1.52-2.47.48-.45.99-.87,1.53-1.31.33-.26.67-.53.99-.82l.12.61.75-.42c.71-.41.77-.44,1.02-.7.15-.15.48-.52.33-.96l-.23-.49-.22.02c.09-.13.18-.24.26-.37l.2-.34-.23-.33s-.05-.11-.08-.19c-.06-.16-.13-.37-.3-.56.11-.28.8-1.2,1.51-2.13.06-.06.52-.72.8-1.47l.16-.44-.83-.61-.3.09c-.26.07-.5.14-.55.15-.03-.01-.07-.03-.11-.05,0-.03-.03-.09-.04-.13-.05-.26-.24-.92-.97-.92l-.28.05c-.23.08-.47.17-.81.36,0-.02-.01-.03-.02-.05l-.22-.5h-.23c.1-.07.18-.12.18-.13.26-.23.72-.62.58-1.12-.05-.19-.2-.43-.6-.51.16-.07.31-.14.41-.21.63-.38,1.15-.69,1.57-.94,0,.24.07.48.27.75l.19.3.37-.04s.11-.02.16-.04c-.29.33-.5.68-.55.91l-.05.39.42.47h.3c.28,0,.51-.15,1.06-.5l-.26-.42s.02-.02.03-.03l.34.38s.15-.13.26-.24l.03.03h.41c.13-.02.17-.04.54-.21l.15-.09s.88-.65.71-1.28l-.22-.52h-.48c-.38,0-.69.23-.93.48-.09-.06-.21-.09-.34-.12.24-.16.42-.29.42-.3.46-.39.71-.69.71-1.12.11-.13.38-.38.69-.66l1.9-2.21c1.02-1.36,1.11-1.56,1.14-1.71.09-.06.22-.13.4-.23.05-.03.08-.05.13-.07l.43.29.29-.1c.1-.03.23-.09.4-.21.01-.01,1.1-.82,1.14-1.44v-.09c.13.04.26.07.41.07.48,0,1.5-.2,4.72-1.94,1.29-.69,2.43-1.59,3.52-2.46.3-.23.6-.44.91-.68l.85.11c-1.26.7-2.61,1.63-2.94,2.17-.22.35-.14.63-.07.77l.12.27.3.07c.11.03.23.05.35.05.52,0,1.2-.28,2.04-.75-.18.13-.37.27-.59.43-.11.08-.4.3-3.46,1.8-.93.46-1.71,1.1-2.47,1.71-.47.37-.91.73-1.38,1.05-.36.05-.67.15-.98.26-.19.07-.38.13-.55.17v-.06l-.06-.6h-.6c-1.06,0-3.87,1.89-4.63,3.11-.38.6-.3,1.04-.17,1.3l.19.35h.38c.46,0,.83-.15,1.18-.28.03-.01.06-.03.09-.03l.24.06c.14.04.29.06.42.07-.13.63-.66,1.06-1.43,1.63-.81.6-1.79,1.34-1.94,2.62-.38.19-.75.57-.73,1.01l.05.65h.54c-.16.71-.3,1.62.56,2.44v.02c-.08.07-.18.14-.29.24-.38.34-.59.81-.62.99l-.02.36.44.46h.28l.29-.06c.14-.07.3-.17.66-.46.15-.11.22-.2.67-.81l.61-1.31-.28.04c.28-.28.56-.61.82-.99l.02.06c.07.22.19.6.64.6h.17l.14-.08c.54-.3,4.23-3.61,4.27-3.65,1.13-1.28,2.09-2.69,3.03-4.04.32-.46.63-.91.95-1.38-.13.32-.19.69-.15,1.12l.03.32.78.48,7.72-4.75.1-.07c.52-.5.72-.93.81-1.13l.11-.25-.1-.25s-.01-.03-.02-.05c.13-.13.19-.28.22-.38l.03-.14h.04s.28-.58.28-.58l-.16-.07.07-.29c.31-.4.6-.76.94-1.09l.42-.41-.35-.41c.05-.05.11-.11.15-.15.26-.25.76-.71.67-1.34.24-.17.73-.51,1.88-1.27t0,.01l.23.15.26-.06c.57-.13,1.09-.46,1.56-1.06.48-.75,1.24-1.25,2.04-1.77,1.02-.66,2.06-1.33,2.66-2.57l.13-.29-.09-.16s.03-.03.04-.05c.09-.09.19-.2.29-.37.6-.38,1.59-1.02,2.19-1.92l.59-.85-.52-.05c2.45-1.88,2.79-2.14,3.31-2.59.07,0,.14.02.22.03h.1s.09,0,.09,0c.28-.05.71-.29.71-.29.03-.02,3.53-1.99,3.8-2.81l.04-.36-.05-.07.36-.57-.5-.26.09-.25h-.17s.04-.05.04-.05l-.1-.87c.26-.13.5-.28.67-.42l.26-.22-.02-.13c.06-.05.13-.11.2-.15l.23-.17.22-.29.05-.78h.03s-.37-.83-.37-.83h-.44s-.35,0-.64.09l.26-.79c1.65-.63,2.92-1.12,3.91-1.49l-.05.18.82-.02c.27,0,.52-.04.77-.08l-.07.1.29-.04c-.09.11-.15.22-.19.34-.05.02-.09.04-.09.04-.28.12-1.44.67-2.04,1.12l-.05-.12.09-.3-.1.29-.15-.36-1.79.69,1.14.38-.03.05.22.24-.06.11h.05s-.17.13-.17.13v.28c-.48.25-.57.38-.65.63-.09.3.04.54.09.64l.13.26.24.05-.15.33.37.31c.17.14.38.21.65.21.48,0,1.54-.2,5.29-1.92.38-.18,1.4-.72,2.1-1.2l.36.09.17.02h.02c.22,0,.34-.06.93-.33h.02s.21-.1.21-.1l.14-.03.3-.16v-.02s.5-.26.5-.26l-.05-.03c.73-.13,1.96-.42,3.01-.83,1.15-.46,2.35-.84,3.52-1.22l.14.24-.24.17h.34v.02c-.54.19-1.12.36-1.72.51-1.69.46-3.46.93-4.85,2.32l-1.18,1.18,1.66-.11c.25-.02.55-.08.83-.18.19.1.38.17.6.2-.17.26-.38.5-.63.74l-.23.15c-.62.36-1.19.78-1.75,1.18-.81.58-1.56,1.14-2.42,1.52l-.23.09-.09.24s-.07.1-.12.17c-.07-.03-.14-.05-.2-.07h-.12s-.11,0-.11,0c-.44.03-.79.17-1.38.48h-.03c-.17.05-.34.08-.5.12-.97.27-4.11,2.3-4.31,3.8-.03.22,0,.42.07.61h0c-.45.28-.83.5-1.11.61-.07.03-.14.09-.22.13l.05-.19-1.06.89c-.14.07-.32.19-.44.38-.02.01-.03.03-.05.04q-2.19,1.51-2.46,1.89l-.34.47.35.29c-.24.15-.44.34-.47.65l-.02.31.18.19c-.25-.05-.5-.07-.75-.07-3.27,0-5.89,4.25-5.98,4.56l-.05.35.33.5.3.03s.04,0,.06.01c-.5.24-1.15.53-2.06.93v-.05s-.05.01-.05.01v.05s-.02.02-.03.03l-.05-.07-.08.05.03.07s-.03.01-.06.03h-.03s-.03,0-.03,0l.02.03-.18.13c-.24.27-.41.47-.54.65-1.71.18-4.47,3.04-5.13,3.86-.11.13-.2.26-.28.39-.99.57-1,.59-5.95,6.65l-.46.57.48.28c-1.55,1.11-2.57,2.02-2.67,3.2l-.09.28c-.13.68-.8,1.38-1.45,2.06-1.05,1.09-2.47,2.55-1.25,4.31l-.3.69,1.06.75.26-.06c.26-.05.48-.11.67-.15-.13.42-.2.77-.34,1.65l-.07.44.4.21c.28.15.66.33,1.07.5q.3.07.38.07h.1l.09-.03c1.77-.55,7.13-6.5,7.88-7.35.65-.39,5.96-3.63,7.48-6.74,1.17-.42,2.37-.81,3.56-1.2,2.06-.68,4.2-1.4,6.26-2.28,1.34-.57,2.57-1.36,3.77-2.13,1.51-.97,2.93-1.9,4.58-2.41.24-.07.49-.1.75-.13.34-.04.73-.09,1.12-.24q10.02-3.78,10.59-4.93l.22-.46c.89-.08,1.76-.68,2.51-1.72.71-1,1.33-2.49,1.37-3.58l.67.09.21-.22c1.85-1.75,1.88-1.79,2.1-2.34l.11-.28-.12-.21c1.1-.05,2.7-.75,3.46-1.77l.33-.47-.09-.07c.15-.04.35-.09.59-.15l.11-.03c1.2-.34,1.92-1.12,2.49-1.96.13.07.29.1.46.1.22,0,.46-.05.83-.24.19-.13.28-.18.38-.3.18-.21.42-1.08.44-1.14v-.35s-.04-.07-.04-.07l4.54-4.23-.11-.35,1.09-.52c.05-.03.12-.06.17-.09l.22-.17.63-1.22c.77-.4,1.38-1,1.94-1.56.17-.17.33-.34.5-.49h0l.22.03c.26,0,.41-.11.71-.32.04-.03.08-.05.15-.11l.33-.39-.07-.21c.5-.29,1.5-.83,3.96-2.12l.41-.22-.09-.42c.38-.12.77-.23,1.18-.34.96-.26,1.95-.52,2.9-1.1.36-.25.65-.69.83-1.02l.19-.36-.63-.79c.65-.2,1.27-.52,1.84-1.08l.4-.51s.07-.03.11-.05l1.63-.66-.32-.1c.07-.04.14-.08.21-.12Zm-158.79,105.22c-.28-.09-.58-.16-.88-.21.56-.3.71-.34,1.61-.4-.26.26-.52.47-.73.6Zm18.23-27.31c-.85,1.2-1.66,2.04-2.11,2.43.36-.52.91-1.26,1.75-2.37.15-.05.34-.13.52-.28-.06.07-.11.15-.16.22Zm30.98-34.32c-.09.16-.17.3-.26.39-.13.12-.27.24-.4.34-.24.19-.48.4-.71.66-.16.19-.27.35-.25.68l.03.5.26.04c-.27.09-.54.25-1.04.56-1.58.97-1.88,1.47-1.86,1.93l.02.32.26.17c.15.09.33.14.53.14.16,0,.35-.05.55-.11-.78.68-.96,1.01-1.11,1.37l-.52,1.29.42-.15c-.46.42-.95.88-1.51,1.4q-4.52,4.24-6.57,5.69c-1.57,1.11-2.56,2.65-3.52,4.15-.65,1.03-1.26,2-2.06,2.84-.53.56-1.14,1.03-1.75,1.46.19-.3.32-.63.22-.92l-.18-.4-.42-.08h-.07c-.17,0-1.02.28-1.45.65-.01,0-1.12.97-1.08,1.65l.13.67h.3c-1.25.72-2.53,1.46-3.65,2.45-.25.24-2.79,3.34-4.4,5.42.07-.18.09-.35.09-.49,1.04-1.34,2.36-3.02,4.05-5.18l.6-.77-.3-.39c-.2-.26-.52-.55-.84-.78-.16-1.34.44-2.49,1.08-3.7.47-.91.97-1.86,1.16-2.92l.14-.79h-.17c.79-.75,1.9-1.88,3.55-3.66l.2-.2-.07-.56c2.8-3,13.07-10.39,15.53-11.17h.03s.35-.04.35-.04c1.04-.46,1.18-.53,2.8-1.95.69-.13.97-.26,1.95-.93l.13.08c-.07.11-.14.24-.2.34Zm18.59-16.59c-.48.13-.73.21-1.41.55.3-.2.65-.44,1.01-.7v.11h.44s-.03.03-.04.03Zm3.68,4.58s.05-.04.07-.06h.01s-.08.06-.08.06Zm.7-.13s.06-.02.09-.03v.12s-.09-.09-.09-.09Zm1.89.1l-.03.04c-.12-.07-.26-.12-.43-.13-.22.01-.64.16-1.12.38l-.22-.28v-.15c.3-.12.7-.35,1.34-.77l.84.14-.07.05.35.26c-.22.12-.44.26-.66.46Zm3.25-2.99s-.04.03-.06.05l-.03-.07-.44-.11h-.1s-.13.03-.24.07l.48-.42.45.27-.05.22Zm.1-3.82c-.34.15-.78.42-.87.81l-.04.31.03.03c-.83.23-1.55.63-2.21,1.08l-.21-.05c.25-.21.43-.45.52-.71.13-.12.42-.28,1.77-1.02.38-.18.75-.4,1.14-.59l-.13.14Zm2.44-7.25s-.04.06-.06.09v.07s-.07.03-.1.05l-.06-.12c.07-.03.15-.07.22-.1Zm-.91.6c.17-.08.34-.15.52-.23-.15.08-.3.17-.43.24h-.09Zm2.98,1.98c-1.03.49-1.93.92-2.7,1.3l-.05-.09s.05-.03.07-.05h0c.89-.6,1.8-1.2,2.75-1.7l-.07.55Zm3.6-5.44l-.44.23.03.11c-.05.01-.13.03-.25.04-.05.01-.44.13-.96.32v-.03c.58-.26,1.18-.5,1.78-.75-.05.03-.11.06-.16.09Zm24.86-4.15h-.5s.03-.15.03-.15c0,0,.01-.01.03-.02l.67.05-.22.12Zm8.11,22.06c-.38-.1-.69-.17-.92-.24.32-.25.67-.52,1-.78-.14.69-.13.77-.08,1.02Zm4.11-27.24s0,0,.01-.02h.05s-.05.02-.06.02Zm13.02,12.96c-.09-.07-.2-.12-.35-.15.16-.19.34-.38.52-.54l-.17.69Zm5.1-5.56h.01s.29.15.29.15l-.3-.15Z"/>
        <path class="cls-5" d="m472.75,504.87l-.31-.15-.34.09c-.48.13-.89.37-1.44,1.12-.5.66-.67,1.4-.84,2.06-.15.6-.28,1.11-.6,1.49-.06.07-.13.13-.2.21l-2.68-.87,1.49,1.93c-.59.5-1.2,1.01-1.66,1.73-.31.47-.41.95-.51,1.37-.05.25-.1.47-.11.52-.03.04-2.98,4.13-8.03,5.48-1.57.42-5.5,1.84-5.84,2.53-3.3,6.5-3.43,6.76-1.94,11.44.97,3.02-.66,4.84-2.53,6.93-1.36,1.53-2.78,3.1-3.18,5.25-.02.08-.69,9.56,1.14,12.26,1.58,2.32,4.58,3.36,5.16,3.36.06,0,6.57-1.02,8.28-3.28,1.1-1.46,2.52-4.56,2.53-4.57.67-1.5,1.35-3,2.03-4.49,1.04-2.28,2.08-4.56,3.07-6.86.56-1.32,1.15-2.64,1.73-3.95.84-1.93,1.69-3.87,2.52-5.81.53-1.25.89-2.56,1.23-3.82.32-1.21.63-2.34,1.09-3.45.88-2.15,1.32-3.23,1.36-3.34.71-.34,1.46-.91,1.74-2.59.49-2.9.12-12.97-3.18-14.59Z"/>
        <path class="cls-5" d="m676.81,406.11c-.32-2.13-.53-3.18-.66-3.62-.4-1.39-1.01-2.64-1.94-2.81l-.11-.03h-.12c-.08.01-.15.05-.22.07-.2-.7-.55-1.74-.89-2.72.25-.18.46-.44.56-.89.06-.26.03-.47,0-.59-.17-1.2-.97-1.28-1.31-1.31h0c.06-1.47-.03-2.88-.08-3.47-.18-2.24-.56-3.47-.91-4.57h0v-.03c-.73-3.39-2.85-6.88-5.26-10.32l-.32-.93-.23-.62h-.56c-.43-.59-.86-1.19-1.3-1.78-3.54-4.85-7.19-9.85-7.33-14.19.55,1,1.06,1.64,1.49,2.06l.4.3,1.37-.13-.84-6.42s-.12-.5-.29-1.18h0c.54-.59,1.18-1.15,1.94-1.69.84.62,1.38,1.55,1.97,2.52.44.75.92,1.52,1.54,2.22-1.32,1.03-1.67,3.22-1.67,3.85-.02,1.68.95,4.36,2.29,5.42.48.38.98.58,1.49.58.41,0,1.01-.13,1.55-.75,1.02-1.16,1.34-3.52.91-6.67-.14-1.12-.8-2.39-2.19-2.82l-.03-.34.11-.11-.06-.51c-.06-.46-.15-1.01-.26-1.5l-.06-.6-.35-.02.24-.09-.13-.35c2.71-2.95,3.45-3.81,3.65-5.35l.06.03.48-.3c2.53-1.59,3.84-2.51,4.44-4.62.39-1.34.49-3.15.43-5.92.9-4.61-2.79-23.69-5.99-28.21-.32-.45-.65-.78-.99-.98-1.47-4.81-1.65-5.35-2.41-6.23-.15-1.3-1.38-3.44-2.9-5.65-2.78-4.06-6.57-8.39-6.65-8.45-1.82-1.43-3.58-5.8-3.48-8.66.03-.87.24-1.5.57-1.74l.54-.36-.13-.63c-.38-1.86-.91-2.87-2.17-4.15l-.29-.29h-.4c-.52,0-1.06-.21-1.62-.43-.55-.22-1.2-.46-1.9-.54l-1.01-.09-.05,1.02c-.01.3-.01.61,0,.91-1.68-1.71-4.2-4.36-5.12-5.67l.47-.32.05-.45c.24-2.41-.48-4.57-1.17-6.64-.11-.32-.22-.64-.32-.95,1.46,1.84,3,5.4,3.64,7.56l1.73,2.56.67-1.61c.43-1.02.36-2.03.31-2.93-.03-.61-.07-1.14.03-1.64h.02c1.77,1.13,2.69,2.95,3.66,4.89.78,1.51,1.57,3.09,2.84,4.39l.03.03c-.6-1.29-1.2-2.58-1.82-3.87-21.46-44.75-54.68-82.79-95.65-110.11-34.91-23.3-75.46-38.81-119.17-44.06,2.89.47,9.01,1.92,13.78,7.09,2.19,2.38,5.37,6.93,4.06,8.74-1.92,2.66-11.93-2.73-13.51-.26-1.26,1.96,4.23,6.75,3.18,8.21-.67.93-3.86.35-12.63-3.97.49,1.58-.23,3.21-1.55,3.82-1.04.48-2.33.27-3.27-.54l-.94.11q-1.77-.07-6.72-2.44l-.06-.03-.81-.4-.24.51-.75,1.58.26.44c.93,1.6,2.42,2.39,3.88,2.99l.54,1.19.68,1.06,1.71-.98c.69.39,1.27.87,1.67,1.58-.03.07-.06.14-.09.21-1.3-.93-2-.93-4.13-.39l-.43.11-.32.67c-.56.13-1.1.46-2.95,1.68-.19-.19-.37-.44-.56-.7-.07-.09-.15-.2-.24-.31l.11-.14-.05-.44c-.03-.26-.15-.46-.29-.61l.03-.11h-.15c-.09-.08-.17-.14-.22-.17l-.5-.16-.73.09-.06-.07-1.14-.81-.47.35s-.13.09-.22.2l-.41.61.24.54c.11.25.32.46.57.61l-.14.36c-.3.24-.68.43-1.1.63-.17.08-.36.18-.55.28l-.32-.87-.87,1.7-.32.28.06.17c-.27.46-.62.89-.98,1.34-.54.65-1.1,1.3-1.48,2.16-.3.69-.16,1.34-.03,1.87.03.2.11.55-.02.72-1.12.72-2.63-.8-3.01-1.28.04-.05.09-.09.13-.13.3-.28.6-.54.87-.85l.34-.36-.09-.48c-.56-2.94-3.8-3.97-6.43-3.97-.62,0-1.47.06-1.96.36l-.99.59.75.88c3,3.48,4.17,6.35,4.63,7.94-3.97-2.76-5.39-6.96-5.46-7.49.02-.17.03-.41.02-.59-.02-.79-1.51-3.96-1.51-3.97-.15-.3-.29-.62-.3-.67.01-.07.11-.28.2-.46q.13-.28-.05-2.49c-.15-1.98-.08-2.2.12-2.78.05-.15.19-.34.34-.54.24-.31.55-.72.67-1.24-2.51-.24-4.93-.55-7.21-.95-.26.15-.5.37-.67.69-.26.47-.32.73-.42,1.5-.18.27-.56.83-.3,1.55l.49,1.43c-.04.07-.07.13-.1.18-.03.07-.09.16-.05.16l-.52.09-.18.51c-.07.25-.14.61.02.96.26.59.71.89,1.04,1.11.15.09.28.19.35.28.18.21.3.51.43.86.08.22.17.44.27.65.09.19.07.5.05.83-.03.69-.09,1.72.85,2.52.06.05.09.09.15.13-3.46-1.94-7.49-3.7-10.49-3.7-.36,0-.72.01-1.02.07l-.26.03c-.23-.01-.5-.03-.76-.07-.03-.1-.03-.2-.04-.28l-.02-.42-.34-.28c-1.06-.86-2.55-.77-3.87-.48-.42.1-.82.19-1.18.21.43-.25.88-.51,1.3-.89l.5-.46-.26-.63c-.75-1.79-1.84-2.12-3.68-2.12-.54,0-1.19.03-1.98.07-.13-.76-.54-1.47-1.92-1.69l-.29-.05-.27.12c-.79.36-1.18,1.04-1.45,1.53-.15-.12-.31-.22-.47-.3-.13-.19-.27-.42-.36-.6l-.22-.41-1.48-.26-.36.3c-.24.22-1.12.81-2.06,1.36l.07-.2-1.46.49-.71-.24-.14.4-.89.05-.95,1.16.07.4h-.09v.05c-.25.13-.54.25-.87.36-.52.17-1.08.39-1.62.75-.22-.16-.47-.21-.65-.22-.26.02-.62.15-.89.62l-1.02-.24-.83,1.35-2.45.02,1.52.85s-.09.09-.13.14c-1.27.1-2.11.56-2.5,1.35-.02.03-.04.07-.05.11l-1.65.06-.26.22c-2.27,1.94-2.89,2.47-2.57,3.72l-.09.2h-.05l-.23.2c-.52.14-.72.21-.92.38-.3.22-.48.56-.48.91-.01.35.15.69.45.95l.45.3.85-.24.17-.12c.12-.1.28-.26.46-.45l.05.06.5-.07s.09,0,.14-.02c-1.82,1.22-2.73,3.04-3.61,4.79-.69,1.37-1.34,2.65-2.39,3.58l-.3.27-.02.27c-.36.96-3.89,10.02-9.48,10.57l-.73.07-.29,1.73.05.08c-1.5.73-4.82,2.43-5.32,3.04l-.24.59s-.01.05-.03.08c-.07.01-.15.03-.22.04l-.28.05c-2.24.5-2.38.97-4.09,6.71-.4,1.35.24,2.38.73,3.13.3.5.56.91.54,1.31-.01.28-.19.47-.6.87-.32.3-.66.63-.91,1.09l-.19.36.44,1.39.4.18c.06.02.11.05.18.08-.01,0-.02.02-.03.03-.44.44-1.18,1.16-.92,2.36.26,1.16,2.06,2.48,2.89,2.94.49.26,1.63.88,3.11.88s2.98-.63,4.33-1.88c.65-.59,1.38-1.1,2.15-1.64.88-.62,1.79-1.24,2.59-2.03,1.06,1.22,1.2,2.76,1.34,4.52.09,1.02.19,2.05.47,3.06h-.19l.73,1.41s0,0,0,.02l.13.28h.01c.83,1.61.99,2,.85,2.68-1.68.26-2.08.46-3.68,1.84l-.35.3v.45c.01.15.02.29.04.44-.18-.26-.36-.51-.54-.76.12-.21.26-.42.42-.63.41-.58.87-1.23,1.06-2.08l.13-.56-1.03-.91v-.85l.11-.22c.15-.3.38-.75.52-1.3.18-.81.09-1.46-.29-1.93-.35-.42-.82-.58-1.23-.58h-.01c-.87.05-1.29.2-3.04,1.47-.82.6-1.1.77-1.62,1.04l.02.07-1.48.63-.13.38c-.7,2.08-.34,4.18.03,6.21.5,2.79.92,5.19-1.23,7.36-1.49,1.5-3.47,1.7-5.57,1.9-1.82.17-3.7.35-5.4,1.39-1.46.89-2.08,2.29-2.62,3.53-.39.89-.76,1.72-1.38,2.3-4.6,4.26-8.64,8-11.53,8.72-.17-.55-.3-.91-.31-.92l-.11-.25c-.3-.59-.79-.96-1.16-1.24-.29-.22-.53-.4-.64-.61-.22-.41-.29-.92-.38-1.47-.11-.75-.24-1.6-.76-2.39-.19-.29-.22-.32-1.58-1.31.19-.33.49-.77.72-1.06,2-2.37,2.68-3.83,2.25-4.91-.38-.98-1.47-1.11-2-1.17h-1.08c.37-.31.74-.67,1-1.2.26-.56.29-1.06.07-1.49-.03-.07-.08-.11-.13-.17l.82-.81v-.39c-.01-1-.76-1.13-.9-1.14h-.09s-.09,0-.09,0c-.54.05-.8.49-.9.67l-.19.33.29.72h-.09s-.12,0-.12,0c-3.06.17-3.73.32-5.38,2.25.07-.5-.16-.94-.65-1.2l-.81-.15-.17.05c-1.65.48-2.03,1.45-2.39,2.69l-.13.19.06.06s0,.03,0,.03l-.45,1.62,1-.3c-.13.34-.17.81.19,1.45.23.39.39.65.18,1.3-.01.03-.06.13-.1.2-.15.24-.38.63-.36,1.14.01.44.21.76.43,1.08-.04.06-.09.11-.11.13-.01,0-.01.01-.02.03l-.09-.12-.44.65s-.07-.01-.13-.01l-.4.1-.24.2c-.09.09-.24.2-.36.38l-.11.18-.03.5.03.15c.13.54.57.91,1.12.91l.27-.03c.07.26.17.5.34.77l.23.33.34.05c-.09.24-.14.5-.15.8-.2-.56-.48-1.04-.72-1.31-.44-.5-.68-.54-3.5-.96l-.15-.03-.13.03c-1.08.15-1.54.22-2.27.62-.83.44-1.23,1.2-1.55,1.81-.29.55-.49.91-.85,1.06-.17.08-.52.05-.83.02-1.08-.11-2.02.09-2.64.86-.12.16-.22.34-.26.44-1.19,2.76-1.19,3.53-.56,4.56.05.08.13.21.03.46-.15.43-1.56,2.11-2.2,2.56-.73.5-.92.91-1.14,1.47-.12.32-.19,1.08.04,1.69.36.93,1.5,1.92,3.17,1.92.21,0,.41,0,.63-.04.19-.03.65-.09,1.32-.34l.3-.11c.57-.23,1.12-.5,1.67-.79.44-.22.89-.44,1.34-.64.32-.13.69-.2,1.07-.26.68-.13,1.43-.26,2.12-.75,2.66-1.82,2.9-5.12,3.02-6.71.03-.46.34-.73.87-1.2.42-.36.89-.77,1.2-1.37.33-.65.36-1.36.26-2.03.03.05.05.12.09.19.38.63.97.98,1.7.98.32,0,.63-.07.9-.13.13-.03.24-.05.37-.07.27.71.76,2.17.82,2.33,0,.19-.25.69-.32.86-.36.75-.55.83-.86.9-.17,0-.34-.04-.5-.07-.53-.1-1.07-.15-1.56,0-1.68.53-1.45,1.98-1.2,2.89-.2.19-.37.41-.5.67-.23.46-.28.98-.15,1.53-.02.01-.03.02-.05.03-.63.3-1.43.68-1.88,1.57-.11.24-.24.52-.21.87.11,1.23.9,1.39,1.59,1.52.32.07.65.15.99.28-.93.5-2.18,1.7-4.99,4.43l-.26.24-.07,1.12.77.84h.42c.65-.01.65-.03.95-.07.5-.09.91-.29,1.26-.47.27-.13.5-.26.72-.3.22-.04.44,0,.67.03.41.04.83.07,1.24-.01.74-.15,1.26-.59,1.67-.95.29-.25.53-.46.77-.52.38-.11.91-.09,1.42-.05.29.02.57.04.86.04h.29s.9-.09,2.12-.23c.59,4.53-2.37,9.54-2.95,10.01-1.34.56-2.83.83-4.52.83-1.96,0-3.93-.35-6-.72-2.08-.36-4.21-.75-6.35-.75-2.7,0-5.03.65-7.11,1.94l-.4.24-.05.46c-.38,3.3-1.13,6.62-1.86,9.84-1.18,5.23-2.39,10.65-2.18,16.26l.02.53.46.27c5.22,3.15,10.2,4.75,14.82,4.75,6.78,0,11.46-3.46,14.2-6.34,2.47-2.62,4.12-5.64,4.09-6.28-.11-2.23-.17-3.47-.03-3.81,1.14-1.7,2.91-2.65,4.78-3.65,1.71-.91,3.47-1.85,4.83-3.44,1.04-1.22,1.28-2.7,1.51-4.02.24-1.41.42-2.63,1.46-3.46.91-.73,1.93-1.08,3.31-1.08.85,0,1.71.11,2.61.24.93.13,1.9.26,2.87.26,1.58,0,2.83-.35,3.98-1.1,2.61-1.72,4.19-2.75,5.38-2.75.65,0,1.26.3,2.07,1.01l2.9,2.62-.35.28c-.36.03-.86.17-1.24.72l-.4.61-.73.58c-.07-.22-.17-.44-.3-.63-.32-.44-.76-.69-1.43-.74-.03,0-2.95.41-3.71,2.53-.03.08-.7,2.07.91,4.6.12.18.28.34.44.47-1.22.54-2.65,1.49-2.87,2.35-.13.48-.06.73.08,1.29.04.15.18.75.24,1.69.03.55-.01,1.1-.04,1.66-.03.63-.05,1.24-.03,1.88.01.13.03.27.05.44,0,.2.14,1.12.77,1.75.41.4.97.62,1.62.62,1.52,0,3.17-1.18,3.5-1.52.69-.68.77-.91.92-3.3h.15v-.96c.09-3.39.09-5.25-1.71-5.99,0-.01.03-.02.03-.03.89-.93.98-1.36,1.47-3.69,0-.02.25-1.21-.03-2.26l.98-.07,1.38.4.38-.27c.11-.07.2-.15.35-.28l1.29-.09-.37-.74.05-.05,16.58,15.03c.83,1.59,1.03,2.81.59,3.61-.89,1.62-4.44,1.88-6.79,2.06-4.54.36-4.71.37-5.69,1.19l-.52.44.25.64c1.2,3.11,9.72,5.87,9.81,5.9l.54.15.4-.39c1.07-1.07,1.25-2.36,1.4-3.5.05-.41.1-.81.19-1.18l.7-.26c4.39-.54,4.54-4.36,4.67-7.46.06-1.29.11-2.62.45-3.65.63-.09,1.23.26,1.95.67.51.3,1.06.62,1.67.8l.73.21.38-.65c.64-1.11.8-2.15.5-3.06-.58-1.71-2.53-2.54-4.61-3.42-1.89-.81-3.84-1.63-4.38-3.01l-.18-.45-.47-.12c-8.55-2.22-11.37-8.27-11.69-11.16-.13-1.28.17-2.15.54-2.32.15-.08.34-.15.53-.22.25.41.67,1.18,1.36,2.4l.25.44.49.05c5.36.56,14.42,8.06,16.54,10.03,1.74,1.68,2.41,3.89,3.09,6.23.46,1.54.95,3.13,1.75,4.61.35,1.9,1.74,3.13,2.97,4.23.58.5,1.07.97,1.46,1.42-.2.03-.54.1-.87.44-.51.54-.59,1.07-.56,1.43.04.5.3.94.72,1.27.19.15.45.23.77.28-.03.06-.07.11-.09.19l-.18.55-.22.22h.13s-.03.1-.03.1l1.74.68.45-.43s.05-.05.07-.08c4.18,4.49,4.5,4.69,7.21,4.78h.4s1.5-1.41,1.5-1.41v-.43c-.05-1.16-.05-1.25.81-2.91,1.25-.05,1.8-.27,3.37-1.59l.53-.44-.26-.64c-.73-1.92-2.2-3.2-3.64-4.45-1.38-1.21-2.63-2.3-3.17-3.84.67.24,1.42.51,2.24.56h.43s.31-.29.31-.29c.28-.28.3-.3,1.86-2.79,1.5.16,2.73.3,3.68.45l-.8.69c-.36.07-.6.16-.85.48-.42.51-.42,1.15-.03,1.65.3.39.73.61,1.2.61.74,0,1.33-.54,1.4-1.3.01-.15,0-.57-.29-.95l.65.14.3-.65.29.26-.26-.32.08-.17c.21.09.37.2.46.33.4.54.07,2.13-.43,4.5l-.11.51,1.22,1.24.48.3h.42c.12,0,.24,0,.34,0-.51.21-1.08.47-1.55.75l-.93.54.63.87c.8,1.08,1.02,1.24,2.8,2.09l.06,1.12.32.28c2.59,2.17,4.27,3.58,5.55,4.54-.63.2-1.16.73-1.16,1.68,0,.13.03.27.08.4l.08.28,1.04.71.99-.2.17-.15c.19-.17.22-.2.68-.89l.24-.47c1.11.54,2.06.68,3.66.87.3.05.69.05,1.03.05h.75c1.12,0,2.22-.06,3.32-.13,1.06-.06,2.14-.13,3.2-.13,1.49,0,2.73.13,3.87.43.62.15,1.25.24,1.89.24,1.95,0,3.68-.73,5.35-1.42,1.28-.53,2.51-1.04,3.75-1.22-2.76,17.86-3.17,20.37-3.93,20.73-.36.03-1.59.1-3.68.11h-.95c-1.75,0-3.41-.01-4.99-.04.12-.32.24-.69.38-1.12l.24-.73-1.08-1-.42.05c-3.91.48-4.26.6-5.15,1.03-.8.38-1.62.79-1.98,1.52h0c-15.06-.75-20.97-2.8-23.2-4.59-1.34-1.07-3.84-1.78-6.38-1.78-1.75,0-4.97.36-6.74,2.7-1.18,1.58-1.41,3.65-.69,6.19.05.17-.04.72-.48,1.31-.33.44-1.08,1.18-2.41,1.18h-.22c-1.9-.13-3.5-1.13-5.19-2.19-1.78-1.12-3.63-2.28-5.95-2.47h-.09c-1.28-.45-2.16-1.51-3.09-2.63-1.08-1.31-2.29-2.79-4.29-3.34-1.53-.42-3.1-.5-4.62-.59-2.02-.1-3.93-.21-5.53-.98l-4.32-3.21c.92-1.86,1.18-3.85,1.43-5.77.24-1.82.46-3.53,1.21-5.09l.38-.79-.77-.44c-1.98-1.18-3.18-1.88-6.76-1.88s-10.12.72-24.08,2.28c-2.89.33-5.26,1.94-7.55,3.51-2.43,1.67-4.73,3.24-7.49,3.24-.93,0-1.88-.18-2.87-.55-1.96-.72-3.99-1.12-5.95-1.5-1.61-.31-3.27-.64-4.83-1.14l-.55-.17-14.63,13.87-3.76,9.22-.07.27c-.61,6.53-5.19,8.99-10.05,11.59-2.94,1.57-5.98,3.21-8.13,5.8-1.76,2.13-12.21,18.09-12.27,18.19-.87,1.58-1.17,3.21-1.28,4.31-.24,2.44.28,4.8.77,7.08.69,3.16,1.34,6.15.1,9.19-4.41,10.8-4.53,11.1-3.09,15.7-.62,3-1.61,8.29,4.58,9.96,1.41,5.52,13.52,26.15,28.53,32l.38.07c.22,0,25.68-1.46,30.42-3.58,8.11-3.63,11.13-4.99,14.42-4.99.64,0,1.32.05,2.11.15,2.43.33,3.35,2.23,4.44,4.42,1.16,2.35,2.47,5.01,6.02,5.48h.35c4.16-.33,6.9-.54,8.75-.54,3.05,0,3.21.36,4.24,2.68,1.94,4.43.32,8.24-1.4,12.26-1.06,2.49-2.16,5.06-2.39,7.83l-.02.24.08.22c1.98,4.86,5.25,8.94,8.42,12.88,3.88,4.83,7.54,9.4,9.11,15.35q3.53,13.37-2.62,25.97c-6,12.31-3.3,17.27,1.16,25.44l5.94,12.37c1.24,3.13,1.64,6.4,2.06,9.85.4,3.27.83,6.64,2.02,9.86,1.22,3.34,3.23,6.29,5.16,9.13,2.6,3.83,5.05,7.45,5.82,11.97q.29,1.68-.81,3.34l-.26.4.17.45c2.2,6.08,7.31,9.15,15.18,9.15,5.66,0,11.7-1.65,15.78-3.04,5.59-1.9,26.5-16.23,31.02-26.58,2.25-5.1,2.27-6.35,1.65-9.05,1.1-1.49,2.9-2.04,4.82-2.63,2.45-.75,5.22-1.59,6.58-4.63,1.34-3.03.29-5.88-.74-8.62-1.16-3.11-2.16-5.8.13-8.64,3.13-3.84,7.25-6.21,11.62-8.72,3.35-1.94,6.82-3.93,9.76-6.66l-.04.61,1.91-2.59c2.1-2.86,2.78-5.39,2.8-5.48.36-1.29.32-2.56.3-3.77-.02-.7-.03-1.39.03-2.08l.09-1.08c.07-.66.11-1.33.18-2,.1-.92.03-1.81-.01-2.67-.04-.42-.07-.83-.07-1.24-.01-.97.17-1.92.38-2.93.12-.64.25-1.26.33-1.9.23-1.94-.99-2.97-1.88-3.72-.42-.36-.82-.69-.98-.96q-4.19-9.52.53-24.12c.48-.83.81-1.7,1.13-2.55.5-1.28.96-2.5,1.85-3.44.6-.65,1.28-1.2,2.01-1.79,1.06-.85,2.17-1.74,3.02-2.96,3.53-5.02,8.15-9.23,12.61-13.29,5.03-4.59,10.23-9.32,14.01-15.32,1.73-2.72,10.3-16.98,10.12-29.86-.05-2.97-1.89-3.19-2.45-3.19-.36,0-.73.07-1.12.2l-.23.12c-1.43.85-21.77,6.17-22.8,6.41-1.06-.09-4.9-3.89-5.33-5.02.32-1.51.41-2.45-.02-3.5.5.3,1.05.43,1.69.48h.11c4.13-.08,5.06-.89,5.94-2.05.38-.5.71-.93,1.53-1.12.48-.11,1.17-.1,1.87-.06,1.1.04,2.1,0,2.93-.27.71-.25,1.28-.63,1.85-1.01.34-.24.71-.48,1.22-.72,16.3-5.16,39.44-24.62,39.96-36.77.12-2.74-.85-6.48-6.18-8.67-.87-.36-1.77-.57-2.63-.77-1.55-.36-3.02-.71-4.09-1.84-.9-.96-1.16-2.25-1.42-3.64-.19-.97-.38-1.96-.8-2.89.29.29.56.63.81,1.02,1.12,1.69,12.99,3.67,18.41,3.67,1.12,0,2.06-.07,2.78-.22,4.07-.79,6.9-1.17,8.87-1.17,3.92,0,4.54,1.34,6.06,4.57l.12.25,9.91,6.48-2.71.43.57,1.17c.03.08,4.3,7.94,8.81,7.94,1.67,0,3.05-1.01,4.13-2.99,2.66,6.37,5.01,12.94,7.31,19.32,1.6,4.45,3.25,9.06,4.99,13.54.27.72.51,1.45.76,2.18.36,1.09.74,2.23,1.2,3.33.56,1.3,1.33,2.45,2.08,3.56.76,1.14,1.49,2.23,1.98,3.44q1.77,4.44,2.13,6.26c.15.78.4,2.07,1.55,4.04,1.23,2.1,2.45,3.11,3.74,3.11,1.53,0,2.31-1.47,2.46-1.76.18-.38.31-.79.43-1.2.13-.44.26-.85.46-1.17.06-.1.22-.21.4-.34.23-.15.49-.33.72-.58.23-.25.4-.59.5-.76.29-.6.42-1.24.53-1.8.1-.51.19-.99.4-1.38.11-.23.32-.45.57-.7.4-.43.91-.95,1.11-1.75.35-1.39,0-2.65-.32-3.76-.19-.67-.38-1.3-.39-1.91-.03-.77.15-1.55.34-2.37.19-.84.4-1.72.4-2.66-.01-1.1-.32-2.07-.64-3.01-.14-.45-.28-.89-.38-1.3q-1.4-8.04,4.96-15.19c2.78-3.13,3.97-6.93,5.12-10.61.85-2.7,1.65-5.26,3.03-7.57,1.12-1.88,2.95-2.36,5.09-2.93,1.44-.38,2.92-.77,4.2-1.63,12.95,18.27,12.95,20.47,12.95,23.02,0,3.14.43,3.95,1.24,5.25l.29.29c.78.5.77.5,1.2.5,2.46-.27,2.77-.56,5.16-3.6,1.73,2.26,2.47,4.96,3.23,7.8.36,1.28.75,2.6,1.2,3.89h-.14l.64,1.35.26.59h.03c.05.11.1.22.16.32.22.4.45.81.74,1.96,2.33,9.13,1.91,15.74,1.8,16.97-.26,2.79.17,4.19,1.69,5.41.5.73,4.3,6.43,4.75,10.89,1.09,10.63,4.69,15.56,8.05,19.13-.15-.13-.3-.24-.44-.35-.43-.3-.79-.56-.99-.91-1.12-1.79-2.35-3.51-3.54-5.19-.73-1.02-1.47-2.04-2.17-3.07-.48-.72-1.06-1.32-1.6-1.92-.54-.58-1.05-1.13-1.46-1.74-.38-.56-.65-1.2-.93-1.89-.43-.98-.86-2-1.66-2.9-1.04-1.18-2.39-1.48-3.59-1.74-.72-.16-1.38-.32-1.92-.63l-.39-.16-.67.15c-.52.18-.91.54-1.14,1.02-.52,1.11-.07,2.64.38,3.88.13.3,1.24,3.06,3.58,5.25.89.84,2.59,4.16,3.86,6.81.01.03.02.05.03.07.04.07.07.14.1.21.02.03.03.07.05.11,0,.01.01.03.02.04,0,0,0,.01.01.02.62,1.32,1.11,2.42,1.31,2.9l3.36,10.02c.13.46,1.14,5.78,1.2,6.16.07.46.24,1.56,1.02,3.41.08.22.19.46.29.67.07.15.13.28.21.44l-1.05-1.64-1.7,1.44,1.18,1.94,1.73-1.41c3.23,6.77,5.36,10.84,6.31,12.07,2.2-6.42,4.17-12.95,5.9-19.57-.26-.19-.55-.28-.84-.28-.71,0-1.14.5-1.43,1.06-.07-.37-.15-.83-.26-1.41-.18-1-.88-1.53-1.38-1.92-.3-.24-.56-.43-.64-.65-.05-.13-.02-.36.02-.61,0-.06.02-.12.03-.2v.13s1.92.04,1.92.04l.06-.4.4-.17.2-.41c.07-.17.22-.47.18-.84-.08-.73-.51-1.22-1.28-1.29-.5.04-.76.31-.93.67l-.17-.04-.22,1.27-.13.35v-.06c-.38-4.14-.44-4.59-1.28-6.59l.46-.05c.95,1.12.99,1.15,1.18,1.28l.29.18h.3c.52,0,.87-.38,1.11-.65l.16-.26c.33-.73.02-1.37-.15-1.76-.22-.46-.6-.7-1.06-.8.31-.69.33-1.02.26-1.74-.16-1.54-.64-2.99-1.09-4.38-.48-1.47-.93-2.86-1.04-4.31q-.44-6.13-.63-6.73c-.87-2.68-3.52-6.91-6.42-9.38-.51-.44-.62-.72-3.81-10.01l-.02-.04-.11-.35-.38-.17c-1.9-.87-1.76-10.16-1.16-15.62.03.1.05.21.08.33.22.91.6,2.42,2.51,2.62.6.08,2.23,2.09,2.95,3.28,1.86,3.89,1.9,3.95,4.04,6.87l.69.95.69-.75c.35.45.42,1.14.47,1.96.26,3.82.34,4.97,1.98,5.08l.69-.22.31-.28.23-.32c.37-.83.64-1.67.91-2.49.15-.5.3-.98.48-1.44h.31l.5-.06.28-.29c.36-.38.48-1,.49-1.46.19.1.38.15.51.15l.55-.07.25-.29s.03.05.06.07l.05.06-.17.5q-.15.46.49,4.84c.14.91.17,1.16.47,1.55,0,.02.43.58,1.01.76,0,.14,0,.28,0,.43,0,.28-.04.56-.08.83-.06.5-.14,1.05-.05,1.64.03.3,1.07,3.06,2.23,3.06h.23s.2-.1.2-.1c.49-.26.69-1,.75-1.88h.03l.53-.07.28-.29s0-.01,0-.02c0,.17,0,.33,0,.48-.03.47-.17.96-.32,1.47-.09.27-.16.54-.23.81-.19-.15-.42-.24-.7-.26l-.4-.02-.3.29c-.52.53-1.63,3.77-1.65,3.82-.22.87-.19,1.75-.13,2.88.07.96.24,1.46.62,1.78l.15.15h-.05s-.25.31-.25.31c-.24.3-.36.76-.31,1.24.01.13.07.4.19.65.1.18.22.31.3.4l.75-.52-.71.57,1.36,1.72.11.13.11-1.47.08-1.08c.01-.22.04-.42.03-.6,0-.63-.28-1.11-.78-1.3l.17-.15c.34-.26.42-.4.7-1.33.16,0,.32-.03.45-.07,0,.01,0,.02,0,.03.71-5.02,1.28-10.08,1.71-15.19-.05-.18-.1-.36-.12-.53,0-.08-.03-.22-.03-.34.07-.12.13-.25.18-.4.01-.03.07-.21.11-.44.09-.63,0-1.24,0-1.24ZM354.48,141.51h.01c.23.06.46.29.41.42-.05.09-.2.12-.48.2l.48-.2-.5-.22v-.08s.07-.13.07-.13Zm-2.89-.12l.13.11h.03s0,.14,0,.14c-.05,0-.11.03-.15.03-.03-.09-.08-.18-.11-.28h.11Zm-6.35,4.26c.09.44.27.79.36.91l.03.03c-.17.03-.4.03-.63-.02.09-.3.19-.61.25-.93Zm20.54,52.47s-.05.04-.05.04c-.19-.07-.58-.55-.82-.84-.54-.67-1.15-1.43-2.06-1.65-.28-.07-.56-.11-.83-.11-.09,0-.17,0-.26.01.44-.19.83-.45,1.18-.69.45-.3.89-.59,1.22-.59.05,0,.22,0,.5.2,2.18,1.56,1.37,3.21,1.11,3.63Zm7.62-11.05c-.82-.25-1.96-.61-3.34-.61-1.63,0-3.25.46-4.94,1.43-.51.28-1.2.79-1.63,1.35-.17.24-.29.48-.38.73-.25-.15-.55-.27-.92-.28-.48,0-.92.22-1.22.58-.27.32-.39.73-.34,1.1.05.3.26.67.58.94-.6.35-1.18.79-1.36,1.49-.09.35-.1.89.32,1.55l.36.53.27-.05c-1.32.61-2.09,2.07-2.57,3.15h-.07l-.2.62-.49,1.12h.25c-.07.97.11,1.91.29,2.76.34,1.62.5,2.66-.37,3.69-.73.85-2.32,2.29-3.74,2.29-.7,0-1.32-.35-1.9-1.09l-.26-.32-.42-.04c-3.33-.26-5.89,1.29-8.34,2.78-1.33.81-2.59,1.59-3.95,2.06-1.18-1.03-1.18-1.12-1.18-2.08v-1s-.99.03-.99.03c-1.86.06-3.99.73-6.36,1.99-1.45-.85-2.28-1.34-2.74-1.69,1.52.49,2.71.82,3.68.82,2.04,0,2.88-1.41,3.29-3.35l.13.22.49.04c.16.02.32.03.48.03,1.58,0,2.74-.82,3.75-1.55.55-.4,1.08-.77,1.62-1l.86-.09c4.42-.42,5.18-2.19,5.7-4.47l.24-1.04-1-.13.11-.52-.55-.22c.35-5.31,1.2-5.77,2.7-6.6.72-.39,2.06-1.12,2.6-2.41,1.57-3.74-1.03-6.21-2.81-7.08q-.97-.48-.68-3.65c.1-1.09.2-2.06.25-2.52.28-.89.4-1,5.63-5.48,1.77-1.54,2.23-3.62,2.63-5.44.22-1.05.44-2.03.86-2.89.5-1,1.32-1.47,2.61-1.47s2.57.49,3.15.73c-1.42,1.18-2.33,2.72-3.22,4.22-1.1,1.88-2.15,3.65-4.09,4.56l-.52.25-.03.59c-.48,11.02,1.02,12.38,3.52,13.58l.69.4c.42.11.43.12.58.12.29,0,.55.21.97.55.54.44,1.2.98,2.2.98h.22c2.18-.18,4.25-.83,6.25-1.43,1.9-.59,3.69-1.15,5.51-1.34.23.07.49.2,1.83.89-2.59,1.57-3.56,1.68-3.99,1.69Zm5.9,87.08c-.07-.03-.15-.12-.2-.25.06.08.15.13.23.17l-.03.08Zm0-.84c-.09.03-.13.05-.17.11.09-.13.22-.25.41-.25.17,0,.28.08.33.15.03.04.02.08.03.13-.08-.11-.2-.17-.27-.2-.17.03-.27.04-.34.06Zm.58.71l-.03-.03s.07-.11.09-.17c-.02.07-.03.15-.06.2Zm26.67,198.78c-.28-1.49-.52-3.17-.63-4.48.14.75.34,1.77.6,3.12.08.42.05.87.03,1.36Zm79.98-227.35c.51-.49,1.04-.59,1.4-.59.27,0,.45.05.49.07.15.06.26.11.42.35.62.9,1.03,1.48,1.07,1.76.01,1.12.02,2.48,0,2.65-.02.05-.17.34-.66.4-.38-.03-2.12-.62-2.72-.85-.1-.03-.21-.08-.33-.31-.67-1.26-.54-2.62.32-3.47Zm-40.37-107.7l.24-.36c.14-.22.26-.36.34-.46-.06.89.76,1.98,3.73,5.88,1.27,1.67,1.33,1.76,2.38,6.03-.03,0-.05,0-.07,0h.01s-.13-.59-.13-.59c-.53-2.34-3.46-6.34-7.09-10.42l.59-.07Zm-11.74.54c1.43.73,2.35,1.21,2.97,1.58-1.16-.34-2.26-.87-3.39-1.45l.42-.13Zm-20.11,2.83c.03.07.05.14.05.22h-.54s-.01-.5-.01-.5c.37,0,.44.18.5.28Zm-3.48,104.06l5.48-2.59c.57-.24,1.03-.36,1.55-.4-.29.3-.54.69-.65,1.2-.13.69.11,1.25.29,1.66.11.28.19.46.17.5-.32.85-.97,2.19-1.46,2.55-.11.08-.28.2-.42.36,0-.01-.01-.02-.02-.04-.37-.73-.95-1.08-1.79-1.08-.24,0-.52.03-.85.06-.67.08-1.18.14-1.6.14-.7,0-.95-.12-2.01-1.3.4-.44.75-.73,1.31-1.06Zm-25.89-61.71c-.17.11-.27.17-.33.2-.68-.44-2.39-2.71-3.06-3.75-.03-.17.21-.72.4-.9.05-.05.08-.08.11-.12.43.2,1.46.96,2.84,1.95.42.3,1.08.98,1.06,1.51-.03.51-.65.89-1.02,1.1Zm2.03-22.4c-.01-.09-.04-.16-.06-.26-.19-.86-.38-1.75-.79-2.59-.15-.33-.34-.62-.56-.88,1.73.61,3.52,1.16,5.44,1.16.69,0,1.37-.07,2.02-.22,1.14-.24,2-.62,2.64-1.06-.48,1.49.03,3.29,1.52,5.39.05.06.03.14.07.17-.03,0-.07,0-.11-.02h0c-.24-.09-.5-.15-.77-.2h-.01c-.66-.22-1.28-.56-1.94-.91-1.03-.56-2.09-1.14-3.38-1.33l-.4-.06-.33.25c-.52.4-.87.96-1.04,1.55v-.07c-.09-.7-.65-1.19-1.37-1.2h-.22l-.7.3Zm5.73,16.31c-.11-.07-.22-.13-.32-.19-.4-.22-.73-.4-.93-.65-.07-.11-.13-.21-.2-.3.23-.05.42-.12.57-.22.26.46.49.79.61.98.08.13.17.24.27.37Zm-4.78-13.95l.63-.36.61-.24c0,.22.01.45.06.68.09.38.37,1.07,1.12,1.68-.44-.24-.95-.52-1.55-.87-.48-.27-.77-.64-1.03-1.04l.15.14Zm.26,108.06l-.1-.71c.05-.07.11-.15.14-.2l-.04.9Zm2.61-.82c-.19,0-.52-.05-1.24-.14h-1.2c.21-.11.71-.3,1.65-.3h.33c.37.03.78.05,1.06.07-.14.19-.38.28-.6.37Zm27.94-5.4c-1.28-.61-2.61-1.22-4.03-1.64-1.53-.45-2.64-.78-4.47-.81h0c-.3,0-7.2.04-9.89,3.38-.24.28-.55.68-.83.68-4.03-.27-6.04-.4-7.19-.6-1.14-.21-1.4-.48-1.94-1.04-.85-1.03-2.02-2.96-1.88-3.75.14-.85.54-1.65.95-2.52.58-1.17,1.18-2.4,1.22-3.89q.04-1.72.89-2.14c.87-.43.95-.66,1.8-3.32.86-1.91,2.57-4.37,3.22-4.37.15,0,.3.05.37.07,2.51.95,4.34,1.63,5.14,2.04-.67.72-1.27,1.41-.52,2.55.43.67,1.08.96,1.6,1.19.44.2.71.32.81.54.92,1.85,1.06,2.14,1.99,2.37,1.07.27,1.72,0,2.6-.43.53-.25,1.04-.53,1.53-.82.71-.39,1.4-.79,2.12-1.06.19-.07.45-.09.75-.09.5-.03,1.11-.05,1.71-.39.44-.26.79-.54,1-.84.42.75,1.19,1.43,1.72,1.84.97.73,1.75.96,2.32,1.14.61.17,1.53.44,2.41.96l10,6.36c1.67,1.3,2.16,3.6,2.14,4.15-.01.94-1.59,1.82-2.34,2.11-.3.09-.48.11-.58.11-.37,0-.78-.09-1.2-.19-.65-.14-1.35-.28-2.08-.2-.49.06-.95.19-1.41.32-.46.13-.9.26-1.51.27-2.29,0-4.3-.95-6.44-1.95Zm6.37,185.48l-.17.34c-.33.62-.78,1.18-1.25,1.78-.5.63-1.02,1.27-1.43,2.05-.39.75-.41,1.39-.38,1.9,0,.05,0,.12.03.12-.22.15-.71.38-.95.41-.27,0-.68-.06-.86-.09-.14-.02-.21-.03-.58-.03-.29,0-.78,0-1.81.04-.02-.03-.06-.16-.05-.44.03-.58.14-1.16.28-1.76.11-.57.23-1.13.29-1.71.07-.62.05-1.25.05-1.88,0-.56-.01-1.12.04-1.67.01-.1.03-.24.05-.34.09-.56.46-.95.46-.96.58-.34,4.05-.89,5.39-.89.34.05.73.33,1.03.63.31.3.54.62.57.75,0,0-.22.71-.73,1.75Zm1.37,50.24c-.19.67-.4,1.41-.45,2.19-.07-.35-.13-.69-.16-1.02-.08-.75.06-1.15.13-1.32.24-.71.62-1.78.66-3.02.01-.06.01-.11.01-.17l.19.83c.09.81-.13,1.63-.38,2.5Zm31.77-115.34s-3.97-3.87-4.14-4c-.84-.63-1.75-1.12-2.64-1.57-.75-.39-1.45-.77-2.1-1.21l-29.56-52.06c.7-.12,1.47-.42,2.07-.82l.6-.24c8.17,2.91,10.62,9.85,13.21,17.2,2.2,6.27,4.5,12.75,10.59,16.55l.89.55c7.64,5.74,9.7,12.77,13.23,25.32h-.02l.26.85.06.22h0l.05.18c.32,1.05.64,1.9.94,2.61-.85-.93-1.98-2.08-3.45-3.58Zm13.79-101.91c-.5-.38-1-.78-1.63-1.08-.6-.28-1.21-.38-1.75-.48-.48-.09-.95-.17-1.33-.36-.28-.14-.36-.23-.49-.4-.09-.11-2.06-2.57-1.44-5.51.15-.71.17-1.39.19-2.06,0-.52.02-1.05.11-1.55.03-.12.32-.37.5-.52.5-.43,1.69-1.44.78-2.86-.44-.7-1.27-1.04-1.93-1.3,0,0-.87-.35-1.62-1.07-.5-.47-.92-1.06-1.36-1.68-.53-.73-1.08-1.49-1.81-2.14-3.35-2.93-4.36-3.81-4.46-3.91-.44-.67-.77-1.4-1.14-2.17-.52-1.14-1.07-2.31-1.98-3.34-.35-.41-.77-.72-1.15-1-.61-.44-.99-.74-1.16-1.21-.3-.85.05-3.48.62-3.83.22-.14.46-.25.69-.36.46-.22.97-.45,1.44-.87.44-.42.75-.91,1.01-1.35.22-.36.42-.7.63-.89.99-.79,3.59-2.66,4.31-2.85.82.09,4.08.59,4.87.79,1.14,1.16,1.25,3.11,1.24,3.96-.36.05-.94.12-1.67.2-2.1.24-2.18,1.09-2.09,4.12-.07.03-.16.05-.24.08-.4.12-.89.28-1.3.69l-.39.4.14.52c.09.35,4.01,6.47,9.4,8.23.3.09.43.24.49.53.07.31.11.63.17.93.1.65.2,1.32.48,1.98.34.87.89,1.56,1.43,2.21.5.63.98,1.22,1.2,1.9.14.43.22.88.28,1.33.15.92.34,1.98,1.02,2.92l.22.3c.25.32.94,1.05,2.15,1.13.33.01.47.07.5.06,0,.04,0,.18-.04.46v.1s0,.12,0,.12c.06.78.28,1.26,1.41,2.09.3.22.99.73,1.27,1.29l2.81,7.32c-1.51.24-3.79.49-5.6.66-1.55-.17-2.43-.28-3.39-.66-.48-.2-.91-.54-1.38-.9Zm27.88,51.92c-.91,1.57-1.76,3.05-3.17,4.03-1.12.77-2.46.77-3.97.72-.86-.03-1.71-.03-2.39.06-.85-.77-1.02-1.96-1.22-3.34-.3-1.96-.65-4.41-3.46-5.46l-.72-.27-.42.64c-.32.48-.65,1.14-.91,1.75-10.08-11.71-10.76-15.52-10.63-17.06.68-.28,1.42-.41,2.2-.41s1.3.14,1.3.14c.3.1.75.25.99.4,2.68,1.54,4.71,3.79,6.86,6.17,2.21,2.45,4.5,4.99,7.57,6.69,1.75.98,3.72,1.1,5.6,1.1h2.19c1.25-.01,2.47.04,3.6.4-1.58,1.21-2.51,2.84-3.42,4.43Zm25.95-96.24c-.03.07-.11.28-.17.6.01-.33.15-.74.3-1.08-.01.2-.05.3-.12.48Zm136.72,203.76l-.04.09c-.05-.1-.1-.21-.17-.3.07.06.13.13.21.2Zm7.99-43.55h0c.08-.12.15-.24.23-.36.29.65.49,1.17.52,1.24,0,.46.01.86.03,1.24-.05-.22-.14-.42-.26-.71l-.53-1.42Zm.67,3.6l.1-.79s.02-.09.03-.15c.03.47.07.86.14,1.16-.09-.06-.17-.13-.28-.22Zm2.08,2.54c-.11-.38-.29-.74-.59-1.12.08,0,.15.01.25.01h.4c-.04.32-.06.69-.06,1.1Z"/>
        <path class="cls-5" d="m577.66,412.6l-.11-.02-.11.02c-.65.08-1.09.58-1.13,1.25-.02.43.13.77.24,1.04.03.08.08.22.09.24-.54,2.36-.68,5.1-.41,8.14.08.94.89,5.74,2.08,7.03.56.62,1.27.94,2.07.94,1.97,0,4.17-2.11,4.3-5.53.13-3.45-4.12-12.75-7.01-13.1Z"/>
        <path class="cls-5" d="m667.16,416.51c.05-.16.11-.37.15-.54.16-.59.26-1.21.36-1.81.08-.52.17-1.05.3-1.57.26-1.04.54-1.61.67-1.89.13-.26.18-.46.19-.67,0-.14-.43-2.43-1.53-2.69l-.23-.05-.23.06c-.69.18-.84.87-.9,1.09-.18.79-.3,1.59-.43,2.38-.1.62-.2,1.24-.32,1.85-.13.63-.3,1.25-.48,1.86-.18.65-.36,1.3-.5,1.95-.05.2-.06.41-.09.78v.1s.19.89.19.89l.15.19.82-.41-.73.55.29.38.47-.02c.61-.02,1.16-.43,1.84-2.43Z"/>
        <path class="cls-5" d="m366.26,117.42l-1.47.84c-.06-.03-.12-.06-.18-.08,0,0-1.73-.51-1.91-.54h-.18c-.1,0-.2,0-.28.02-.18-.18-.45-.32-.9-.35-.07,0-.12.03-.18.04l.02-.27-.67-.59-.18.03-1.75-2.18.33,2.43-.15.02.23.62-.41.1-.14.1c-.1.08-.17.16-.23.24l-.46.26s-.02.01-.03.02l-.23.13c-.06-.03-.12-.06-.18-.08,0,0-1.73-.51-1.91-.54h-.18c-.1,0-.2,0-.28.02-.18-.18-.45-.32-.9-.35-.07,0-.12.03-.18.04l.02-.27-.67-.59-.18.03-1.42.25-.15.02.23.62-.41.1-.14.1c-.16.13-.27.26-.34.4-.52.06-.8.44-.98.67-.12.15-.2.35-.27.56-.22-.1-.44-.17-.66-.17l-.29.04c-.49.17-.64.33-1.14,1.13h-.02s-.07-.08-.1-.13c-.18-.19-.51-.42-1.07-.42-.89,0-2.17.66-2.38.83-.23.22-.99.98-1.24,1.79-.05.16-.07.35-.06.48,0,.27.09.46.18.61l-.37.35c-.11.08-.36.26-.48.61-.15.4-.2.79-.17,1.16.06.61.35,1.13.88,1.55l.65.33.46-.29s.04.05.06.08c-.2.62-.27,1.02-.03,1.44h0c-.16.26-.23.5-.25.65-.2,1.15.72,2.34,1.45,2.82.03.03.08.05.11.08.02.41.16.82.35,1.12.33.55.84.86,1.4.86.18,0,.35-.02.52-.09.49-.17.79-.59.94-.83.29-.55.44-1.1.59-1.64.13-.46.25-.9.45-1.28.05-.1.16-.22.28-.35.23-.26.51-.57.67-1.04.2-.62,3.1-3.58,3.99-3.69.19-.08,1.19-.24,1.5-.26,0,0,0-.02,0-.03.05,0,.11,0,.16.01.58-.05,1.16-.07,1.76-.07,1.28-.18,2.55-.54,3.82-.48-.02-.04-.04-.07-.06-.11-.26-.37-.61-.5-.9-.58-.06-.12-.16-.33-.28-.55.03,0,.07,0,.1-.02,0,0,0,0,.02.02.2.18.57.54,1.16.54h.03c.56,0,.94-.31,1.17-.49.05-.04.12-.09.12-.09v-.02c.24,0,.97-.05,1.42-.63.19-.23.28-.46.35-.64.03-.07.05-.14.09-.2.06-.09.13-.17.2-.24.13-.16.31-.35.46-.61.03-.07.08-.17.13-.26h0s0-.03,0-.03c.08-.18.17-.4.22-.72v-.08l.26-.66-.09-.13.36-1.52Z"/>
        <path class="cls-5" d="m627.06,448.98l-1.16.08-.25.32c-.51.66-.62,1.01-.44,2.09.15.82.5,1.49,1.05,2.05l.32.21.25.06.34-.86-.21.89.64.15.35-.56s.33-.55.42-.95h0c.03-.15.28-1.47-1.03-3.1l-.29-.37Z"/>
        <path class="cls-5" d="m410.3,136.98c.19.18.39.3.65.4l1.35.49-.12-1.42c-.02-.25-.06-.48-.31-.74-.2-.22-.47-.37-.76-.45l-1.22-.34.06,1.26c0,.3.08.55.35.81Z"/>
        <polygon class="cls-5" points="370.66 302.29 374.44 303.64 374.34 300.76 370.66 302.29"/>
        <path class="cls-5" d="m409.62,134.11l-.71.06c-.09,0-.19-.01-.29-.03.34,0,.67-.02,1-.03Z"/>
        <path class="cls-5" d="m612.1,408.93l-.99-2.49.4-.19c.66-.58.5-1.16.25-2.04l-.38-.67.54-1.68c.24-.77.28-.91.19-1.62-.05-.47-.13-1-.21-1.46l-.11-.3c-.26-.46-.46-.8-1-.88l-.15-.02-.14.03c-1.15.23-.97,1.76-.82,3,.07.53.13.65.57,1.42l.82,1.46-1.05.15-.19.48c-.24.56-.17,1.37.15,1.85l.4.5h.5l-.59,2.86c-.03.15-.07.3-.09.45l-.08.46.33.34,1.1.73.96-1.14-.13-.47c-.06-.21-.14-.41-.29-.78Z"/>
        <polygon class="cls-5" points="663.33 420.59 665.75 424 665.67 421.01 665.49 419.13 663.33 420.59"/>
        <path class="cls-5" d="m615.82,423.89c-.49.24-.91.83-.62,1.76l.19.37.87-.35-.77.49,1.19,1.65.51-2.09c.04-.17.08-.34.13-.51l.11-.41-.9-1.26-.7.35Z"/>
        <polygon class="cls-5" points="670.78 429.67 671.85 431.65 673.24 430.04 672.23 427.93 670.78 429.67"/>
        <polygon class="cls-5" points="457.7 507.18 455.74 507.9 456 510.16 458.05 509.32 457.7 507.18"/>
        <path class="cls-5" d="m283.41,231.27l-.44-.81-.63.03c-.15,0-.51.01-.8.28-.38.34-.51.79-.36,1.2.07.19.31.67,1.06.7h.24s1.25-.63,1.25-.63l-.32-.77Zm-.64.87c-.06.06-.13.09-.18.13l-.09-.62.05-.03-.09-.22s-.02,0-.03,0l-.13-.26v-.3c.14,0,.47.15.59.52.12.32-.01.65-.13.77Z"/>
        <polygon class="cls-5" points="621.11 444.8 623.76 445.21 622.59 440.52 621.11 444.8"/>
        <path class="cls-5" d="m348.08,204.33l-.61-.41-.46.1c-.13.03-.33.07-.53.19-.56.34-.88,1.11-.75,1.79.13.71.69,1.2,1.49,1.33h.25s.17-.02.17-.02c.17-.04.49-.1.74-.35.3-.3.48-.67.51-1.06.02-.37-.08-.73-.28-1.03-.18-.24-.37-.41-.54-.55Z"/>
      </g>
      <g>
        <path class="cls-7" d="m645.73,517.87c-1.55,2.85-3.16,5.67-4.81,8.45-1.96,3.3-3.97,6.55-6.06,9.76-.46.71-.93,1.43-1.4,2.13l-257.79.46-52.24-155.89h-28.98l2.21,6.61,50,149.33h-7.99s-165.9.32-165.9.32c-.63-.92-1.24-1.85-1.84-2.78,0,0,0,0-.01-.01-.29-.45-.58-.91-.87-1.36-.03-.03-.05-.07-.06-.1-.52-.79-1.02-1.58-1.52-2.38-.07-.11-.14-.23-.22-.34l109.38-171.39,4.21-6.6h31.97l-11-32.84,89.23-139.8,4.2-6.59,68.8-.97,180.71,344.01Z"/>
        <path class="cls-3" d="m640.92,526.32c-1.96,3.3-3.97,6.55-6.06,9.76-.46.71-.93,1.43-1.4,2.13-1.47,2.22-2.98,4.42-4.52,6.6l-259.06.46-52.24-155.88h-28.98l50,149.34,2.2,6.59-163.56.3c-1.55-2.17-3.07-4.37-4.54-6.59-.63-.92-1.24-1.85-1.84-2.78,0,0,0,0-.01-.01-.29-.45-.58-.91-.87-1.36-.03-.03-.05-.07-.06-.1-.52-.79-1.02-1.58-1.52-2.38-.07-.11-.14-.23-.22-.34-.26-.41-.52-.83-.77-1.24l108.59-170.15h31.96l-2.21-6.6-8.79-26.24,93.43-146.38,1.59-.02,67.21-.95,181.69,345.86Z"/>
      </g>
      <path class="cls-2" d="m679.41,385.5c0,6.08-.19,12.11-.58,18.1-3.14,48.67-18.87,93.9-43.97,132.48-26.05,40.08-62.22,72.98-104.88,95.1-5.73,2.98-11.58,5.75-17.52,8.32-21.94,9.48-45.35,16.21-69.8,19.73-13,1.88-26.3,2.85-39.82,2.85s-26.82-.97-39.82-2.85c-26.22-3.78-51.25-11.24-74.56-21.83-4.32-1.96-8.56-4.03-12.76-6.21-43.95-22.79-81.02-57.04-107.24-98.79-24.29-38.66-39.27-83.76-41.8-132.16-.26-4.88-.39-9.79-.39-14.73,0-43.73,10.15-85.09,28.23-121.86,22.12-44.99,56.09-83.09,97.85-110.22,43.31-28.15,94.99-44.5,150.5-44.5.69,0,1.39,0,2.08.01.04,0,.09,0,.13,0,1.93.01,3.85.05,5.77.1,53.63,1.52,103.44,18.31,145.24,46.18,41.23,27.48,74.65,65.74,96.26,110.75,17.37,36.18,27.1,76.72,27.1,119.53Z"/>
    </g>
  </g>
</svg>