<?xml version="1.0" encoding="utf-8"?>
<!-- Generator: Adobe Illustrator 28.0.0, SVG Export Plug-In . SVG Version: 6.00 Build 0)  -->
<svg version="1.1" id="Layer_1" xmlns="http://www.w3.org/2000/svg" xmlns:xlink="http://www.w3.org/1999/xlink" x="0px" y="0px"
	 viewBox="0 0 1080 518" style="enable-background:new 0 0 1080 518;" xml:space="preserve">
<style type="text/css">
	.st0{fill:#014B8F;}
	.st1{fill:#0067AB;}
	.st2{fill:#28ACE2;}
</style>
<g id="Layer_1_00000065060845087473561450000000582572727705328800_">
</g>
<g>
	<rect y="507.1" class="st0" width="360" height="10.9"/>
	<rect x="360" y="507.1" class="st1" width="360" height="10.9"/>
	<rect x="720" y="507.1" class="st2" width="360" height="10.9"/>
</g>
<g>
	<g>
		<polygon class="st0" points="227.4,279.1 254.3,195.5 52,195.5 		"/>
		<polygon class="st1" points="182.2,236.4 363.3,322.5 391,236.5 		"/>
		<polygon class="st2" points="279.8,213.4 460.2,298.1 487.1,212.4 		"/>
	</g>
	<g>
		<path class="st2" d="M1022.7,231.4c-3.6-6-8.4-10.4-14.4-13.2c-6-2.8-15.4-4.2-28-4.2l-29.7,0l-0.8,2.5l1.5,0c3.5,0,5.8,0.5,7,1.4
			c1.2,0.9,1.8,2.3,1.8,4c0,2.4-0.7,5.8-2,10.1l-16.9,54.5c-1.7,5.6-3.2,9.4-4.5,11.2c-0.9,1.3-2.2,2.3-4.1,3.1
			c-1.2,0.5-3.7,0.8-7.3,0.9l-0.9,2.5l39.4,0.1c9.5,0,17.5-0.9,23.9-2.9c6.4-1.9,12.3-4.9,17.8-8.9c5.5-4,9.5-7.7,12.2-11.1
			c2.6-3.3,5-7.8,7.2-13.3c2.1-5.6,3.2-11.3,3.3-17.2C1028.1,243.9,1026.3,237.4,1022.7,231.4z M1008.3,274.2
			c-3.4,7.2-7.9,12.9-13.5,17c-4,2.8-9,5-15.2,6.4c-6.2,1.4-12.8,2.1-20,2.1c-2.6,0-4.6-0.2-5.8-0.6c-0.8-0.2-1.5-0.7-1.9-1.3
			c-0.5-0.7-0.7-1.4-0.7-2.1c0-1.2,0.8-4.3,2.3-9.4l20.7-67.4c3.8-0.2,7-0.3,9.4-0.3c9.8,0,17.3,2.6,22.4,7.6
			c5.1,5.1,7.6,12.8,7.5,23.2C1013.4,258.8,1011.6,267,1008.3,274.2z"/>
		<path class="st2" d="M894.8,211.8c6.3,0,11.9,1.3,16.9,3.9c4.9,2.6,8.8,6.4,11.7,11.5c2.9,5.1,4.4,10.4,4.5,15.8
			c0.2,9.7-2.5,19.8-8.2,30.5c-5.7,10.6-13.3,18.7-22.7,24.3c-9.4,5.6-19.3,8.4-29.5,8.4c-7.4,0-13.5-1.5-18.5-4.6
			c-5-3.1-8.7-7.2-11.2-12.2c-2.5-5.1-3.8-10-3.9-14.7c-0.2-8.4,1.8-16.8,5.9-25c4.1-8.2,9.1-15.1,14.9-20.6
			c5.8-5.5,12.1-9.8,18.8-12.7C880.1,213.3,887.2,211.8,894.8,211.8z M892.5,216.1c-4.7,0-9.2,1.1-13.7,3.3
			c-4.4,2.2-8.8,5.8-13.1,10.8c-4.3,5-8.1,11.5-11.5,19.6c-4.1,9.9-6.1,19.3-5.9,28.2c0.1,6.3,2,11.9,5.5,16.7
			c3.5,4.9,8.8,7.3,15.9,7.3c4.3,0,8.4-1,12.5-3c4.1-2,8.3-5.4,12.6-10.3c5.4-6.1,10-13.8,13.6-23.3c3.6-9.4,5.3-18.2,5.1-26.4
			c-0.1-6-1.9-11.4-5.5-16C904.6,218.4,899.4,216.1,892.5,216.1z"/>
		<path class="st2" d="M791,211.8c6.3,0,11.9,1.3,16.9,3.9c4.9,2.6,8.8,6.4,11.7,11.5c2.9,5.1,4.4,10.4,4.5,15.8
			c0.2,9.7-2.5,19.8-8.2,30.5c-5.7,10.6-13.3,18.7-22.7,24.3c-9.4,5.6-19.3,8.4-29.5,8.4c-7.4,0-13.5-1.5-18.5-4.6
			c-5-3.1-8.7-7.2-11.2-12.2c-2.5-5.1-3.8-10-3.9-14.7c-0.2-8.4,1.8-16.8,5.9-25c4.1-8.2,9.1-15.1,14.9-20.6
			c5.8-5.5,12.1-9.8,18.8-12.7C776.3,213.3,783.5,211.8,791,211.8z M788.7,216.1c-4.7,0-9.2,1.1-13.7,3.3
			c-4.4,2.2-8.8,5.8-13.1,10.8c-4.3,5-8.1,11.5-11.5,19.6c-4.1,9.9-6.1,19.3-5.9,28.2c0.1,6.3,2,11.9,5.5,16.7
			c3.5,4.9,8.8,7.3,15.9,7.3c4.3,0,8.4-1,12.5-3c4.1-2,8.3-5.4,12.6-10.3c5.4-6.1,10-13.8,13.6-23.3c3.6-9.4,5.3-18.2,5.1-26.4
			c-0.1-6-1.9-11.4-5.5-16C800.8,218.4,795.6,216.1,788.7,216.1z"/>
		<path class="st2" d="M656.2,216.4l1-2.5l33.6,0.1c5.6,0,10.7,0.9,15.1,2.6c4.4,1.7,7.7,4.1,9.8,7.1c2.2,3,3.2,6.2,3.1,9.6
			c-0.1,5.2-2.1,9.9-6.1,14c-4,4.2-10.4,7.3-19.3,9.2c5.7,2.1,9.8,4.8,12.4,8.1c2.6,3.4,3.9,7.1,3.9,11.1c-0.1,4.5-1.3,8.7-3.8,12.8
			c-2.5,4.1-5.6,7.2-9.4,9.5c-3.8,2.3-8.4,3.9-13.7,5c-3.8,0.7-9.7,1.1-17.8,1.1l-34.5-0.1l0.9-2.5c3.6-0.1,6.1-0.4,7.4-1
			c1.9-0.7,3.2-1.7,4-3c1.1-1.7,2.7-5.5,4.6-11.6l17.7-54.5c1.5-4.6,2.3-7.8,2.3-9.7c0-1.6-0.6-2.9-1.8-3.9c-1.3-1-3.7-1.4-7.2-1.4
			C657.6,216.4,656.9,216.4,656.2,216.4z M655.3,298.2c5,0.6,8.9,1,11.7,1c7.2,0,13.6-2.1,19.3-6.2c5.6-4.2,8.5-9.8,8.6-16.9
			c0.1-5.5-1.6-9.7-5-12.8c-3.4-3.1-8.9-4.6-16.6-4.6c-1.5,0-3.3,0.1-5.4,0.2L655.3,298.2z M669.7,253.8c3,0.1,5.2,0.1,6.5,0.1
			c9.6,0,16.8-2,21.6-6c4.8-4,7.2-9,7.3-15c0.1-4.6-1.3-8.1-4.1-10.7c-2.8-2.6-7.4-3.8-13.7-3.9c-1.7,0-3.8,0.3-6.4,0.8L669.7,253.8
			z"/>
		<g>
			<path class="st2" d="M619.8,212.6L613,288c-0.4,3.5-0.5,5.8-0.5,7c0,1.8,0.4,3.2,1.1,4.1c0.9,1.3,2.1,2.3,3.7,2.9
				c1.6,0.6,4.2,1,7.8,1l-0.8,2.5l-38.2-0.5l0.8-2.5l1.6,0c3.1,0,5.6-0.5,7.6-1.8c1.4-0.8,2.4-2.2,3.2-4.2c0.5-1.4,1-4.6,1.4-9.8
				l1.1-11.5l-27.7-0.4l-9.8,12.4c-2.2,2.8-3.6,4.8-4.2,6c-0.6,1.2-0.8,2.4-0.8,3.4c0,1.4,0.6,2.7,1.9,3.7c1.2,1,3.3,1.6,6.2,1.8
				l-0.8,2.5l-28.7-0.4l0.8-2.5c3.5-0.1,6.6-1.1,9.3-3.2c2.7-2,6.7-6.4,12-13.1l57.4-73L619.8,212.6z M605.8,234.7L578,270.1
				l24.4,0.3L605.8,234.7z"/>
		</g>
	</g>
</g>
</svg>
