<?xml version="1.0" encoding="UTF-8"?>
<svg id="Layer_1" data-name="Layer 1" xmlns="http://www.w3.org/2000/svg" viewBox="0 0 86.13 99.12">
  <defs>
    <style>
      .cls-1 {
        fill: #d50321;
      }

      .cls-1, .cls-2 {
        stroke-width: 0px;
      }

      .cls-2 {
        fill: #014b8f;
      }
    </style>
  </defs>
  <path class="cls-2" d="m86.12,55.26c0,9.13.03,18.26-.01,27.39-.02,5.14-1.98,9.45-5.95,12.77-2.87,2.39-6.19,3.68-9.94,3.68-18.12.02-36.24.04-54.36,0-8.02-.02-14.93-6.45-15.71-14.41-.11-1.07-.15-2.14-.15-3.22,0-17.84-.01-35.68,0-53.53,0-7.58,4.8-13.9,11.98-15.91,1.41-.4,2.84-.58,4.31-.56,2.36.02,4.72-.04,7.08.03.88.03,1.24-.29,1.39-1.11.15-.81.38-1.62.63-2.41,1.1-3.49,3.44-5.76,6.97-6.64,6.98-1.74,13.99-1.77,21-.09,4,.95,6.45,3.44,7.53,7.36.26.93.16,2.14.9,2.69.73.54,1.88.13,2.85.17,2.63.1,5.27-.16,7.9.21,6.86.97,12.77,7.2,13.42,14.13.17,1.77.14,3.54.14,5.3.01,8.05,0,16.11,0,24.16Zm-5.9-.09h.02c0-9.13,0-18.26,0-27.39,0-.17-.01-.35-.02-.52-.17-4.61-3.31-8.53-7.79-9.64-2.87-.71-5.8-.28-8.71-.36-.49-.01-.53.31-.52.7.08,3.45-2.41,6.53-6.81,6.52-8.89-.03-17.77,0-26.66-.01-4.12,0-6.6-2.41-6.79-6.52-.02-.39-.02-.7-.52-.69-2.77.07-5.57-.31-8.31.26-4.7.98-8.28,5.24-8.25,10.68.09,18.05.03,36.1.04,54.16,0,.8,0,1.61.15,2.38,1.05,5.21,5.21,8.59,10.61,8.6,15.07.01,30.13,0,45.2,0,2.64,0,5.28.03,7.91,0,5.82-.09,10.36-4.44,10.42-10.24.1-9.3.03-18.61.03-27.91ZM43.05,18.51v.05c4.37,0,8.75,0,13.12,0,1.14,0,1.26-.18.97-1.3-.64-2.44-1.3-4.88-1.93-7.33-.43-1.63-1.45-2.61-3.1-3.01-6.04-1.46-12.08-1.47-18.12,0-1.65.4-2.66,1.38-3.09,3.01-.63,2.45-1.29,4.89-1.94,7.33-.31,1.18-.29,1.23.96,1.24,4.37,0,8.75,0,13.12,0Z"/>
  <path class="cls-1" d="m22.09,58.77c-.17-10.7,8.54-20.96,21.01-20.94,12.63.03,21.02,10.49,20.99,21.12-.03,11.1-9.37,21.19-21.48,20.94-11.51-.24-20.78-9.98-20.52-21.12Zm36.28.15c.35-7.26-5.65-15.45-15.33-15.43-9.64.02-15.27,8.11-15.35,15.16-.1,8.12,6.54,15.59,15.34,15.59,8.98,0,15.58-7.54,15.34-15.32Z"/>
  <path class="cls-1" d="m40.36,65.71c-.91.04-1.61-.34-2.13-.98-1.23-1.5-2.46-3.01-3.6-4.57-.98-1.33-.68-3.01.59-3.96,1.21-.9,2.84-.66,3.9.57.05.05.08.11.13.16q1.63,1.99,3.58.38c1.5-1.23,3-2.47,4.53-3.65,1.87-1.44,4.13-.62,4.65,1.67.24,1.05-.19,1.95-.97,2.58-2.94,2.42-5.93,4.8-8.9,7.18-.53.43-1.14.66-1.79.6Z"/>
</svg>