<?xml version="1.0" encoding="UTF-8"?>
<svg id="Layer_1" data-name="Layer 1" xmlns="http://www.w3.org/2000/svg" viewBox="0 0 82.74 69.16">
  <defs>
    <style>
      .cls-1 {
        fill: #d50321;
      }

      .cls-1, .cls-2 {
        stroke-width: 0px;
      }

      .cls-2 {
        fill: #014b8f;
      }
    </style>
  </defs>
  <g id="received">
    <path class="cls-1" d="m59.98,19.89h-16.71c-1.93,0-3.5-1.57-3.5-3.5V2.49c0-1.38,1.12-.72,2.5-.72s2.5-.66,2.5.72v12.4h13.72V2.49c0-1.38,1.12-.72,2.5-.72s2.5-.66,2.5.72v13.89c0,1.93-1.57,3.5-3.5,3.5Z"/>
    <path class="cls-2" d="m80.25,38.7l-.32-.34c-1-1.06-2.21-1.8-3.5-2.27V8.08c0-4.45-3.62-8.08-8.08-8.08h-33.45c-4.45,0-8.08,3.62-8.08,8.08v22.52c-.75.38-1.49.79-2.19,1.27l-2.52,1.72v-.08c0-3.65-2.97-6.62-6.62-6.62h-6.99c-4.68,0-8.49,3.81-8.49,8.49v25.29c0,4.68,3.81,8.49,8.49,8.49h7c3.54,0,6.41-2.79,6.59-6.28l17.23,4.35c1.6.41,3.25.61,4.89.61,1.5,0,3-.17,4.46-.5l14.19-3.26c3.52-.81,6.76-2.56,9.37-5.06l7.72-7.41c3.61-3.47,3.75-9.26.31-12.9ZM31.82,8.08c0-1.7,1.38-3.08,3.08-3.08h33.45c1.7,0,3.08,1.38,3.08,3.08v27.62c-1.1.22-2.17.64-3.16,1.29l-8.76,5.71c.19-.72.31-1.47.31-2.25,0-4.31-3.06-8.08-7.28-8.97l-12.58-2.64c-2.7-.57-5.48-.55-8.15,0V8.08h0Zm-14.71,54.46c0,.89-.73,1.62-1.62,1.62h-7c-1.93,0-3.5-1.57-3.5-3.5v-25.29c0-1.93,1.57-3.5,3.5-3.5h7c.89,0,1.62.73,1.62,1.62v29.04Zm59.37-14.54l-7.72,7.41c-1.95,1.88-4.38,3.19-7.02,3.8l-14.19,3.26c-2.3.52-4.72.5-7.01-.08l-18.42-4.65v-18.1l5.33-3.63c3.35-2.28,7.53-3.1,11.49-2.27l12.58,2.64c1.92.4,3.31,2.12,3.31,4.07,0,2.3-1.87,4.16-4.16,4.16h-8.68c-1.38,0-2.5,1.12-2.5,2.5s1.12,2.5,2.5,2.5h13.36c1.78,0,3.51-.51,5-1.49l10.66-6.95c1.69-1.1,3.92-.84,5.3.63l.32.34c1.56,1.65,1.5,4.28-.14,5.86Z"/>
  </g>
</svg>