<?xml version="1.0" encoding="UTF-8"?>
<svg id="Layer_1" data-name="Layer 1" xmlns="http://www.w3.org/2000/svg" viewBox="0 0 88.03 88.01">
  <defs>
    <style>
      .cls-1 {
        fill: #d50321;
      }

      .cls-1, .cls-2 {
        stroke-width: 0px;
      }

      .cls-2 {
        fill: #014b8f;
      }
    </style>
  </defs>
  <g id="Layer_12" data-name="Layer 12">
    <path class="cls-1" d="m66.02,6.29h3.14c3.47,0,6.29,2.81,6.29,6.29v5l-.91-.94c-1.23-1.23-3.23-1.23-4.46,0s-1.23,3.23,0,4.46l6.29,6.29c1.22,1.23,3.21,1.24,4.44.02,0,0,.01-.01.02-.02l6.29-6.29c1.23-1.23,1.23-3.23,0-4.46s-3.23-1.23-4.46,0l-.91.94v-5c0-6.94-5.63-12.57-12.57-12.57h-3.14c-1.74,0-3.14,1.41-3.14,3.14s1.41,3.14,3.14,3.14h0Z"/>
    <path class="cls-1" d="m31.44,81.72h-6.29c-6.94,0-12.57-5.63-12.57-12.57v-8.14l.91.94c1.22,1.23,3.21,1.24,4.44.02,0,0,.01-.01.02-.02,1.23-1.22,1.24-3.21.02-4.44,0,0-.01-.01-.02-.02l-6.29-6.29c-1.22-1.23-3.21-1.24-4.44-.02,0,0-.01.01-.02.02l-6.29,6.29c-1.23,1.23-1.23,3.23,0,4.46s3.23,1.23,4.46,0l.91-.94v8.14c0,10.42,8.44,18.86,18.86,18.86h6.29c1.74,0,3.14-1.41,3.14-3.14s-1.41-3.14-3.14-3.14Z"/>
    <path class="cls-2" d="m6.3,44h44c3.47,0,6.29-2.81,6.29-6.29V6.29c0-3.47-2.81-6.29-6.29-6.29H6.3C2.83,0,.01,2.81.01,6.29v31.43c0,3.47,2.81,6.29,6.29,6.29Zm0-37.72h44v31.43H6.3V6.29Z"/>
    <path class="cls-2" d="m28.3,12.57c-5.21,0-9.43,4.22-9.43,9.43s4.22,9.43,9.43,9.43,9.43-4.22,9.43-9.43-4.22-9.43-9.43-9.43Zm0,12.57c-1.74,0-3.14-1.41-3.14-3.14s1.41-3.14,3.14-3.14,3.14,1.41,3.14,3.14-1.41,3.14-3.14,3.14Z"/>
    <path class="cls-2" d="m86.29,41.21l-18.86-9.43c-1.49-.89-3.42-.41-4.31,1.07-.89,1.49-.41,3.42,1.07,4.31.13.08.27.15.41.21l13.23,6.63-18.1,9.05-4.87-2.42c-1.49-.89-3.42-.41-4.31,1.07-.89,1.49-.41,3.42,1.07,4.31.13.08.27.15.41.21l4.56,2.29v21.25l-18.86-9.43v-16.91c0-1.74-1.41-3.14-3.14-3.14s-3.14,1.41-3.14,3.14v18.86c0,1.18.67,2.26,1.73,2.8l25.14,12.57c.89.45,1.94.45,2.83,0l25.14-12.57c1.06-.53,1.73-1.61,1.73-2.8v-28.29c0-1.18-.67-2.26-1.73-2.8h0Zm-23.42,38.57v-21.25l18.86-9.43v21.25l-18.86,9.43Z"/>
  </g>
</svg>