<?xml version="1.0" encoding="UTF-8"?>
<svg id="Layer_1" data-name="Layer 1" xmlns="http://www.w3.org/2000/svg" viewBox="0 0 82.88 82.88">
  <defs>
    <style>
      .cls-1 {
        fill: #d50321;
      }

      .cls-1, .cls-2 {
        stroke-width: 0px;
      }

      .cls-2 {
        fill: #014b8f;
      }
    </style>
  </defs>
  <g>
    <path class="cls-1" d="m64.29,39.73v-8.65h-3.56v8.65l-8.89,12.71,2.92,2.04,7.76-11.08,7.76,11.08,2.92-2.04-8.89-12.71Z"/>
    <path class="cls-1" d="m16.86,58.34l15.8-9.22,1.79,3.08-15.8,9.22-1.79-3.08Z"/>
    <path class="cls-1" d="m16.85,43.86l15.8-9.22,1.79,3.08-15.8,9.22-1.79-3.08Z"/>
  </g>
  <path class="cls-1" d="m75.67,68.4h-26.33c-.98,0-1.78-.8-1.78-1.78v-13.17c0-.98.8-1.78,1.78-1.78h26.33c.98,0,1.78.8,1.78,1.78v13.17c0,.98-.8,1.78-1.78,1.78Zm-24.55-3.56h22.77v-9.6h-22.77v9.6Z"/>
  <path class="cls-2" d="m81.1,13.33h-11.55v-3.49c0-.98-.8-1.78-1.78-1.78h-10.53c-.98,0-1.78.8-1.78,1.78v3.49h-20.58L27.33.86c-.32-.53-.9-.86-1.52-.86h-13c-.98,0-1.78.8-1.78,1.78v11.55H1.78c-.98,0-1.78.8-1.78,1.78v10.53c0,.98.8,1.78,1.78,1.78h14.18v41.2h-2.17c-.75,0-1.41.46-1.67,1.16l-3.95,10.7c-.2.55-.12,1.16.21,1.63.33.48.88.76,1.46.76h31.6c.58,0,1.13-.28,1.46-.76.33-.48.41-1.09.21-1.63l-3.95-10.7c-.26-.7-.92-1.16-1.67-1.16h-2.17V27.42h20.14v3.65c0,.98.8,1.78,1.78,1.78h10.53c.98,0,1.78-.8,1.78-1.78v-3.65h11.55c.98,0,1.78-.8,1.78-1.78v-10.53c0-.98-.8-1.78-1.78-1.78h0ZM14.59,3.56h10.22l5.91,9.77H14.59V3.56Zm21.66,68.62l2.63,7.14H12.4l2.63-7.14h21.22Zm-16.73-3.56V27.42h12.24v41.2h-12.24ZM55.46,23.86H3.56v-6.97h51.9v6.97Zm10.53,5.43h-6.97V11.62h6.97v17.67Zm13.33-5.43h-9.77v-6.97h9.77v6.97Z"/>
</svg>