<?xml version="1.0" encoding="UTF-8"?>
<svg id="Layer_1" data-name="Layer 1" xmlns="http://www.w3.org/2000/svg" viewBox="0 0 177.35 177.35">
  <defs>
    <style>
      .cls-1 {
        fill: #d50321;
      }

      .cls-1, .cls-2 {
        stroke-width: 0px;
      }

      .cls-2 {
        fill: #014b8f;
      }
    </style>
  </defs>
  <g id="Excavator">
    <path class="cls-2" d="m99.24,92.84h-31.69c-2.1,0-3.81-1.71-3.81-3.81v-31.69c0-2.1,1.71-3.81,3.81-3.81s3.81,1.71,3.81,3.81v27.88h27.88c2.1,0,3.81,1.71,3.81,3.81s-1.71,3.81-3.81,3.81Z"/>
    <path class="cls-2" d="m177.35,14.37c0-7.93-6.45-14.37-14.37-14.37-2.5,0-4.97.65-7.13,1.89,0,0,0,0,0,0,0,0,0,0,0,0l-89.3,51.62h-9.54c-7.93,0-14.37,6.45-14.37,14.37v17.32H3.81C1.71,85.22,0,86.92,0,89.03v21.13C0,112.26,1.71,113.97,3.81,113.97h17.67v17.32h7.62v-17.32h55.76v17.32h7.62v-17.32h6.75c2.1,0,3.81-1.71,3.81-3.81v-42.26c0-.71-.05-1.4-.15-2.08l45.7-26.5v40.04h7.62v-44.46l13.51-7.83v67.24h7.62V14.37Zm-7.62,0c0,3.72-3.03,6.75-6.75,6.75s-6.75-3.03-6.75-6.75c0-2.42,1.3-4.66,3.4-5.87h0c1.01-.58,2.17-.89,3.35-.89,3.72,0,6.75,3.03,6.75,6.75Zm-74.3,91.97H7.62v-13.51h38.8c2.1,0,3.81-1.71,3.81-3.81v-21.13c0-3.72,3.03-6.75,6.75-6.75h10.56s0,0,.01,0,0,0,.01,0h21.11c3.72,0,6.75,3.03,6.75,6.75v38.45Zm-6.75-52.82h-6.92L148.61,14.87c.17,4.93,2.84,9.24,6.78,11.7l-55.59,32.23c-2.64-3.22-6.64-5.28-11.12-5.28h0Z"/>
    <path class="cls-1" d="m88.78,156.32c-.98,0-1.95-.37-2.69-1.12l-.1-.1c-1.49-1.49-1.49-3.9,0-5.39,1.49-1.49,3.9-1.49,5.39,0l.1.1c1.49,1.49,1.49,3.9,0,5.39-.74.74-1.72,1.12-2.69,1.12Z"/>
    <path class="cls-1" d="m67.3,156.32c-.98,0-1.95-.37-2.69-1.12l-.1-.1c-1.49-1.49-1.49-3.9,0-5.39,1.49-1.49,3.9-1.49,5.39,0l.1.1c1.49,1.49,1.49,3.9,0,5.39-.74.74-1.72,1.12-2.69,1.12Z"/>
    <path class="cls-1" d="m46.42,156.32c-.98,0-1.95-.37-2.7-1.12l-.1-.1c-1.49-1.49-1.48-3.9,0-5.39,1.49-1.49,3.9-1.48,5.39,0l.1.1c1.49,1.49,1.48,3.9,0,5.39-.74.74-1.72,1.11-2.69,1.11h0Z"/>
    <path class="cls-1" d="m25.39,156.32c-.98,0-1.95-.37-2.7-1.12l-.1-.1c-1.49-1.49-1.48-3.9,0-5.39,1.49-1.49,3.9-1.48,5.39,0l.1.1c1.49,1.49,1.48,3.9,0,5.39-.74.74-1.72,1.11-2.69,1.11h0Z"/>
    <g>
      <path class="cls-2" d="m88.67,177.35H25.29c-6.67,0-12.98-2.58-17.78-7.27-4.84-4.73-7.51-11.01-7.51-17.66s2.67-12.93,7.51-17.66c4.8-4.69,11.11-7.27,17.78-7.27h63.38c13.75,0,24.94,11.19,24.94,24.94s-11.19,24.94-24.94,24.94Zm-63.38-42.26c-9.74,0-17.67,7.77-17.67,17.32s7.93,17.32,17.67,17.32h63.38c9.55,0,17.32-7.77,17.32-17.32s-7.77-17.32-17.32-17.32H25.29Z"/>
      <path class="cls-1" d="m157.69,74.65c-10.84,0-19.66,8.82-19.66,19.66v22.6h-6.75c-2.1,0-3.81,1.71-3.81,3.81s1.71,3.81,3.81,3.81h21.13c13.75,0,24.94-11.19,24.94-24.94v-5.28c0-10.84-8.82-19.66-19.66-19.66h0Zm12.04,24.94c0,9.55-7.77,17.32-17.32,17.32h-6.75v-22.6c0-6.64,5.4-12.04,12.04-12.04s12.04,5.4,12.04,12.04v5.28Z"/>
    </g>
  </g>
</svg>