<?xml version="1.0" encoding="UTF-8"?>
<svg id="Layer_1" data-name="Layer 1" xmlns="http://www.w3.org/2000/svg" viewBox="0 0 147.92 115.82">
  <defs>
    <style>
      .cls-1 {
        fill: #d50321;
      }

      .cls-1, .cls-2 {
        stroke-width: 0px;
      }

      .cls-2 {
        fill: #014b8f;
      }
    </style>
  </defs>
  <path class="cls-2" d="m147.81,21.18c-1.05-1.52-2.54-1.71-3.8-1.71h0c-3.27.03-6.54.03-9.8.03h-2.91c-2.64,0-5.28,0-7.94.02-.5,0-.6-.07-.61-.09,0,0-.08-.09-.06-.54.07-1.87.07-3.9,0-6.2-.21-6.61-5.55-12.16-12.15-12.65-.33-.02-.66-.04-.98-.04-6.38,0-11.85,4.54-12.99,10.79-.39,2.11-.31,4.24-.24,6.3l.04,1.25c.01.54-.04.88-.16,1-.12.12-.45.18-1.04.18h0c-6.1-.02-12.2-.03-18.3-.03v6.07c.03-.14.06-.2.08-.22.05-.05.22-.12.8-.12h0c3.44.03,6.88.03,10.32.03h10.32c2.69-.01,3.69-1,3.69-3.65,0-1.05,0-2.11,0-3.16,0-1.71,0-3.43.01-5.14.05-4.23,3.31-7.54,7.47-7.54,4.09.02,7.34,3.3,7.39,7.48.02,1.8.02,3.6.01,5.4v2.75c0,2.91.95,3.84,3.92,3.84h10.24c3.41,0,6.83,0,10.29-.02.5,0,.64.07.68.11.03.04.11.17.11.7-.04,8.23-.03,16.46-.03,24.69v14.43c0,8.03-.01,16.33.04,24.49,0,.59-.08.77-.14.83-.06.06-.24.13-.85.13h0c-2.92-.03-5.84-.05-8.76-.05s-6.01.02-9.07.04c-.49,0-.59-.07-.62-.09-.02-.02-.1-.13-.09-.65,0-.47.02-.94.03-1.42.05-1.77.09-3.59-.24-5.41-1.15-6.26-6.62-10.8-13-10.8-.32,0-.64.01-.97.03-6.65.48-12,6.09-12.17,12.78-.04,1.59-.07,3.31,0,5.05.01.34-.04.43-.04.43-.01,0-.1.06-.51.06h0c-3.14-.02-6.27-.03-9.41-.03s-5.96.01-8.97.04c-.42,0-.5-.08-.5-.08-.01-.01-.03-.06-.05-.16v5.98h21.6c2.59,0,3.6-1,3.61-3.58,0-.95,0-1.9,0-2.85,0-1.48,0-2.97.01-4.45.06-4.18,3.32-7.45,7.43-7.46,4.1,0,7.36,3.26,7.43,7.42.03,1.59.02,3.18.01,4.76,0,.8,0,1.59,0,2.39,0,2.77.98,3.76,3.72,3.76h12.05c3.77,0,7.53,0,11.37.03,1.18,0,2.68-.19,3.74-1.71l.11-.15V21.33l-.1-.15Z"/>
  <path class="cls-1" d="m76.82,89.86c.03-5.77.02-11.54.02-17.31v-3.47c0-2.75-.98-3.72-3.75-3.73h-4.44c-.9,0-1.81,0-2.71,0-4.17-.06-7.44-3.33-7.44-7.44,0-4.1,3.27-7.36,7.45-7.42.84-.01,1.68-.01,2.52-.01h4.92c2.38,0,3.44-1.07,3.44-3.45v-3.49c0-.91,0-1.83.01-2.75v-7.16c0-2.51-.01-5.03-.04-7.53,0-.25.02-.42.04-.53v-6.07c-2.43,0-4.87-.01-7.3-.01h-19.96c-2.75,0-3.72.99-3.73,3.75,0,.81,0,1.63,0,2.44,0,1.57.01,3.14-.01,4.71-.07,4.17-3.33,7.43-7.44,7.43-4.1,0-7.36-3.28-7.42-7.45-.02-1.51-.02-3.02-.01-4.53,0-.92,0-1.85,0-2.77,0-2.58-1.02-3.58-3.61-3.58H3.73C.98,19.49,0,20.47,0,23.23v69.34c0,2.77.98,3.75,3.73,3.75h10.06c3.57,0,7.15,0,10.76-.03.51,0,.62.08.63.1.02.02.1.13.07.64-.07,1.76-.08,3.62,0,6.06.19,6.59,5.51,12.16,12.12,12.68.35.03.7.04,1.04.04,6.37,0,11.82-4.53,12.97-10.76.32-1.72.28-3.45.25-5.13-.01-.75-.03-1.5,0-2.35.01-.53.02-1.08.08-1.17.12-.07.67-.07,1.2-.07h23.96v-5.98c-.01-.1-.03-.25-.02-.5Zm-5.76.69s-.1.03-.36.03c0,0-7.6,0-11.24,0h-9.72c-2.97,0-3.88.91-3.88,3.88v2.7c0,1.77.01,3.55,0,5.32-.04,4.32-3.24,7.59-7.43,7.59-4.13,0-7.39-3.33-7.43-7.58-.01-1.61-.01-3.22,0-4.84,0-1.2,0-2.41,0-3.61-.01-2.39-1.07-3.45-3.44-3.45,0,0-8.04-.01-10.38-.01-3.52,0-7.03,0-10.59.04-.54,0-.68-.08-.71-.12-.05-.05-.12-.21-.12-.79.04-8.23.03-16.46.03-24.69v-13.99c0-8.31,0-16.62-.02-24.93,0-.53.06-.7.11-.75.03-.03.14-.11.67-.11h0c2.95.03,5.9.05,8.85.05s6.14-.02,9.24-.04c.45,0,.54.07.55.08.01.01.09.11.09.61,0,.55-.01,1.11-.03,1.66-.04,1.73-.08,3.52.25,5.31,1.16,6.2,6.63,10.71,12.99,10.71.3,0,.61-.01.91-.03,6.61-.45,11.98-5.98,12.21-12.59.06-1.64.06-3.39,0-5.19-.01-.39.04-.48.04-.49,0,0,.08-.06.45-.06h0c3.08.02,6.16.03,9.24.03s6.16-.01,9.27-.03c.35,0,.43.05.44.05,0,0,.06.1.06.49-.03,6.22-.03,12.39,0,18.34,0,.47-.07.54-.07.55,0,0-.08.08-.55.08-.57,0-1.15-.01-1.72-.03-.58-.01-1.17-.03-1.75-.03-1.39,0-2.45.08-3.46.27-6.74,1.26-11.37,7.33-10.77,14.11.59,6.71,6.15,11.88,12.91,12.03.86.02,1.72.03,2.58.03s1.64-.01,2.53-.04c.16,0,.23.02.25.02h0s.04.11.04.38c-.02,5.74-.05,12.25.02,18.63,0,.33-.06.43-.05.43Z"/>
</svg>