<?xml version="1.0" encoding="UTF-8"?>
<svg id="Layer_1" data-name="Layer 1" xmlns="http://www.w3.org/2000/svg" viewBox="0 0 169.38 108">
  <defs>
    <style>
      .cls-1 {
        fill: #d50321;
      }

      .cls-1, .cls-2 {
        stroke-width: 0px;
      }

      .cls-2 {
        fill: #014b8f;
      }
    </style>
  </defs>
  <path class="cls-2" d="m157.47,44.95l-3.9-15.61c1.14-.67,1.86-1.91,1.86-3.25v-2.79c0-6.7-5.45-12.15-12.14-12.15h-18.55v-4.6c0-3.62-2.94-6.56-6.56-6.56H17.72c-3.62,0-6.56,2.94-6.56,6.56v47.43c0,2.08,1.69,3.77,3.77,3.77s3.77-1.69,3.77-3.77V7.55h98.48v46.45c0,2.08,1.69,3.77,3.77,3.77s3.77-1.69,3.77-3.77v-1.81h29.71c2.62,0,5.03,1.4,6.35,3.61h-6.35c-2.08,0-3.77,1.69-3.77,3.77v5.58c0,5.16,4.2,9.35,9.35,9.35h1.81v9.19h-4.88c-2.68-6.69-9.25-11.16-16.46-11.16-6.65,0-12.75,3.79-15.76,9.62v-17.01c0-2.08-1.69-3.77-3.77-3.77s-3.77,1.69-3.77,3.77v18.55h-52.31c-2.67-6.69-9.25-11.16-16.46-11.16s-13.79,4.47-16.46,11.16h-13.25v-3.61h10.18c2.08,0,3.77-1.69,3.77-3.77s-1.69-3.77-3.77-3.77H3.77c-2.08,0-3.77,1.69-3.77,3.77s1.69,3.77,3.77,3.77h7.39v4.6c0,3.62,2.94,6.56,6.56,6.56h12.99c.52,9.28,8.35,16.74,17.7,16.74s17.18-7.46,17.7-16.74h56.68c.52,9.28,8.35,16.74,17.7,16.74s17.18-7.46,17.7-16.74h7.42c2.08,0,3.77-1.69,3.77-3.77v-27.9c0-6.98-5.1-13.21-11.91-14.63Zm.75,18.4h3.61v3.61h-1.81c-1,0-1.81-.81-1.81-1.81v-1.81Zm-33.48-41.03v-3.61h18.55c2.16,0,4.03,1.55,4.49,3.61h-23.04Zm24.88,22.32h-24.88v-14.77h21.18l3.69,14.77Zm1.06,45.63c0,5.61-4.57,10.18-10.18,10.18s-10.18-4.57-10.18-10.18,4.57-10.18,10.18-10.18,10.18,4.57,10.18,10.18Zm-102.25-10.18c5.61,0,10.18,4.57,10.18,10.18s-4.57,10.18-10.18,10.18-10.18-4.57-10.18-10.18,4.57-10.18,10.18-10.18Z"/>
  <circle class="cls-2" cx="48.42" cy="90.27" r="6.56"/>
  <path class="cls-2" d="m133.93,90.27c0,3.62,2.94,6.56,6.56,6.56s6.56-2.94,6.56-6.56-2.94-6.56-6.56-6.56-6.56,2.94-6.56,6.56Z"/>
  <path class="cls-2" d="m66.96,76.32c0,2.08,1.69,3.77,3.77,3.77h39.06c2.08,0,3.77-1.69,3.77-3.77s-1.69-3.77-3.77-3.77h-39.06c-2.08,0-3.77,1.69-3.77,3.77Z"/>
  <path class="cls-2" d="m9.35,68.93h33.48c2.08,0,3.77-1.69,3.77-3.77s-1.69-3.77-3.77-3.77H9.35c-2.08,0-3.77,1.69-3.77,3.77s1.69,3.77,3.77,3.77Z"/>
  <path class="cls-1" d="m84.86,24.34c-.08,0-.16,0-.25,0-1.1.07-2.11.55-2.84,1.38l-13.57,15.27-7.11-6.32c-.75-.67-1.72-1.04-2.73-1.04-.08,0-.16,0-.25,0-1.1.06-2.11.55-2.84,1.38-.73.82-1.1,1.88-1.03,2.98s.55,2.11,1.37,2.84l10.19,9.06c.76.67,1.73,1.04,2.73,1.04.08,0,.16,0,.25,0,1.1-.06,2.11-.55,2.84-1.38l16.31-18.35c1.51-1.7,1.35-4.31-.34-5.82-.76-.67-1.73-1.04-2.73-1.04Z"/>
</svg>