<?xml version="1.0" encoding="UTF-8"?>
<svg id="Layer_1" data-name="Layer 1" xmlns="http://www.w3.org/2000/svg" viewBox="0 0 145.05 112.16">
  <defs>
    <style>
      .cls-1 {
        fill: #d50321;
      }

      .cls-1, .cls-2 {
        stroke-width: 0px;
      }

      .cls-2 {
        fill: #014b8f;
      }
    </style>
  </defs>
  <path class="cls-2" d="m.68,94.47h0s6.23,0,6.23,0H.68Z"/>
  <path class="cls-2" d="m145.05,76.22c0-5.03,0-9.97,0-13.21,0-1.45-1-2.71-2.41-3.04l-18.03-4.18-3.86-14.84c-1.38-5.14-6.1-8.73-11.42-8.7-3.76-9.6-13.15-16.12-23.6-16.12h-8.57c-1.72,0-3.12,1.39-3.12,3.12,0,10.66,0,45.56,0,56.77h-14.27c-6.76-4.8-16.32-5.96-24.07-2.95-7.75-3.01-17.31-1.85-24.07,2.95H3.16c-.87,0-1.7.36-2.29,1-.59.64-.89,1.5-.82,2.36.05.63.02,2.3-.01,3.91-.13,7.15-.03,10.56.93,12.5,2.83,6.59,8.63,7.26,13.64,7.23,2.05,8.95,14.31,12.63,21.07,5.04,6.32,7.19,18.68,4.53,21.16-5.09h38.37c2.89,11.83,20.33,12.56,23.82,0h14.27c6.48,0,11.75-5.27,11.75-11.75,0-3.6,0-9.36,0-15Zm-30.33-33.69l3.32,12.75h-17.04v-16.8h8.4c2.48,0,4.66,1.67,5.32,4.05Zm-19.95,12.75h-14.5v-16.8h14.5v16.8Zm-9.05-32.93c7.03,0,13.42,3.91,16.73,9.89h-22.19v-9.89h5.45Zm-5.45,39.16h14.5v14.5h-14.5v-14.5Zm-53.73,44.44c-8.19-.28-8.19-11.91,0-12.19,8.01.4,8.01,11.8,0,12.19Zm18.43,0c-8.19-.28-8.19-11.91,0-12.19,8.01.4,8,11.8,0,12.19Zm-.06-18.43c-4.03.11-7.19,1.77-9.23,4.12-6.8-7.63-19.11-3.86-21.09,5.14-4.67.02-6.76-.59-8.01-3.73-.52-1.79-.31-8.03-.28-10.82h6.36c.7,0,1.38-.24,1.93-.67,5.31-4.19,13.64-5.16,19.8-2.31.83.38,1.79.38,2.62,0,6.16-2.85,14.49-1.88,19.8,2.31.55.43,1.23.67,1.93.67h36.04v14.5h-37.93c-1.38-5.29-6.21-9.21-11.93-9.21h0Zm62.25,18.43c-8.19-.28-8.19-11.91,0-12.19,8.01.4,8,11.8,0,12.19Zm31.66-14.73c0,3.04-2.48,5.52-5.52,5.52h-14.27c-1.98-7.79-11.03-11.57-18.03-7.61v-27.61h20.71l17.11,3.97c0,7.09,0,19.47,0,25.74h0Z"/>
  <g>
    <path class="cls-1" d="m138.82,76.01h-6.1c-1.72,0-3.12,1.39-3.12,3.12s1.39,3.12,3.12,3.12h6.1c0-2.02,0-4.14,0-6.23Z"/>
    <path class="cls-1" d="m91.79,16.87V7.72c0-1.04-.52-2.01-1.39-2.59l-6.91-4.61c-1.43-.95-3.37-.57-4.32.86-.95,1.43-.57,3.37.86,4.32l5.52,3.68v6.73c2.13-.01,4.22.25,6.23.75h0Z"/>
  </g>
</svg>