<?xml version="1.0" encoding="UTF-8"?>
<svg id="Layer_1" data-name="Layer 1" xmlns="http://www.w3.org/2000/svg" viewBox="0 0 97.99 91.92">
  <defs>
    <style>
      .cls-1 {
        fill: #d50321;
      }

      .cls-1, .cls-2 {
        stroke-width: 0px;
      }

      .cls-2 {
        fill: #014b8f;
      }
    </style>
  </defs>
  <path class="cls-1" d="m73.94,73.3c0,4.09,3.31,7.4,7.4,7.4s7.4-3.31,7.4-7.4-3.31-7.4-7.4-7.4-7.4,3.31-7.4,7.4Zm11.1,0c0,2.04-1.66,3.7-3.7,3.7s-3.7-1.66-3.7-3.7,1.66-3.7,3.7-3.7,3.7,1.66,3.7,3.7Z"/>
  <path class="cls-2" d="m92.44,56.65h-22.2c-3.07,0-5.55,2.48-5.55,5.55v22.2c0,3.07,2.48,5.55,5.55,5.55h22.2c3.07,0,5.55-2.48,5.55-5.55v-3.7c0-1.02-.83-1.85-1.85-1.85s-1.85.83-1.85,1.85v3.7c0,1.02-.83,1.85-1.85,1.85h-22.2c-1.02,0-1.85-.83-1.85-1.85v-22.2c0-1.02.83-1.85,1.85-1.85h22.2c1.02,0,1.85.83,1.85,1.85v11.1c0,1.02.83,1.85,1.85,1.85s1.85-.83,1.85-1.85v-11.1c0-3.07-2.48-5.55-5.55-5.55Z"/>
  <path class="cls-1" d="m28.56,23.77c.29.18.63.28.98.28.29,0,.57-.07.83-.2l11.1-5.55c.91-.47,1.27-1.58.8-2.49-.18-.35-.46-.63-.8-.8l-11.1-5.55c-.91-.46-2.02-.09-2.48.82-.13.26-.2.54-.2.83v11.1c0,.64.33,1.23.87,1.57Zm2.83-9.68l5.11,2.55-5.11,2.55v-5.11Z"/>
  <path class="cls-2" d="m33.24,33.3c9.2,0,16.65-7.45,16.65-16.65S42.43,0,33.24,0s-16.65,7.45-16.65,16.65,7.45,16.65,16.65,16.65Zm0-29.6c7.15,0,12.95,5.8,12.95,12.95s-5.8,12.95-12.95,12.95-12.95-5.8-12.95-12.95,5.8-12.95,12.95-12.95Z"/>
  <path class="cls-2" d="m52.89,44.02c.45-.07.85-.34,1.07-.75l3.46-6.39c.38-.71.12-1.59-.59-1.97-.71-.38-1.59-.12-1.97.59l-3.46,6.39c-.38.71-.12,1.59.59,1.97.28.15.59.21.91.16Z"/>
  <path class="cls-2" d="m56.87,48.98c.27.37.71.58,1.16.58.31,0,.62-.1.87-.29l5.81-4.36c.64-.48.77-1.39.29-2.04-.48-.64-1.39-.77-2.04-.29l-5.81,4.36c-.64.48-.77,1.39-.29,2.04h0Z"/>
  <path class="cls-2" d="m69.84,52.9c-.14-.79-.9-1.32-1.69-1.17-.02,0-.04,0-.06.01l-7.27,1.45c-.8.08-1.39.8-1.31,1.6.08.8.8,1.39,1.6,1.31h.29l7.27-1.45c.79-.14,1.32-.9,1.17-1.69,0-.02,0-.04-.01-.06Z"/>
  <path class="cls-2" d="m71.25,40.7h22.2c1.02,0,1.85-.83,1.85-1.85V9.25c0-1.02-.83-1.85-1.85-1.85h-22.2c-1.02,0-1.85.83-1.85,1.85v29.6c0,1.02.83,1.85,1.85,1.85Zm1.85-29.6h18.5v25.9h-18.5V11.1Z"/>
  <path class="cls-1" d="m86.05,14.8h-3.7c-1.02,0-1.85.83-1.85,1.85s.83,1.85,1.85,1.85h3.7c1.02,0,1.85-.83,1.85-1.85s-.83-1.85-1.85-1.85Z"/>
  <path class="cls-1" d="m86.05,22.2h-7.4c-1.02,0-1.85.83-1.85,1.85s.83,1.85,1.85,1.85h7.4c1.02,0,1.85-.83,1.85-1.85s-.83-1.85-1.85-1.85Z"/>
  <path class="cls-1" d="m86.05,29.6h-7.4c-1.02,0-1.85.83-1.85,1.85s.83,1.85,1.85,1.85h7.4c1.02,0,1.85-.83,1.85-1.85s-.83-1.85-1.85-1.85Z"/>
  <path class="cls-2" d="m50.11,48.69c-.51-.89-1.65-1.2-2.53-.68-.89.51-1.2,1.65-.68,2.53l8.16,14.12-29.6,11.1h-.28l-4.81,2.78-3.2,1.85c-.85.49-1.86.63-2.81.37-.94-.26-1.75-.87-2.24-1.72l-3.7-6.4c-.9-1.74-.3-3.88,1.39-4.88l6.4-3.7,4.63,8.01c.33.57.95.93,1.61.93,1.02,0,1.85-.82,1.86-1.84,0-.33-.08-.65-.25-.93l-4.77-8.25,23.22-19.15.76,1.31c.51.89,1.65,1.2,2.53.68.89-.51,1.2-1.65.68-2.53l-1.85-3.2c-.27-.47-.74-.79-1.28-.89-.54-.1-1.09.04-1.52.39l-25.9,21.35-7.88,4.55c-2.91,1.69-4.31,5.14-3.4,8.38l-1.85,1.05c-2.66,1.53-3.58,4.92-2.05,7.58.74,1.28,1.95,2.22,3.38,2.6.47.12.96.19,1.44.18.97,0,1.93-.26,2.78-.74l1.85-1.05c.89.92,2.01,1.58,3.24,1.92.63.18,1.29.26,1.94.26,1.3,0,2.58-.34,3.7-1l1.61-.93,3.7,6.42c1.53,2.65,4.91,3.56,7.57,2.04,2.66-1.53,3.57-4.92,2.04-7.58h0s-3.37-5.87-3.37-5.87l27.75-10.42c.51-.19.91-.6,1.09-1.11.18-.51.13-1.07-.13-1.54l-9.21-15.98ZM6.41,80.31c-.43.25-.93.31-1.41.18-.47-.12-.88-.43-1.13-.85-.25-.43-.31-.93-.19-1.41.13-.48.44-.88.87-1.13l1.61-.93,1.85,3.2-1.61.93Zm24.35,5.18c.25.43.31.93.19,1.41-.13.47-.44.87-.87,1.11-.88.51-2,.21-2.52-.67l-3.7-6.42,3.07-1.76h.15l3.68,6.33Z"/>
</svg>