<?xml version="1.0" encoding="UTF-8"?>
<svg id="Layer_1" data-name="Layer 1" xmlns="http://www.w3.org/2000/svg" viewBox="0 0 87 87">
  <defs>
    <style>
      .cls-1 {
        fill: #d50321;
      }

      .cls-1, .cls-2 {
        stroke-width: 0px;
      }

      .cls-2 {
        fill: #014b8f;
      }
    </style>
  </defs>
  <path class="cls-1" d="m18.02,28.68h28.63c1.41,0,2.55-1.14,2.55-2.55v-13.38c0-1.41-1.14-2.55-2.55-2.55h-28.63c-1.41,0-2.55,1.14-2.55,2.55v13.38c0,1.41,1.14,2.55,2.55,2.55h0Zm2.55-13.38h23.52v8.28h-23.52v-8.28Z"/>
  <path class="cls-2" d="m86.26,21.36l-10.13-10.12s0,0,0,0l-5.27-5.27c-1-1-2.61-1-3.61,0-1,1-1,2.61,0,3.61l4.53,4.52v12.62c0,4.53,3.69,8.22,8.22,8.22h1.9v43.52c0,1.9-1.55,3.44-3.45,3.44s-3.45-1.55-3.45-3.44v-34.45c0-5.64-4.59-10.23-10.23-10.23h-5.38V2.55c0-1.41-1.14-2.55-2.55-2.55H7.81c-1.41,0-2.55,1.14-2.55,2.55v69.18h-2.71c-1.41,0-2.55,1.14-2.55,2.55v10.17c0,1.41,1.14,2.55,2.55,2.55h59.43c1.41,0,2.55-1.14,2.55-2.55v-10.17c0-1.41-1.14-2.55-2.55-2.55h-2.58v-32.85h5.38c2.83,0,5.13,2.3,5.13,5.13v34.45c0,4.71,3.84,8.54,8.55,8.54s8.55-3.83,8.55-8.54V23.16c0-.68-.27-1.32-.75-1.8h0ZM54.3,5.1v28.68H10.36V5.1h43.93Zm5.13,76.81H5.1v-5.08h54.33v5.08h0Zm-49.07-10.17v-32.85h43.93v32.85H10.36ZM80,29.84c-1.72,0-3.12-1.4-3.12-3.12v-7.52l5.02,5.02v5.62h-1.91Z"/>
  <path class="cls-2" d="m34.43,44.58c-.48-.69-1.26-1.1-2.1-1.1s-1.62.41-2.1,1.1c-1.52,2.2-6.48,9.66-6.48,13.49,0,4.73,3.85,8.57,8.58,8.57s8.58-3.85,8.58-8.57c0-3.82-4.96-11.29-6.48-13.49Zm-2.1,16.96c-1.92,0-3.47-1.56-3.47-3.47,0-.94,1.33-3.86,3.47-7.36,2.14,3.5,3.47,6.42,3.47,7.36,0,1.91-1.56,3.47-3.47,3.47Z"/>
</svg>