<?xml version="1.0" encoding="UTF-8"?>
<svg id="Layer_1" data-name="Layer 1" xmlns="http://www.w3.org/2000/svg" viewBox="0 0 131.43 118.76">
  <defs>
    <style>
      .cls-1 {
        fill: #d50321;
      }

      .cls-1, .cls-2, .cls-3 {
        stroke-width: 0px;
      }

      .cls-2 {
        fill: none;
      }

      .cls-3 {
        fill: #014b8f;
      }
    </style>
  </defs>
  <path class="cls-2" d="m86.97,68.57c-.02.78.24,1.19,1.09,1.18,5.42-.02,10.84-.02,16.26,0,.79,0,1.04-.38,1.03-1.11-.03-.98-.05-1.97,0-2.94.06-.97-.36-1.26-1.28-1.24-2.6.04-5.21.01-7.81.01-2.69,0-5.38.02-8.07-.01-.85-.01-1.27.26-1.23,1.17.04.98.03,1.96,0,2.94Z"/>
  <path class="cls-2" d="m32.06,77.97c.03.47,0,.94.02,1.41.11,4.39-.83,3.62,3.96,3.71.86.02,1.11-.38,1.09-1.17-.04-1.24-.01-2.48,0-3.71,0-2.85.96-3.81,3.84-3.87,6.88-.15,12.81-5.17,14.14-11.92.38-1.95.2-3.91.27-5.87.08-2.21,1.24-3.38,3.44-3.45.51-.02,1.03,0,1.54-.02.93-.04,1.54-.49,1.66-1.45.12-1.02-.4-1.66-1.36-1.85-.7-.14-1.44-.11-2.16-.13-1.81-.07-2.96-1.11-3.09-2.92-.07-.98-.01-1.96-.01-2.95h-.02v-.38c0-3.73,0-3.71-3.81-3.76-4.48-.06-8.96.04-13.44-.23-4.19-.26-7.42-2.11-9.71-5.57-.58-.88-.96-1.04-1.81-.34-3.49,2.86-7.43,4.84-11.87,5.74-.9.18-1.06.64-1.05,1.42.03,1.88.03,3.76,0,5.64-.03,2.22-1.12,3.3-3.3,3.35-.64.01-1.28-.02-1.9.2-.78.28-1.22.83-1.15,1.65.07.84.56,1.44,1.44,1.56.55.08,1.11.03,1.66.06,2.08.12,3.21,1.27,3.25,3.34.02,1.02,0,2.05,0,3.07.05,8.11,6.48,14.65,14.59,14.83,2.6.06,3.64,1.05,3.78,3.64Zm-2.96-14.9c.99-1.18,2.63-1.5,3.9-.55,1.26.94,2.29.97,3.56.01,1.28-.96,2.93-.64,3.9.54.97,1.17.9,2.79-.22,3.95-1.5,1.54-3.39,2.22-5.52,2.31-2.08-.12-3.92-.81-5.39-2.32-1.14-1.17-1.21-2.76-.23-3.93Z"/>
  <path class="cls-2" d="m8.78,34.62c.75-.66,1.68-.73,2.63-.84,3.71-.45,7.13-1.71,10.16-3.93,1.96-1.44,3.86-2.97,5.84-4.39,2.11-1.51,4.45-.51,4.92,2.04.78,4.21,2.94,6,7.2,6.05,6.11.08,12.21.18,18.32.28.3,0,.6.07.89.05.76-.06,1.46,1.12,2.01.49.43-.5.24-1.54.33-2.35.01-.13.05-.25.06-.38.44-7.16-1.75-13.29-7.2-18.1-3.05-2.69-6.91-3.84-10.51-5.49-1.02-.47-1.26-.26-1.33.85-.28,3.93-2.58,6.05-6.49,6.1-2.09.03-4.19,0-6.28,0h0c-2.14,0-4.27-.01-6.41.01-3.36.04-6.51.75-9.28,2.8-4.86,3.59-7.27,10.77-5.55,16.54.13.44.3.61.7.26Z"/>
  <path class="cls-3" d="m66.76,102.94c-.72-1.12,1.5-2.25,1.27-3.25-.22.06-.54.07-1.05.07-8.75,0-24.48,0-33.24,0-8.71,0-17.42,0-26.13,0-1.63,0-1.7-.11-1.11-1.68,2.15-5.76,7.13-9.27,13.27-9.29,9.99-.03,19.99-.05,29.98.02,3.32.02,9.27.76,12.27,2.26.93.47,1.43,1.06,1.52,2.04,0-2.97,0-5.94,0-8.91-.03,1.11-.16,1.07-1.44.62-3.29-1.15-9.42-1.81-12.93-1.73-1.67.04-3.33.01-5,0-.41,0-.87.09-1.14-.39-.6-1.09.05-2.49,1.3-2.76,9.92-2.14,16.36-9.61,17-19.79.05-.83.35-1.16,1.14-1.41,2.99-.93,4.87-2.97,5.42-6.06.52-2.89-.48-5.32-2.73-7.17-.68-.56-.8-1-.5-1.83,1.81-5.04,2.68-10.23,2.36-15.59-.5-8.65-4.19-15.61-11.3-20.57-4.84-3.37-10.53-5.06-15.91-7.32-1.79-.75-3.65.72-3.71,2.71-.04,1.58-.02,3.16.05,4.74.06,1.16-.36,1.57-1.55,1.56-4.27-.06-8.55-.04-12.82-.02-9.09.04-17.18,6.31-19.27,15.14-1.56,6.58-.35,12.98,1.82,19.24.34.98.29,1.53-.52,2.28-4.06,3.75-2.92,10.47,2.15,12.5,1.33.53,1.93,1.18,1.86,2.54-.01.21.03.43.05.64.49,5.2,2.7,9.58,6.48,13.14,2.96,2.79,6.47,4.58,10.5,5.27.81.14,1.28.4,1.25,1.38-.05,1.74,0,1.76-1.79,1.77-1.58,0-3.16.03-4.74,0-2.38-.05-4.67.42-6.9,1.22C5.26,86.99-.17,94.71,0,102.36c.04,1.93,1.1,3.02,3.01,3.08.51.02,1.03,0,1.54,0,19.7,0,42.02,0,61.72,0,.5,0,.84,0,1.09.05-.72-.56.15-1.37-.6-2.55ZM13.63,17.82c2.77-2.04,5.92-2.76,9.28-2.8,2.14-.02,4.27,0,6.41,0h0c2.09,0,4.19.01,6.28-.01,3.91-.05,6.21-2.17,6.49-6.1.08-1.11.32-1.32,1.33-.85,3.6,1.65,7.46,2.8,10.51,5.49,5.46,4.81,7.64,10.94,7.2,18.1,0,.13-.04.25-.06.38-.09.8.11,1.85-.33,2.35-.55.63-1.25-.55-2.01-.49-.29.02-.6-.04-.89-.05-6.11-.1-12.21-.2-18.32-.28-4.27-.05-6.43-1.85-7.2-6.05-.47-2.55-2.81-3.55-4.92-2.04-1.98,1.41-3.87,2.95-5.84,4.39-3.03,2.22-6.45,3.48-10.16,3.93-.94.11-1.87.18-2.63.84-.4.35-.57.18-.7-.26-1.73-5.77.69-12.96,5.55-16.54Zm.05,41.69c0-1.02.01-2.05,0-3.07-.04-2.07-1.17-3.22-3.25-3.34-.55-.03-1.12.01-1.66-.06-.88-.12-1.36-.72-1.44-1.56-.07-.82.37-1.37,1.15-1.65.62-.22,1.26-.19,1.9-.2,2.19-.05,3.27-1.13,3.3-3.35.03-1.88.03-3.76,0-5.64-.01-.78.15-1.24,1.05-1.42,4.44-.91,8.38-2.89,11.87-5.74.86-.7,1.23-.54,1.81.34,2.29,3.46,5.53,5.31,9.71,5.57,4.48.27,8.96.17,13.44.23,3.81.05,3.81.03,3.81,3.76v.38h.02c0,.98-.06,1.97.01,2.95.13,1.81,1.28,2.85,3.09,2.92.72.03,1.46,0,2.16.13.96.19,1.48.83,1.36,1.85-.12.96-.73,1.41-1.66,1.45-.51.02-1.02,0-1.54.02-2.21.08-3.36,1.24-3.44,3.45-.07,1.96.11,3.92-.27,5.87-1.33,6.75-7.25,11.77-14.14,11.92-2.89.06-3.84,1.02-3.84,3.87,0,1.24-.03,2.48,0,3.71.02.79-.23,1.19-1.09,1.17-4.8-.09-3.86.67-3.96-3.71-.01-.47.01-.94-.02-1.41-.14-2.58-1.18-3.58-3.78-3.64-8.11-.18-14.55-6.72-14.59-14.83Z"/>
  <path class="cls-3" d="m34.71,69.33c2.13-.09,4.02-.77,5.52-2.31,1.13-1.16,1.19-2.78.22-3.95-.97-1.18-2.62-1.5-3.9-.54-1.27.96-2.31.92-3.56-.01-1.27-.95-2.91-.63-3.9.55-.98,1.17-.91,2.76.23,3.93,1.47,1.51,3.31,2.2,5.39,2.32Z"/>
  <path class="cls-1" d="m122.12,60.72c-2.95,0-5.9,0-8.85,0q-1.8,0-1.8-1.74c0-2.05.03-4.1-.02-6.15-.05-2.08-1.21-3.34-3.26-3.35-7.95-.04-15.9-.04-23.84,0-2.06.01-3.21,1.29-3.23,3.36-.03,2.05,0,4.1,0,6.15,0,1.72,0,1.73-1.68,1.73-3.33,0-6.67-.04-10,.02-4.61.08-7.88,3.14-8.38,7.71-.23,2.09-.08,4.18-.12,6.27,0,.17,0,.31-.01.45-.03,1.11.03,5.49,0,8.91-.01,1.22-.02,1.53-.01,2.46.03,2.07.04,3.12.28,4.13.4,1.72,1.12,2.91,1.34,3.25.8,1.25,1.71,2.07,2.34,2.55.62.1.64.45.64,1.65,0,3.85-.03,7.69.01,11.54.06,5.24,3.71,9.06,8.79,9.08,14.66.04,29.31.04,43.97,0,4.11,0,7.51-2.7,8.42-6.59.27-1.15.32-2.37.33-3.56.04-3.93.01-7.86.02-11.79,0-.59-.12-1.26.46-1.66,2.35-1.63,3.28-4.07,3.91-6.69v-21.28c-1.75-4.66-4.32-6.44-9.31-6.45Zm-33.79-5.29c2.69.03,5.38.01,8.07.01,2.6,0,5.21.03,7.81-.01.92-.01,1.34.27,1.28,1.24-.06.98-.03,1.96,0,2.94.02.73-.23,1.11-1.03,1.11-5.42-.01-10.84-.01-16.26,0-.86,0-1.12-.4-1.09-1.18.03-.98.04-1.96,0-2.94-.04-.91.38-1.18,1.23-1.17Zm32.75,54.43c-.02,1.85-1.12,2.89-3.01,2.89-7.3.01-14.6,0-21.91,0-7.09,0-14.18,0-21.27,0-2.5,0-3.39-.89-3.39-3.4,0-3.84.03-7.69-.02-11.53-.01-1.07.36-1.42,1.4-1.38,2.13.06,4.27.06,6.4,0,.98-.02,1.34.29,1.38,1.31.08,2.11,1.11,3.26,2.8,3.34,1.82.08,3.14-1.12,3.12-3.1-.01-1.28.45-1.57,1.64-1.56,5.42.05,10.85.05,16.27,0,1.08,0,1.52.26,1.5,1.43-.04,1.91,1.08,3.14,2.73,3.22,1.79.09,3.01-.92,3.11-2.96.07-1.46.66-1.76,1.97-1.7,2.04.1,4.1.05,6.15.02.81-.01,1.15.26,1.14,1.11-.03,4.1.01,8.2-.02,12.3Zm4.62-24.75c0,1.24-.11,2.48-.53,3.66-.37,1.06-1.07,1.71-2.28,1.7-3.25-.01-6.49-.01-9.74.01-.88,0-1.22-.35-1.22-1.22,0-.72-.03-1.46-.17-2.16-.3-1.49-1.57-2.41-3.09-2.3-1.4.1-2.53,1.21-2.68,2.65-.01.13-.01.26-.02.38q-.1,2.65-2.81,2.65c-4.96,0-9.91-.04-14.86.03-1.26.02-1.84-.3-1.69-1.64.07-.62,0-1.29-.14-1.9-.34-1.36-1.45-2.17-2.81-2.17-1.36,0-2.43.83-2.83,2.16-.24.8-.2,1.61-.19,2.42,0,.73-.26,1.11-1.04,1.11-3.37-.02-6.75-.02-10.12-.02-1.04,0-1.67-.6-2.02-1.5-.41-1.04-.55-2.15-.55-3.26,0-5.34-.01-10.68,0-16.02,0-2.13.82-2.95,2.95-2.95,8.8,0,17.6,0,26.4,0,8.71,0,17.43,0,26.14,0,2.52,0,3.3.77,3.31,3.27,0,5.04.01,10.08,0,15.12Z"/>
</svg>