<?xml version="1.0" encoding="UTF-8"?>
<svg id="Layer_1" data-name="Layer 1" xmlns="http://www.w3.org/2000/svg" viewBox="0 0 101.62 101.5">
  <defs>
    <style>
      .cls-1 {
        fill: #d50321;
      }

      .cls-1, .cls-2, .cls-3 {
        stroke-width: 0px;
      }

      .cls-2 {
        fill: #fff;
      }

      .cls-3 {
        fill: #014b8f;
      }
    </style>
  </defs>
  <path class="cls-1" d="m68.26,48.04v19.58c-1.93-.61-3.58-.95-4.83-1.13v-18.45c0-2.06-.81-4.02-2.29-5.54-1.59-1.58-3.72-2.36-6-2.24-4.02.24-7.29,3.91-7.29,8.19v13.24c-1.38-1.13-2.04-1.82-3-2.45-.48-.32-1.08-.65-1.83-.95v-9.85c0-6.89,5.2-12.62,11.82-13.02,3.68-.23,7.13,1.08,9.73,3.67,2.38,2.43,3.69,5.6,3.69,8.93Z"/>
  <path class="cls-3" d="m100.66,69.12c-1.19-2.11-3.24-3.62-5.6-4.14-1.17-.25-2.4-.27-3.56-.03v-30.15l1.17.95c.45.37.99.55,1.52.55.07,0,.13-.02.2-.03.04,0,.08.03.13.03.7,0,1.39-.31,1.87-.89.84-1.04.69-2.56-.35-3.4l-5.43-4.42h0L57.33.52c-.49-.4-1.09-.56-1.69-.51-.59-.05-1.2.11-1.69.51L15.24,32c-1.03.84-1.19,2.36-.35,3.4.53.65,1.33.95,2.1.88.57.02,1.15-.15,1.62-.53l1.17-.95v26.85c-5.3,2.36-8.81,5.42-9.11,5.72l-9.35,4.78c-.58.31-1.02.83-1.21,1.43-.19.61-.13,1.29.18,1.87l12.66,23.7c.31.6.85,1.03,1.5,1.19.21.07.42.1.63.1.45,0,.89-.13,1.27-.37l9.45-5.88s.05-.05.08-.06c.03-.02.08-.03.11-.05.79-.43,1.74-.43,2.54-.01,11.45,6.08,18.48,7.43,22.48,7.43.95,0,1.73-.08,2.35-.17,2.33-.13,23-1.74,44.35-21.62l1.74-1.74c2.35-2.35,2.83-5.99,1.19-8.85ZM24.61,30.87L55.64,5.64l31.03,25.24v36.36l-4.98,2.8c-3.54,1.98-6.73,3.94-9.66,5.97-.49.32-.93.66-1.4.98.16-.32.29-.66.37-.98.27-.95.29-1.89,0-2.78-.3-1.01-1.03-2.15-2.63-3.03-1.49-.72-2.75-1.03-3.64-1.18-.45-.07-1.04-.13-2.21-.25h-.03c-2.65-.19-5.29-.47-7.9-.95-1.42-.27-2.85-.59-4.2-1.11-1.29-.5-2.38-1.39-3.42-2.29-1.16-1.01-2.33-2.07-3.76-2.66-.69-.29-1.32-.69-2.01-.99-.77-.32-1.55-.61-2.34-.85-1.39-.41-2.8-.71-4.24-.86-2.97-.33-5.99-.12-8.9.56-.25.06-.5.13-.75.19-.11.03-.22.06-.33.09v-29.03Zm-8.61,63.74l-10.3-19.28,5.39-2.77,10.22,18.73-5.31,3.32Zm80.01-20.01l-1.65,1.63c-1.32,1.23-2.64,2.38-3.96,3.48h-.01c-.23.19-.45.39-.68.56-19.03,15.41-36.5,16.23-36.69,16.23-.11.01-.25.03-.37.05-2.03.39-8.24.5-21.84-6.73-1.11-.59-2.34-.9-3.54-.9-.51,0-1.01.06-1.53.16l-5.32-9.9c-.13-.21-.25-.42-.35-.64l-4.7-8.74c1.01-.74,2.52-1.76,4.41-2.74,1.41-.74,3.04-1.48,4.83-2.05,4.94-1.64,11.05-2.13,17.14,1.26.41.24.85.53,1.27.88.52.42,1.03.92,1.55,1.52.74.85,1.82,1.59,3.28,2.22,3.12,1.39,7.93,2.27,14.54,2.72.39.03.72.07,1.05.1,2.05.25,2.84.77,2.94.89,0,.11-.19.66-1,1.41-.17.18-.37.35-.61.55-.37.31-.82.63-1.33.92-3.32,2.01-9.35,3.75-16.12,2.44-1.17-.23-2.36-.55-3.57-.97-.23-.08-.45-.11-.67-.11-.91-.06-1.77.41-2.24,1.23-.15.24-.23.51-.27.77-.13.84.17,1.73.87,2.29.39.26.79.43,1.21.59,1.58.58,3.2.99,4.88,1.13,17.39,1.51,25.53-3.74,25.53-3.74l.43-.27,7.74-4.83,2.84-1.77,2.62-1.48,4.14-2.32c.08-.03.17-.08.23-.13.15-.11.31-.21.47-.29.77-.4,1.65-.51,2.51-.32,1.03.23,1.89.84,2.42,1.74.56.95.35,2.38-.42,3.17Z"/>
  <path class="cls-2" d="m59.34,68.5c-.74-.07-2.38-.24-4.37-.6,0,0-.55-.1-1.35-.28,1.48.32,3.36.63,5.72.88Z"/>
</svg>