<?xml version="1.0" encoding="UTF-8"?>
<svg id="Layer_1" data-name="Layer 1" xmlns="http://www.w3.org/2000/svg" viewBox="0 0 125.14 109.08">
  <defs>
    <style>
      .cls-1 {
        fill: #d50321;
      }

      .cls-1, .cls-2 {
        stroke-width: 0px;
      }

      .cls-2 {
        fill: #014b8f;
      }
    </style>
  </defs>
  <g>
    <path class="cls-1" d="m16.63,62.98c-.65.3-1.02,0-1.06-.98-.07-1.71-.02-3.42-.02-5.13h-.01c0-1.59-.03-3.17.01-4.76.04-1.47.57-1.93,2.04-1.98,1.46-.05,2.93.13,4.37-.25,2.38-.63,4.03-2.08,4.9-4.36.75-1.98,1.52-3.94,2.43-5.86,1.26-2.66.72-5.66-1.34-7.78-.68-.7-1.4-1.36-2.05-2.09-.85-.95-.84-1.78.05-2.68,2.29-2.32,4.59-4.62,6.9-6.91.97-.96,1.64-.95,2.63-.03.87.8,1.66,1.69,2.57,2.42,2.27,1.82,4.79,2.15,7.43.92,1.81-.84,3.65-1.6,5.52-2.29,3.21-1.19,4.8-3.57,4.81-7.03,0-.85,0-1.71.01-2.56.03-1.12.61-1.75,1.75-1.76,3.38-.01,6.75,0,10.13,0,1.1,0,1.64.65,1.7,1.68.06.89.03,1.79.04,2.68.02,3.39,1.6,5.79,4.74,6.96,1.91.71,3.78,1.49,5.63,2.34,3.01,1.38,5.71.69,8.09-1.5.72-.66,1.38-1.38,2.09-2.05.71-.67,1.48-.7,2.17-.01,2.46,2.43,4.91,4.87,7.34,7.34.76.78.61,1.65-.06,2.41-.68.76-1.43,1.45-2.13,2.18-2.06,2.13-2.59,5.1-1.32,7.78.87,1.84,1.64,3.72,2.34,5.63,1.09,2.99,3.59,4.76,6.8,4.83.94.02,1.87.01,2.81.01,1.09,0,1.73.58,1.75,1.62.05,3.42.07,6.84,0,10.25-.02.98-.35,1.25-1.06.93,1.73,1.32,3.16,3.01,4.17,4.96-.06-.38.03-.7.41-1.05,1.38-1.3,1.94-2.96,1.94-4.84,0-3.46.02-6.92,0-10.38-.03-3.54-2.54-6.38-6.02-6.93-1.26-.2-2.51-.19-3.77-.17-1.04.02-1.7-.4-2.02-1.4-.61-1.9-1.4-3.73-2.28-5.52-.42-.86-.27-1.57.38-2.21.69-.69,1.39-1.37,2.06-2.08,2.69-2.83,2.74-7,.04-9.8-2.46-2.55-4.94-5.07-7.52-7.5-2.24-2.12-4.88-2.63-7.79-1.4-1.59.67-2.69,1.95-3.84,3.15-.86.91-1.76,1.08-2.85.53-1.67-.85-3.41-1.54-5.18-2.14-1.02-.35-1.51-1.04-1.5-2.11,0-.98.01-1.95,0-2.93-.09-3.65-3.1-6.65-6.74-6.68-3.62-.03-7.24-.03-10.87,0-3.79.03-6.78,3.04-6.84,6.83-.01.94-.01,1.87,0,2.81,0,1.01-.43,1.71-1.41,2.05-1.85.64-3.65,1.38-5.41,2.23-.94.46-1.8.37-2.55-.44-.64-.69-1.3-1.35-1.99-1.98-2.79-2.56-7.01-2.62-9.64-.08-2.61,2.51-5.17,5.08-7.68,7.68-2.66,2.75-2.63,6.92-.02,9.71.7.74,1.43,1.45,2.15,2.17.65.65.77,1.37.36,2.22-.55,1.14-1.06,2.29-1.52,3.46-1.49,3.73-.76,3.45-4.88,3.45-.28,0-.57.05-.85.09-4.6.61-6.84,3.14-6.84,7.77,0,3.17.01,6.35,0,9.52,0,1.88.58,3.54,1.9,4.87.4.4.52.75.44,1.16,1.01-1.96,2.44-3.65,4.17-4.97Z"/>
    <path class="cls-1" d="m83.38,56.53c-.04-9.74-7.61-18.54-17.24-20.07-13.08-2.08-24.53,7.82-24.25,21.06.11,5.06,2,9.52,5.4,13.28.49.54.71,1.04.74,1.67.37-2.47,1.36-4.74,2.79-6.65-.37.21-.63.02-.98-.56-1.54-2.61-2.58-5.34-2.37-8.25-.35-7.32,5.5-14.71,14.18-15.37,7.73-.58,14.89,5.17,16.01,12.89.55,3.82-.15,7.44-2.27,10.74-.34.53-.59.72-.9.59,1.33,1.78,2.27,3.85,2.69,6.12.08-.34.26-.63.53-.92,3.78-4.1,5.68-8.96,5.66-14.53Z"/>
  </g>
  <g>
    <path class="cls-2" d="m124.97,100.22c-1.9-7.21-6.01-12.73-12.5-16.43-.71-.4-.63-.74-.27-1.34,2.71-4.52,2.97-9.2.78-13.99-.09-.2-.14-.38-.17-.55-1.01-1.95-2.44-3.64-4.17-4.96-.18-.08-.37-.18-.6-.33-8.21-5.46-18.95-1.95-22.23,7.33-1.49,4.21-1.06,8.35,1.22,12.21.53.9.56,1.32-.44,1.84-1.77.92-3.33,2.19-4.79,3.55-.49.46-.82.48-1.31-.02-1.46-1.5-3.15-2.7-4.98-3.7-.72-.4-.75-.75-.33-1.43,1.83-3.03,2.57-6.3,2.01-9.82-.04-.22-.02-.42.02-.6-.42-2.27-1.36-4.34-2.69-6.12-.17-.07-.36-.24-.59-.51-6.14-7.15-16.4-7.15-22.59.01-.19.22-.35.37-.5.45-1.44,1.91-2.42,4.18-2.79,6.65,0,.19,0,.38-.03.6-.42,3.29.29,6.4,2.03,9.23.48.78.42,1.16-.39,1.6-1.8.97-3.44,2.18-4.88,3.63-.41.42-.74.55-1.22.1-1.63-1.54-3.42-2.89-5.39-3.97-.71-.39-.33-.79-.08-1.19,1.61-2.61,2.25-5.43,2.18-8.49-.01-.43-.05-.86-.1-1.29,0-.07-.02-.14-.03-.2-.05-.37-.12-.74-.2-1.11-.02-.08-.04-.16-.06-.24-1.52-6.04-7.24-10.94-13.53-11.1-3.42-.09-6.51.78-9.31,2.71-.14.1-.27.17-.39.22-1.73,1.33-3.17,3.02-4.17,4.97-.03.17-.08.34-.18.54-.79,1.73-1.26,3.44-1.41,5.15,0,.08,0,.15-.01.23-.2,2.81.48,5.58,2.06,8.29.54.92.45,1.3-.48,1.85-6.46,3.83-10.56,9.42-12.23,16.75-.56,2.48.06,4.69,1.92,6.47,1.43,1.37,3.16,1.83,5.14,1.83,24.21-.03,48.43-.02,72.64-.02,12.78,0,25.56,0,38.33,0,1.43,0,2.73-.29,3.94-1.05,1.49-.94,2.31-2.37,2.97-3.92v-3.42c-.06-.15-.13-.3-.17-.45Zm-25.27-34.6c4.92-.04,9.04,4.12,9.04,9.12,0,5.07-3.97,9.04-9.05,9.04-4.99,0-9.16-4.14-9.11-9.05.06-4.99,4.14-9.07,9.12-9.11Zm-37.08,0c4.98-.03,9.04,4.07,9.03,9.12,0,5.1-3.95,9.04-9.06,9.03-5.03,0-8.96-3.95-8.97-8.99-.01-5.05,4-9.14,9-9.16Zm-37.05,0c4.97.03,9.15,4.21,9.11,9.1-.04,5.03-4.08,9.05-9.1,9.05-5.07,0-9.05-3.97-9.05-9.03,0-5,4.11-9.16,9.03-9.12Zm14.52,27.86c-1.49,2.59-2.58,5.34-3,8.32-.24,1.7-.21,1.7-1.93,1.7-4.47,0-8.95,0-13.42,0-4.64,0-9.27,0-13.91,0-2.09,0-2.46-.48-1.89-2.5,1.68-5.93,5.35-10.21,10.84-12.98.81-.41,1.52-.47,2.41-.05,4.3,2.06,8.64,2.01,12.92-.08.64-.31,1.2-.36,1.85-.05,2.19,1.04,4.16,2.37,5.89,4.07.52.51.61.92.23,1.57Zm40.63,10.01c-3.25.03-6.51.01-9.76.01-2.77,0-5.53,0-8.3,0-5.9,0-11.8,0-17.69,0-2.17,0-2.56-.5-1.95-2.56,1.75-5.89,5.37-10.22,10.9-12.95.83-.41,1.53-.42,2.41,0,4.22,2.01,8.49,1.99,12.7-.03.83-.4,1.51-.37,2.3.01,5.74,2.83,9.44,7.32,11.06,13.51.38,1.44-.07,1.99-1.66,2Zm37.04,0c-4.76.02-9.51,0-14.27,0-4.72,0-9.43-.01-14.15.02-.87,0-1.11-.18-1.16-1.14-.16-3.1-1.32-5.94-2.85-8.6-.55-.96-.36-1.48.37-2.15,1.66-1.53,3.5-2.77,5.53-3.75.69-.33,1.27-.3,1.96.04,4.29,2.08,8.62,2.1,12.92.05.78-.37,1.43-.4,2.18-.03,5.73,2.82,9.48,7.27,11.13,13.46.41,1.55-.02,2.1-1.67,2.1Z"/>
    <path class="cls-2" d="m8.9,22.78c2.06-.44,4.1-1,6.12-1.61,1.15-.35,1.82-1.26,1.88-2.46.06-1.13-.41-2.13-1.48-2.59-1.01-.43-.67-.84-.21-1.42,3.2-3.97,7.16-6.93,11.82-8.99.37-.16.75-.31,1.1-.52,1.18-.72,1.68-2.13,1.2-3.38-.49-1.31-1.85-2.06-3.24-1.74-.51.12-1,.33-1.48.55-5.76,2.56-10.59,6.31-14.39,11.35-.52.69-.83.87-1.57.22-.86-.76-1.94-.79-2.97-.24-.99.53-1.42,1.41-1.49,2.7.54,2.14.96,4.51,1.88,6.72.48,1.16,1.62,1.68,2.84,1.42Z"/>
    <path class="cls-2" d="m97.85,5.56c4.85,2.05,8.94,5.1,12.25,9.2.45.56.7.94-.21,1.34-1.11.5-1.61,1.5-1.52,2.69.1,1.26.86,2.12,2.05,2.47,1.91.56,3.83,1.07,5.77,1.52,1.38.32,2.72-.36,3.14-1.69.65-2.05,1.2-4.13,1.67-6.23.26-1.16-.25-2.18-1.28-2.82-1.03-.64-2.18-.66-3.07.14-.81.73-1.14.42-1.65-.26-3.84-5.06-8.72-8.81-14.53-11.37-.63-.28-1.26-.57-1.98-.53-1.51.02-2.71,1.21-2.72,2.71-.01,1.46.8,2.3,2.08,2.84Z"/>
  </g>
</svg>