<?xml version="1.0" encoding="UTF-8"?>
<svg id="Layer_1" data-name="Layer 1" xmlns="http://www.w3.org/2000/svg" viewBox="0 0 160.36 108.71">
  <defs>
    <style>
      .cls-1 {
        fill: #d50321;
      }

      .cls-1, .cls-2 {
        stroke-width: 0px;
      }

      .cls-2 {
        fill: #014b8f;
      }
    </style>
  </defs>
  <path class="cls-2" d="m32.45,97.52c-4.52,0-8.19-3.67-8.19-8.18s3.67-8.19,8.19-8.19,8.18,3.67,8.18,8.19-3.67,8.18-8.18,8.18Z"/>
  <path class="cls-2" d="m121.84,97.52c-4.51,0-8.18-3.67-8.18-8.18s3.67-8.19,8.18-8.19,8.19,3.67,8.19,8.19-3.67,8.18-8.19,8.18Z"/>
  <rect class="cls-2" x="81.4" y="54.02" width="11.58" height="6.79"/>
  <path class="cls-2" d="m121.84,108.71c-9.38,0-17.42-6.81-19.05-15.97h-51.28c-1.63,9.17-9.67,15.97-19.05,15.97s-17.43-6.81-19.05-15.97h-3.61c-5.39,0-9.78-4.39-9.78-9.78v-38.5h25.54v-19.16h6.59c5.39,0,9.78,4.38,9.78,9.77v9.39h38.69v-19.16h6.6c5.39,0,9.77,4.38,9.77,9.77v9.39h21.01l-7.65-21.31,6.39-2.29,8.66,24.11,24.96,5.84c5.85,1.36,9.97,6.51,10.02,12.52v19.65c0,5.39-4.39,9.78-9.78,9.78h-9.68c-1.62,9.17-9.66,15.97-19.05,15.97Zm0-31.93c-6.93,0-12.57,5.64-12.57,12.57s5.64,12.57,12.57,12.57,12.57-5.64,12.57-12.57-5.64-12.57-12.57-12.57Zm-89.39,0c-6.93,0-12.57,5.64-12.57,12.57s5.64,12.57,12.57,12.57,12.56-5.64,12.56-12.57-5.63-12.57-12.56-12.57Zm118.12,9.17c1.65,0,2.99-1.34,2.99-2.99v-2.35h-2.35c-5.05,0-9.15-4.1-9.15-9.14s4.1-9.15,9.15-9.15h2.25c-.43-2.4-2.24-4.35-4.68-4.92l-22.59-5.28v18.37c7.58,1.73,13.34,7.8,14.69,15.46h9.68Zm-47.79,0c1.48-8.28,8.28-14.74,16.62-15.8v-18.91h-41.6v21.86h-6.79v-21.86H6.79v2.79h8.8v7.2H6.79v2.19h6.95v6.79h-6.95v12.75c0,1.65,1.34,2.99,2.99,2.99h3.61c1.62-9.16,9.66-15.96,19.05-15.96s17.42,6.8,19.05,15.96h51.28Zm48.43-16.84c-1.3,0-2.36,1.06-2.36,2.36s1.06,2.35,2.36,2.35h2.35v-4.71h-2.35Zm-61.04-24.66v-9.39c0-1.58-1.23-2.88-2.79-2.97v12.36h2.79Zm-55.06,0v-9.39c0-1.58-1.23-2.87-2.79-2.97v12.36h2.79Z"/>
  <path class="cls-1" d="m0,15.32V0h93.11c4.51,0,8.18,3.43,8.18,7.65s-3.67,7.66-8.18,7.66H0Z"/>
  <rect class="cls-2" x="49.65" y="54.02" width="12.69" height="6.79"/>
</svg>