<?xml version="1.0" encoding="UTF-8"?>
<svg id="Layer_1" data-name="Layer 1" xmlns="http://www.w3.org/2000/svg" viewBox="0 0 84.09 79.41">
  <defs>
    <style>
      .cls-1 {
        fill: #d50321;
      }

      .cls-1, .cls-2 {
        stroke-width: 0px;
      }

      .cls-2 {
        fill: #014b8f;
      }
    </style>
  </defs>
  <path class="cls-2" d="m76.41,12.25h-2.12l-4.3-8.16C68.67,1.57,66.06,0,63.21,0H20.88c-2.85,0-5.46,1.57-6.79,4.1l-4.29,8.16h-2.12c-4.23,0-7.66,3.44-7.67,7.67v7.13c0,1.18.96,2.14,2.14,2.14s2.14-.96,2.14-2.14v-7.13c0-1.87,1.52-3.39,3.39-3.39h63.19v46.59c0,3.79-3.08,6.86-6.87,6.86H20.1c-3.79,0-6.86-3.08-6.86-6.86v-15.96c3.67,3.62,7.99,8.84,13.7,8.46h30.21c2.92.23,11.51-2.77,8.86-6.58-.83-.91-2.27-.93-3.12-.03-1.53,1.51-3.59,2.35-5.74,2.34h-30.21c-2.15,0-4.21-.84-5.74-2.34l-7.98-7.82v-15.39c0-2.78-4.27-2.8-4.28,0v37.33c0,5.88,4.58,10.69,10.33,11.11v2.01c0,1.75,1.42,3.18,3.18,3.18s3.18-1.42,3.18-3.18v-1.98h32.84v1.98c0,1.75,1.42,3.18,3.18,3.18s3.18-1.42,3.18-3.18v-2.01c5.75-.43,10.32-5.23,10.32-11.1V16.53c2.34-.28,4.63.79,4.68,3.39v7.13c.01,2.79,4.26,2.8,4.28,0v-7.13c-.01-4.23-3.44-7.66-7.67-7.67Zm-61.79,0l3.25-6.17c.59-1.11,1.74-1.81,3-1.81h42.33c1.26,0,2.42.7,3,1.81l3.25,6.17H14.63Z"/>
  <path class="cls-1" d="m58.63,62.8c.07,3.96,5.95,3.96,6.02,0-.07-3.96-5.95-3.96-6.02,0Z"/>
  <path class="cls-1" d="m19.44,62.8c.07,3.96,5.95,3.96,6.02,0-.07-3.96-5.95-3.96-6.02,0Z"/>
  <path class="cls-1" d="m36.01,60.66c-2.79.01-2.8,4.26,0,4.28h12.06c2.79-.01,2.8-4.26,0-4.28h-12.06Z"/>
</svg>