<?xml version="1.0" encoding="UTF-8"?>
<svg id="Layer_1" data-name="Layer 1" xmlns="http://www.w3.org/2000/svg" viewBox="0 0 83.37 83.37">
  <defs>
    <style>
      .cls-1 {
        fill: #d50321;
      }

      .cls-1, .cls-2 {
        stroke-width: 0px;
      }

      .cls-2 {
        fill: #014b8f;
      }
    </style>
  </defs>
  <path class="cls-1" d="m61.64,22.78H21.73c-1.38,0-2.49-1.27-2.49-2.84s1.12-2.84,2.49-2.84h39.9c1.38,0,2.49,1.27,2.49,2.84s-1.12,2.84-2.49,2.84Zm2.49,16.07c0-1.57-1.12-2.84-2.49-2.84H21.73c-1.38,0-2.49,1.27-2.49,2.84s1.12,2.84,2.49,2.84h39.9c1.38,0,2.49-1.27,2.49-2.84Z"/>
  <path class="cls-2" d="m75.89,17.1h-1.07v-5.34c0-6.49-5.27-11.76-11.76-11.76H20.31c-6.49,0-11.76,5.27-11.76,11.76v5.34h-1.07c-4.13,0-7.48,3.36-7.48,7.48v4.28c0,1.77,1.44,3.21,3.21,3.21s3.21-1.44,3.21-3.21v-4.28c0-.59.48-1.07,1.07-1.07h1.07v35.27c0,3.63,1.68,6.84,4.28,9v5.97c0,5.3,4.32,9.62,9.62,9.62s9.62-4.32,9.62-9.62v-3.21h19.24v3.21c0,5.3,4.32,9.62,9.62,9.62s9.62-4.32,9.62-9.62v-5.97c2.59-2.16,4.28-5.37,4.28-9V23.52h1.07c.59,0,1.07.48,1.07,1.07v4.28c0,1.77,1.44,3.21,3.21,3.21s3.21-1.44,3.21-3.21v-4.28c0-4.13-3.36-7.48-7.48-7.48ZM14.96,11.76c0-2.95,2.4-5.34,5.34-5.34h42.76c2.95,0,5.34,2.4,5.34,5.34v47.03c0,2.95-2.4,5.34-5.34,5.34H20.31c-2.95,0-5.34-2.4-5.34-5.34V11.76Zm10.69,61.99c0,1.77-1.44,3.21-3.21,3.21s-3.21-1.44-3.21-3.21v-3.21h6.41v3.21Zm38.48-3.21v3.21c0,1.77-1.44,3.21-3.21,3.21s-3.21-1.44-3.21-3.21v-3.21h6.41Zm-42.76-16.03c0-1.77,1.44-3.21,3.21-3.21h4.28c1.77,0,3.21,1.44,3.21,3.21s-1.44,3.21-3.21,3.21h-4.28c-1.77,0-3.21-1.44-3.21-3.21Zm29.93,0c0-1.77,1.44-3.21,3.21-3.21h4.28c1.77,0,3.21,1.44,3.21,3.21s-1.44,3.21-3.21,3.21h-4.28c-1.77,0-3.21-1.44-3.21-3.21Z"/>
</svg>